<?xml version="1.0" encoding="UTF-8" standalone="no"?>
<!DOCTYPE svg PUBLIC "-//W3C//DTD SVG 1.1//EN" "http://www.w3.org/Graphics/SVG/1.1/DTD/svg11.dtd">
<svg width="100%" height="100%" viewBox="0 0 1024 1024" version="1.1" xmlns="http://www.w3.org/2000/svg" xmlns:xlink="http://www.w3.org/1999/xlink" xml:space="preserve" xmlns:serif="http://www.serif.com/" style="fill-rule:evenodd;clip-rule:evenodd;stroke-linejoin:round;stroke-miterlimit:2;">
    <path d="M314.261,714.667L314.261,512L378.251,512L378.251,714.667L314.261,714.667ZM645.749,714.667L645.749,298.667L709.739,298.667L709.739,714.667L645.749,714.667ZM480,714.667L480,597.333L544,597.333L544,714.667L480,714.667ZM480,512L480,426.667L544,426.667L544,512L480,512Z" style="fill:rgb(11,154,244);"/>
    <path d="M226.464,874.667C204.91,874.667 186.667,867.2 171.733,852.267C156.8,837.333 149.333,819.09 149.333,797.536L149.333,226.464C149.333,204.91 156.8,186.667 171.733,171.733C186.667,156.8 204.91,149.333 226.464,149.333L797.536,149.333C819.09,149.333 837.333,156.8 852.267,171.733C867.2,186.667 874.667,204.91 874.667,226.464L874.667,797.536C874.667,819.09 867.2,837.333 852.267,852.267C837.333,867.2 819.09,874.667 797.536,874.667L226.464,874.667ZM226.464,810.667L797.536,810.667C800.821,810.667 803.829,809.298 806.56,806.56C809.298,803.829 810.667,800.821 810.667,797.536L810.667,226.464C810.667,223.179 809.298,220.171 806.56,217.44C803.829,214.702 800.821,213.333 797.536,213.333L226.464,213.333C223.179,213.333 220.171,214.702 217.44,217.44C214.702,220.171 213.333,223.179 213.333,226.464L213.333,797.536C213.333,800.821 214.702,803.829 217.44,806.56C220.171,809.298 223.179,810.667 226.464,810.667Z" style="fill:rgb(95,99,104);"/>
</svg>
