<?xml version="1.0" encoding="UTF-8" standalone="no"?>
<!DOCTYPE svg PUBLIC "-//W3C//DTD SVG 1.1//EN" "http://www.w3.org/Graphics/SVG/1.1/DTD/svg11.dtd">
<svg width="100%" height="100%" viewBox="0 0 24 24" version="1.1" xmlns="http://www.w3.org/2000/svg" xmlns:xlink="http://www.w3.org/1999/xlink" xml:space="preserve" xmlns:serif="http://www.serif.com/" style="fill-rule:evenodd;clip-rule:evenodd;stroke-linejoin:round;stroke-miterlimit:2;">
    <path d="M6,19.615C5.556,19.615 5.176,19.457 4.859,19.141C4.543,18.824 4.385,18.444 4.385,18C4.385,17.556 4.543,17.176 4.859,16.859C5.176,16.543 5.556,16.385 6,16.385C6.444,16.385 6.824,16.543 7.141,16.859C7.457,17.176 7.615,17.556 7.615,18C7.615,18.444 7.457,18.824 7.141,19.141C6.824,19.457 6.444,19.615 6,19.615Z" style="fill:rgb(6,154,243);fill-rule:nonzero;"/>
    <path d="M6,13.615C5.556,13.615 5.176,13.457 4.859,13.141C4.543,12.824 4.385,12.444 4.385,12C4.385,11.556 4.543,11.176 4.859,10.859C5.176,10.543 5.556,10.385 6,10.385C6.444,10.385 6.824,10.543 7.141,10.859C7.457,11.176 7.615,11.556 7.615,12C7.615,12.444 7.457,12.824 7.141,13.141C6.824,13.457 6.444,13.615 6,13.615Z" style="fill:rgb(6,154,243);fill-rule:nonzero;"/>
    <path d="M6,7.615C5.556,7.615 5.176,7.457 4.859,7.141C4.543,6.824 4.385,6.444 4.385,6C4.385,5.556 4.543,5.176 4.859,4.859C5.176,4.543 5.556,4.385 6,4.385C6.444,4.385 6.824,4.543 7.141,4.859C7.457,5.176 7.615,5.556 7.615,6C7.615,6.444 7.457,6.824 7.141,7.141C6.824,7.457 6.444,7.615 6,7.615Z" style="fill:rgb(6,154,243);fill-rule:nonzero;"/>
    <path d="M12,7.615C11.556,7.615 11.176,7.457 10.859,7.141C10.543,6.824 10.385,6.444 10.385,6C10.385,5.556 10.543,5.176 10.859,4.859C11.176,4.543 11.556,4.385 12,4.385C12.444,4.385 12.824,4.543 13.141,4.859C13.457,5.176 13.615,5.556 13.615,6C13.615,6.444 13.457,6.824 13.141,7.141C12.824,7.457 12.444,7.615 12,7.615Z" style="fill:rgb(6,154,243);fill-rule:nonzero;"/>
    <path d="M18,7.615C17.556,7.615 17.176,7.457 16.859,7.141C16.543,6.824 16.385,6.444 16.385,6C16.385,5.556 16.543,5.176 16.859,4.859C17.176,4.543 17.556,4.385 18,4.385C18.444,4.385 18.824,4.543 19.141,4.859C19.457,5.176 19.615,5.556 19.615,6C19.615,6.444 19.457,6.824 19.141,7.141C18.824,7.457 18.444,7.615 18,7.615Z" style="fill:rgb(6,154,243);fill-rule:nonzero;"/>
    <path d="M12,13.615C11.556,13.615 11.176,13.457 10.859,13.141C10.543,12.824 10.385,12.444 10.385,12C10.385,11.556 10.543,11.176 10.859,10.859C11.176,10.543 11.556,10.385 12,10.385C12.444,10.385 12.824,10.543 13.141,10.859C13.457,11.176 13.615,11.556 13.615,12C13.615,12.444 13.457,12.824 13.141,13.141C12.824,13.457 12.444,13.615 12,13.615Z" style="fill:rgb(6,154,243);fill-rule:nonzero;"/>
    <path d="M13.116,19.615L13.116,16.973L18.544,11.569C18.669,11.445 18.803,11.357 18.947,11.307C19.091,11.256 19.235,11.231 19.38,11.231C19.537,11.231 19.689,11.26 19.836,11.319C19.983,11.378 20.116,11.467 20.237,11.585L21.162,12.519C21.269,12.644 21.353,12.778 21.412,12.923C21.471,13.068 21.5,13.213 21.5,13.358C21.5,13.503 21.473,13.65 21.419,13.8C21.365,13.95 21.28,14.087 21.162,14.211L15.758,19.615L13.116,19.615ZM14.308,18.423L15.258,18.423L18.504,15.162L18.044,14.687L17.579,14.217L14.308,17.473L14.308,18.423Z" style="fill:rgb(102,102,102);fill-rule:nonzero;"/>
</svg>
