<?xml version="1.0" encoding="UTF-8" standalone="no"?>
<!DOCTYPE svg PUBLIC "-//W3C//DTD SVG 1.1//EN" "http://www.w3.org/Graphics/SVG/1.1/DTD/svg11.dtd">
<svg width="100%" height="100%" viewBox="0 0 1024 1024" version="1.1" xmlns="http://www.w3.org/2000/svg" xmlns:xlink="http://www.w3.org/1999/xlink" xml:space="preserve" xmlns:serif="http://www.serif.com/" style="fill-rule:evenodd;clip-rule:evenodd;stroke-linejoin:round;stroke-miterlimit:2;">
    <path d="M256,836.907C237.056,836.907 220.843,830.165 207.317,816.683C193.835,803.157 187.093,786.944 187.093,768C187.093,749.056 193.835,732.843 207.317,719.317C220.843,705.835 237.056,699.093 256,699.093C274.944,699.093 291.157,705.835 304.683,719.317C318.165,732.843 324.907,749.056 324.907,768C324.907,786.944 318.165,803.157 304.683,816.683C291.157,830.165 274.944,836.907 256,836.907ZM256,580.907C237.056,580.907 220.843,574.165 207.317,560.683C193.835,547.157 187.093,530.944 187.093,512C187.093,493.056 193.835,476.843 207.317,463.317C220.843,449.835 237.056,443.093 256,443.093C274.944,443.093 291.157,449.835 304.683,463.317C318.165,476.843 324.907,493.056 324.907,512C324.907,530.944 318.165,547.157 304.683,560.683C291.157,574.165 274.944,580.907 256,580.907ZM512,580.907C493.056,580.907 476.843,574.165 463.317,560.683C449.835,547.157 443.093,530.944 443.093,512C443.093,493.056 449.835,476.843 463.317,463.317C476.843,449.835 493.056,443.093 512,443.093C530.944,443.093 547.157,449.835 560.683,463.317C574.165,476.843 580.907,493.056 580.907,512C580.907,530.944 574.165,547.157 560.683,560.683C547.157,574.165 530.944,580.907 512,580.907ZM768,324.907C749.056,324.907 732.843,318.165 719.317,304.683C705.835,291.157 699.093,274.944 699.093,256C699.093,237.056 705.835,220.843 719.317,207.317C732.843,193.835 749.056,187.093 768,187.093C786.944,187.093 803.157,193.835 816.683,207.317C830.165,220.843 836.907,237.056 836.907,256C836.907,274.944 830.165,291.157 816.683,304.683C803.157,318.165 786.944,324.907 768,324.907ZM256,324.907C237.056,324.907 220.843,318.165 207.317,304.683C193.835,291.157 187.093,274.944 187.093,256C187.093,237.056 193.835,220.843 207.317,207.317C220.843,193.835 237.056,187.093 256,187.093C274.944,187.093 291.157,193.835 304.683,207.317C318.165,220.843 324.907,237.056 324.907,256C324.907,274.944 318.165,291.157 304.683,304.683C291.157,318.165 274.944,324.907 256,324.907ZM512,324.907C493.056,324.907 476.843,318.165 463.317,304.683C449.835,291.157 443.093,274.944 443.093,256C443.093,237.056 449.835,220.843 463.317,207.317C476.843,193.835 493.056,187.093 512,187.093C530.944,187.093 547.157,193.835 560.683,207.317C574.165,220.843 580.907,237.056 580.907,256C580.907,274.944 574.165,291.157 560.683,304.683C547.157,318.165 530.944,324.907 512,324.907Z" style="fill:rgb(6,154,243);fill-rule:nonzero;"/>
    <g transform="matrix(42.6667,0,0,42.6667,0,0)">
        <path d="M13.116,19.615L13.116,16.973L18.544,11.569C18.669,11.445 18.803,11.357 18.947,11.307C19.091,11.256 19.235,11.231 19.38,11.231C19.537,11.231 19.689,11.26 19.836,11.319C19.983,11.378 20.116,11.467 20.237,11.585L21.162,12.519C21.269,12.644 21.353,12.778 21.412,12.923C21.471,13.068 21.5,13.213 21.5,13.358C21.5,13.503 21.473,13.65 21.419,13.8C21.365,13.95 21.28,14.087 21.162,14.211L15.758,19.615L13.116,19.615ZM14.308,18.423L15.258,18.423L18.504,15.162L18.044,14.687L17.579,14.217L14.308,17.473L14.308,18.423Z" style="fill:rgb(102,102,102);fill-rule:nonzero;"/>
    </g>
</svg>
