<?xml version="1.0" encoding="UTF-8" standalone="no"?>
<!DOCTYPE svg PUBLIC "-//W3C//DTD SVG 1.1//EN" "http://www.w3.org/Graphics/SVG/1.1/DTD/svg11.dtd">
<svg width="100%" height="100%" viewBox="0 0 24 24" version="1.1" xmlns="http://www.w3.org/2000/svg" xmlns:xlink="http://www.w3.org/1999/xlink" xml:space="preserve" xmlns:serif="http://www.serif.com/" style="fill-rule:evenodd;clip-rule:evenodd;stroke-linejoin:round;stroke-miterlimit:2;">
    <path d="M12,20.51L8.356,16.865L9.4,15.811L11.25,17.646L11.25,13.038C11.25,12.456 11.043,11.958 10.629,11.544C10.215,11.13 9.717,10.923 9.135,10.923L3.423,10.923C2.924,10.923 2.498,10.746 2.145,10.393C1.792,10.04 1.616,9.614 1.616,9.115L1.616,3.5L3.116,3.5L3.116,9.115C3.116,9.205 3.144,9.279 3.202,9.337C3.26,9.394 3.333,9.423 3.423,9.423L9.135,9.423C9.728,9.423 10.274,9.554 10.771,9.815C11.269,10.075 11.678,10.427 12,10.869C12.322,10.427 12.731,10.075 13.229,9.814C13.726,9.554 14.272,9.423 14.865,9.423L20.577,9.423C20.667,9.423 20.74,9.394 20.798,9.336C20.856,9.279 20.885,9.205 20.885,9.115L20.885,3.5L22.385,3.5L22.385,9.115C22.385,9.614 22.208,10.04 21.855,10.393C21.502,10.746 21.076,10.923 20.577,10.923L14.865,10.923C14.283,10.923 13.785,11.13 13.371,11.544C12.957,11.958 12.75,12.456 12.75,13.038L12.75,17.636L14.585,15.812L15.644,16.865L12,20.51Z" style="fill:rgb(102,102,102);fill-rule:nonzero;"/>
    <path d="M6.81,4.316C7.876,4.316 8.741,5.181 8.741,6.246C8.741,7.311 7.876,8.176 6.81,8.176C5.745,8.176 4.88,7.311 4.88,6.246C4.88,5.181 5.745,4.316 6.81,4.316ZM12,4.316C13.065,4.316 13.93,5.181 13.93,6.246C13.93,7.311 13.065,8.176 12,8.176C10.935,8.176 10.07,7.311 10.07,6.246C10.07,5.181 10.935,4.316 12,4.316ZM17.117,4.316C18.182,4.316 19.047,5.181 19.047,6.246C19.047,7.311 18.182,8.176 17.117,8.176C16.052,8.176 15.187,7.311 15.187,6.246C15.187,5.181 16.052,4.316 17.117,4.316Z" style="fill:rgb(7,154,243);"/>
</svg>
