<?xml version="1.0" encoding="UTF-8" standalone="no"?>
<!DOCTYPE svg PUBLIC "-//W3C//DTD SVG 1.1//EN" "http://www.w3.org/Graphics/SVG/1.1/DTD/svg11.dtd">
<svg width="100%" height="100%" viewBox="0 0 1024 1024" version="1.1" xmlns="http://www.w3.org/2000/svg" xmlns:xlink="http://www.w3.org/1999/xlink" xml:space="preserve" xmlns:serif="http://www.serif.com/" style="fill-rule:evenodd;clip-rule:evenodd;stroke-linejoin:round;stroke-miterlimit:2;">
    <g transform="matrix(42.666667,0,0,42.666667,0,0)">
        <path d="M5.308,20.5C4.803,20.5 4.375,20.325 4.025,19.975C3.675,19.625 3.5,19.197 3.5,18.692L3.5,5.308C3.5,4.803 3.675,4.375 4.025,4.025C4.375,3.675 4.803,3.5 5.308,3.5L18.692,3.5C19.197,3.5 19.625,3.675 19.975,4.025C20.325,4.375 20.5,4.803 20.5,5.308L20.5,10.738C20.312,10.433 20.094,10.164 19.847,9.93C19.6,9.696 19.318,9.496 19,9.331L19,5.308C19,5.231 18.968,5.16 18.904,5.096C18.84,5.032 18.769,5 18.692,5L5.308,5C5.231,5 5.16,5.032 5.096,5.096C5.032,5.16 5,5.231 5,5.308L5,18.692C5,18.769 5.032,18.84 5.096,18.904C5.16,18.968 5.231,19 5.308,19L10.031,19C10.021,19.062 10.013,19.123 10.008,19.185C10.003,19.246 10,19.308 10,19.369L10,20.5L5.308,20.5Z" style="fill:rgb(102,102,102);fill-rule:nonzero;"/>
    </g>
    <g transform="matrix(42.666667,0,0,42.666667,0,0)">
        <path d="M12.192,20.5L12.192,19.35C12.192,18.995 12.284,18.669 12.466,18.372C12.649,18.075 12.907,17.862 13.239,17.731C13.819,17.487 14.421,17.305 15.043,17.183C15.666,17.061 16.299,17 16.942,17C17.573,17 18.2,17.061 18.822,17.183C19.445,17.305 20.053,17.487 20.646,17.731C20.978,17.862 21.236,18.075 21.418,18.372C21.601,18.669 21.692,18.995 21.692,19.35L21.692,20.5L12.192,20.5ZM7.25,16.75L10.954,16.75C11.179,16.494 11.431,16.277 11.708,16.101C11.985,15.925 12.275,15.78 12.579,15.666C12.538,15.604 12.502,15.537 12.471,15.466C12.44,15.394 12.415,15.322 12.394,15.25L7.25,15.25L7.25,16.75ZM16.942,15.5C16.319,15.5 15.789,15.281 15.35,14.842C14.912,14.404 14.692,13.873 14.692,13.25C14.692,12.627 14.912,12.096 15.35,11.658C15.788,11.219 16.319,11 16.942,11C17.565,11 18.096,11.219 18.535,11.658C18.973,12.096 19.192,12.627 19.192,13.25C19.192,13.873 18.973,14.404 18.535,14.842C18.096,15.281 17.565,15.5 16.942,15.5ZM7.25,12.75L12.525,12.75C12.552,12.48 12.611,12.219 12.703,11.969C12.795,11.719 12.908,11.48 13.044,11.25L7.25,11.25L7.25,12.75ZM7.25,8.75L16.75,8.75L16.75,7.25L7.25,7.25L7.25,8.75Z" style="fill:rgb(6,154,243);fill-rule:nonzero;"/>
    </g>
</svg>
