<?xml version="1.0" encoding="UTF-8" standalone="no"?>
<!DOCTYPE svg PUBLIC "-//W3C//DTD SVG 1.1//EN" "http://www.w3.org/Graphics/SVG/1.1/DTD/svg11.dtd">
<svg width="24px" height="24px" viewBox="0 0 1024 1024" version="1.1" xmlns="http://www.w3.org/2000/svg" xmlns:xlink="http://www.w3.org/1999/xlink" xml:space="preserve" xmlns:serif="http://www.serif.com/" style="fill-rule:evenodd;clip-rule:evenodd;stroke-linejoin:round;stroke-miterlimit:2;">
    <g transform="matrix(42.666667,0,0,42.666667,0,0)">
        <path d="M20.829,12.769L18.713,12.769C18.5,12.769 18.322,12.697 18.179,12.554C18.035,12.41 17.963,12.232 17.963,12.019C17.963,11.806 18.035,11.628 18.179,11.485C18.322,11.341 18.5,11.269 18.713,11.269L20.829,11.269C21.041,11.269 21.22,11.341 21.363,11.485C21.507,11.628 21.579,11.806 21.579,12.019C21.579,12.232 21.507,12.41 21.363,12.554C21.22,12.697 21.041,12.769 20.829,12.769ZM16.669,16.733C16.797,16.557 16.961,16.456 17.16,16.429C17.36,16.402 17.547,16.453 17.723,16.581L19.409,17.848C19.585,17.976 19.686,18.14 19.713,18.339C19.74,18.539 19.689,18.726 19.561,18.902C19.433,19.077 19.269,19.179 19.07,19.206C18.87,19.233 18.683,19.182 18.507,19.054L16.821,17.786C16.645,17.658 16.544,17.495 16.517,17.295C16.49,17.096 16.541,16.908 16.669,16.733ZM19.371,6.152L17.684,7.419C17.509,7.547 17.321,7.598 17.122,7.571C16.922,7.544 16.759,7.443 16.63,7.267C16.502,7.092 16.452,6.904 16.479,6.705C16.505,6.505 16.607,6.342 16.782,6.213L18.469,4.946C18.644,4.818 18.832,4.767 19.031,4.794C19.231,4.821 19.394,4.922 19.523,5.098C19.651,5.274 19.702,5.461 19.675,5.66C19.648,5.86 19.546,6.024 19.371,6.152ZM13.963,15.138L13.963,8.9C14.355,9.255 14.671,9.703 14.911,10.242C15.151,10.782 15.271,11.374 15.271,12.019C15.271,12.664 15.151,13.256 14.911,13.796C14.671,14.336 14.355,14.783 13.963,15.138Z" style="fill:rgb(6,154,243);"/>
    </g>
    <g transform="matrix(42.666667,0,0,42.666667,0,0)">
        <path d="M12.122,7.579C11.812,7.399 11.512,7.399 11.212,7.579L8.101,9.439L4.231,9.439C3.731,9.439 3.312,9.619 2.952,9.969C2.601,10.329 2.421,10.749 2.421,11.249L2.421,12.789C2.421,13.289 2.601,13.709 2.952,14.069C3.312,14.419 3.731,14.599 4.231,14.599L5.252,14.599L5.252,17.749C5.252,17.959 5.322,18.139 5.471,18.289C5.611,18.429 5.791,18.499 6.002,18.499C6.212,18.499 6.392,18.429 6.532,18.289C6.682,18.139 6.752,17.959 6.752,17.749L6.752,14.599L8.101,14.599L11.212,16.459C11.512,16.639 11.812,16.639 12.122,16.459C12.421,16.279 12.582,16.019 12.582,15.679L12.582,8.359C12.582,8.019 12.421,7.759 12.122,7.579ZM11.082,14.599L8.512,13.099L4.231,13.099C4.152,13.099 4.082,13.059 4.022,12.999C3.962,12.939 3.921,12.869 3.921,12.789L3.921,11.249C3.921,11.169 3.962,11.099 4.022,11.039C4.082,10.979 4.152,10.939 4.231,10.939L8.512,10.939L11.082,9.439L11.082,14.599Z" style="fill:rgb(95,99,104);fill-rule:nonzero;"/>
    </g>
</svg>
