<?xml version="1.0" encoding="UTF-8" standalone="no"?>
<!DOCTYPE svg PUBLIC "-//W3C//DTD SVG 1.1//EN" "http://www.w3.org/Graphics/SVG/1.1/DTD/svg11.dtd">
<svg width="100%" height="100%" viewBox="0 0 24 24" version="1.1" xmlns="http://www.w3.org/2000/svg" xmlns:xlink="http://www.w3.org/1999/xlink" xml:space="preserve" xmlns:serif="http://www.serif.com/" style="fill-rule:evenodd;clip-rule:evenodd;stroke-linejoin:round;stroke-miterlimit:2;">
    <path d="M7.175,15.469L6.106,14.425L7.781,12.75L2.25,12.75L2.25,11.25L7.781,11.25L6.106,9.575L7.175,8.531L10.644,12L7.175,15.469ZM16.825,15.469L13.356,12L16.825,8.531L17.894,9.575L16.219,11.25L21.75,11.25L21.75,12.75L16.219,12.75L17.894,14.425L16.825,15.469Z" style="fill:rgb(6,154,243);fill-rule:nonzero;"/>
    <path d="M3.25,20.75L3.25,15.25L4.75,15.25L4.75,19.25L8.75,19.25L8.75,20.75L3.25,20.75ZM15.25,20.75L15.25,19.25L19.25,19.25L19.25,15.25L20.75,15.25L20.75,20.75L15.25,20.75ZM3.25,8.75L3.25,3.25L8.75,3.25L8.75,4.75L4.75,4.75L4.75,8.75L3.25,8.75ZM19.25,8.75L19.25,4.75L15.25,4.75L15.25,3.25L20.75,3.25L20.75,8.75L19.25,8.75Z" style="fill:rgb(102,102,102);fill-rule:nonzero;"/>
</svg>
