<?xml version="1.0" encoding="UTF-8" standalone="no"?>
<!DOCTYPE svg PUBLIC "-//W3C//DTD SVG 1.1//EN" "http://www.w3.org/Graphics/SVG/1.1/DTD/svg11.dtd">
<svg width="100%" height="100%" viewBox="0 0 1024 1024" version="1.1" xmlns="http://www.w3.org/2000/svg" xmlns:xlink="http://www.w3.org/1999/xlink" xml:space="preserve" xmlns:serif="http://www.serif.com/" style="fill-rule:evenodd;clip-rule:evenodd;stroke-linejoin:round;stroke-miterlimit:2;">
    <path d="M266.24,573.44L266.24,491.52L593.92,491.52L593.92,573.44L266.24,573.44ZM266.24,450.56L266.24,368.64L757.76,368.64L757.76,450.56L266.24,450.56ZM266.24,327.68L266.24,245.76L757.76,245.76L757.76,327.68L266.24,327.68Z" style="fill:rgb(6,154,243);"/>
    <path d="M102.4,901.12L102.4,163.84C102.4,141.312 110.421,122.027 126.464,105.984C142.507,89.941 161.792,81.92 184.32,81.92L839.68,81.92C862.208,81.92 881.493,89.941 897.536,105.984C913.579,122.027 921.6,141.312 921.6,163.84L921.6,655.36C921.6,677.888 913.579,697.173 897.536,713.216C881.493,729.259 862.208,737.28 839.68,737.28L266.24,737.28L102.4,901.12ZM231.424,655.36L839.68,655.36L839.68,163.84L184.32,163.84L184.32,701.44L231.424,655.36Z" style="fill:rgb(102,102,102);"/>
</svg>
