<?xml version="1.0" encoding="UTF-8" standalone="no"?>
<!DOCTYPE svg PUBLIC "-//W3C//DTD SVG 1.1//EN" "http://www.w3.org/Graphics/SVG/1.1/DTD/svg11.dtd">
<svg width="100%" height="100%" viewBox="0 0 24 24" version="1.1" xmlns="http://www.w3.org/2000/svg" xmlns:xlink="http://www.w3.org/1999/xlink" xml:space="preserve" xmlns:serif="http://www.serif.com/" style="fill-rule:evenodd;clip-rule:evenodd;stroke-linejoin:round;stroke-miterlimit:2;">
    <path d="M4.308,3.5L6.058,7L9.058,7L7.308,3.5L9.308,3.5L11.058,7L14.058,7L12.308,3.5L14.308,3.5L16.058,7L19.058,7L17.308,3.5L19.692,3.5C20.197,3.5 20.625,3.675 20.975,4.025C21.325,4.375 21.5,4.803 21.5,5.308L21.5,18.692C21.5,19.197 21.325,19.625 20.975,19.975C20.625,20.325 20.197,20.5 19.692,20.5L4.308,20.5C3.803,20.5 3.375,20.325 3.025,19.975C2.675,19.625 2.5,19.197 2.5,18.692L2.5,5.308C2.5,4.803 2.675,4.375 3.025,4.025C3.375,3.675 3.803,3.5 4.308,3.5ZM4,8.5L4,18.692C4,18.782 4.029,18.856 4.087,18.914C4.144,18.971 4.218,19 4.308,19L19.692,19C19.782,19 19.856,18.971 19.914,18.914C19.971,18.856 20,18.782 20,18.692L20,8.5L4,8.5Z" style="fill:rgb(102,102,102);fill-rule:nonzero;"/>
    <path d="M8.346,17.558L15.654,17.558L15.654,17.2C15.654,16.569 15.314,16.054 14.636,15.656C13.957,15.257 13.078,15.058 12,15.058C10.922,15.058 10.043,15.257 9.365,15.656C8.686,16.054 8.346,16.569 8.346,17.2L8.346,17.558ZM12,13.75C12.486,13.75 12.899,13.58 13.24,13.24C13.58,12.899 13.75,12.486 13.75,12C13.75,11.514 13.58,11.101 13.24,10.76C12.899,10.42 12.486,10.25 12,10.25C11.514,10.25 11.101,10.42 10.761,10.76C10.42,11.101 10.25,11.514 10.25,12C10.25,12.486 10.42,12.899 10.761,13.24C11.101,13.58 11.514,13.75 12,13.75Z" style="fill:rgb(6,154,243);fill-rule:nonzero;"/>
</svg>
