<?xml version="1.0" encoding="UTF-8" standalone="no"?>
<svg
   height="24"
   viewBox="0 -960 960 960"
   width="24"
   fill="#666666"
   xmlns="http://www.w3.org/2000/svg"
>

  <path
     d="m 140,-60 v -257.31 c 0,-52.14 18.37667,-96.58333 55.13,-133.33 36.74667,-36.75333 81.19,-55.13 133.33,-55.13 h 45.77 v -321.54 c 0,-19.98667 7,-37.1 21,-51.34 14,-14.23333 30.97333,-21.35 50.92,-21.35 h 67.7 c 19.94667,0 36.92,7.11667 50.92,21.35 14,14.24 21,31.35333 21,51.34 v 321.54 h 45.38 c 52.24667,0 96.78333,18.37667 133.61,55.13 36.82667,36.74667 55.24,81.19 55.24,133.33 V -60 Z m 60,-60 h 560 v -197.31 c 0,-35.89333 -12.52667,-66.27667 -37.58,-91.15 -25.05333,-24.87333 -55.47667,-37.31 -91.27,-37.31 H 328.46 c -35.68,0 -66.01,12.49 -90.99,37.47 -24.98,24.98 -37.47,55.31 -37.47,90.99 z m 325.77,-385.77 v -321.54 c 0,-3.58667 -1.15333,-6.6 -3.46,-9.04 -2.30667,-2.43333 -5.12667,-3.65 -8.46,-3.65 h -67.7 c -3.33333,0 -6.15333,1.21667 -8.46,3.65 -2.30667,2.44 -3.46,5.45333 -3.46,9.04 v 321.54 z m 0,0 h -91.54 z"
     id="path1" />
  <path
     d="m 306.93093,-120.31396 v -130.39 c 0,-8.5 2.87667,-15.62333 8.63,-21.37 5.75333,-5.74667 12.88,-8.62 21.38,-8.62 8.50667,0 15.63,2.87333 21.37,8.62 5.74667,5.74667 8.62,12.87 8.62,21.37 v 130.39 h 95 v -130.39 c 0,-8.5 2.87667,-15.62333 8.63,-21.37 5.75333,-5.74667 12.88,-8.62 21.38,-8.62 8.50667,0 15.63,2.87333 21.37,8.62 5.74667,5.74667 8.62,12.87 8.62,21.37 v 130.39 h 95 v -130.39 c 0,-8.5 2.8767,-15.62333 8.63,-21.37 5.7533,-5.74667 12.88,-8.62 21.38,-8.62 8.5067,0 15.63,2.87333 21.37,8.62 5.7467,5.74667 8.62,12.87 8.62,21.37 v 130.39"
     id="path1-5"
     style="fill:#069af3;fill-opacity:1" />
</svg>
