<?xml version="1.0" encoding="UTF-8" standalone="no"?>
<!DOCTYPE svg PUBLIC "-//W3C//DTD SVG 1.1//EN" "http://www.w3.org/Graphics/SVG/1.1/DTD/svg11.dtd">
<svg width="100%" height="100%" viewBox="0 0 1024 1024" version="1.1" xmlns="http://www.w3.org/2000/svg" xmlns:xlink="http://www.w3.org/1999/xlink" xml:space="preserve" xmlns:serif="http://www.serif.com/" style="fill-rule:evenodd;clip-rule:evenodd;stroke-linejoin:round;stroke-miterlimit:2;">
    <path d="M706.82,649.916C675.368,649.916 648.633,638.908 626.617,616.892C604.601,594.876 593.593,568.142 593.593,536.689C593.593,505.237 604.601,478.503 626.617,456.487C648.633,434.471 675.368,423.463 706.82,423.463C738.273,423.463 765.007,434.471 787.023,456.487C809.039,478.503 820.047,505.237 820.047,536.689C820.047,568.142 809.039,594.876 787.023,616.892C765.007,638.908 738.273,649.916 706.82,649.916ZM706.82,585.916C720.552,585.916 732.189,581.144 741.732,571.601C751.275,562.058 756.047,550.421 756.047,536.689C756.047,522.958 751.275,511.32 741.732,501.777C732.189,492.227 720.552,487.452 706.82,487.452C693.089,487.452 681.451,492.227 671.908,501.777C662.365,511.32 657.593,522.958 657.593,536.689C657.593,550.421 662.365,562.058 671.908,571.601C681.451,581.144 693.089,585.916 706.82,585.916ZM465.593,925.201L465.593,816.231C465.593,803.879 468.537,792.263 474.425,781.383C480.313,770.503 488.555,761.827 499.151,755.356C520.406,742.677 542.824,732.167 566.404,723.825C589.985,715.484 614.063,709.312 638.639,705.308L706.82,791.047L774.596,705.308C799.307,709.312 823.35,715.484 846.724,723.825C870.091,732.167 892.463,742.677 913.839,755.356C924.449,761.806 932.733,770.449 938.692,781.287C944.658,792.117 947.777,803.63 948.047,815.825L948.047,925.201L465.593,925.201ZM528.527,861.201L680.644,861.201L614.436,776.849C599.361,780.668 584.705,785.628 570.468,791.729C556.232,797.838 542.251,804.64 528.527,812.135L528.527,861.201ZM732.996,861.201L884.047,861.201L884.047,812.135C870.756,804.199 856.993,797.361 842.756,791.623C828.527,785.877 813.874,781.091 798.799,777.265L732.996,861.201ZM290.82,353.297L290.82,289.308L696.153,289.308L696.153,322.535C678.866,323.082 661.867,325.816 645.156,330.737C628.445,335.658 612.897,343.178 598.511,353.297L290.82,353.297ZM290.82,519.047L290.82,455.047L508.335,455.047C504.289,465.28 501.007,475.658 498.489,486.183C495.972,496.714 494.44,507.669 493.892,519.047L290.82,519.047ZM290.82,684.785L290.82,620.796L473.465,620.796L473.465,654.268C464.769,658.257 456.249,662.812 447.908,667.932C439.567,673.045 431.62,678.663 424.068,684.785L290.82,684.785Z" style="fill:rgb(11,154,244);"/>
    <path d="M208.143,849.713C186.738,849.713 168.498,842.161 153.423,827.057C138.354,811.953 130.82,793.795 130.82,772.583L130.82,201.511C130.82,180.298 138.372,162.14 153.476,147.036C168.58,131.932 186.738,124.38 207.951,124.38L779.023,124.38C800.235,124.38 818.393,131.932 833.497,147.036C848.601,162.14 856.153,180.298 856.153,201.511L856.153,386.94C847.236,376.821 837.732,367.345 827.641,358.513C817.551,349.681 805.721,343.541 792.153,340.092L792.153,201.511C792.153,197.678 790.923,194.531 788.463,192.071C786.002,189.61 782.856,188.38 779.023,188.38L207.951,188.38C204.118,188.38 200.971,189.61 198.511,192.071C196.05,194.531 194.82,197.678 194.82,201.511L194.82,772.583C194.82,776.416 196.05,779.562 198.511,782.023C200.971,784.483 204.118,785.713 207.951,785.713L367.78,785.713C366.472,790.798 365.487,795.886 364.825,800.977C364.171,806.062 363.844,811.146 363.844,816.231L363.844,849.713L208.143,849.713Z" style="fill:rgb(102,102,102);fill-rule:nonzero;"/>
 </svg>
