<?xml version="1.0" encoding="UTF-8" standalone="no"?>
<!DOCTYPE svg PUBLIC "-//W3C//DTD SVG 1.1//EN" "http://www.w3.org/Graphics/SVG/1.1/DTD/svg11.dtd">
<svg width="24px" height="24px" viewBox="0 0 1024 1024" version="1.1" xmlns="http://www.w3.org/2000/svg"
     xmlns:xlink="http://www.w3.org/1999/xlink" xml:space="preserve" xmlns:serif="http://www.serif.com/"
     style="fill-rule:evenodd;clip-rule:evenodd;stroke-linejoin:round;stroke-miterlimit:2;">

        <g transform="matrix(42.666667,0,0,42.666667,0,0)">
        <path d="M5.385,16.308L4.023,8.475C3.99,8.481 3.952,8.487 3.91,8.492C3.869,8.497 3.831,8.5 3.798,8.5C3.433,8.5 3.125,8.374 2.875,8.121C2.625,7.869 2.5,7.562 2.5,7.202C2.5,6.836 2.625,6.525 2.875,6.269C3.125,6.013 3.433,5.885 3.799,5.885C4.164,5.885 4.475,6.013 4.731,6.269C4.987,6.525 5.116,6.836 5.116,7.202C5.116,7.295 5.108,7.381 5.092,7.461C5.077,7.541 5.053,7.616 5.019,7.686L8.183,9.029L11.231,4.869C11.067,4.755 10.934,4.605 10.834,4.419C10.733,4.233 10.683,4.032 10.683,3.817C10.683,3.451 10.811,3.14 11.067,2.884C11.323,2.628 11.634,2.5 12,2.5C12.365,2.5 12.676,2.628 12.933,2.884C13.189,3.139 13.317,3.45 13.317,3.816C13.317,4.035 13.267,4.237 13.166,4.421C13.066,4.606 12.933,4.755 12.769,4.869L15.817,9.029L18.981,7.686C18.955,7.618 18.933,7.543 18.913,7.461C18.894,7.379 18.884,7.293 18.884,7.202C18.884,6.836 19.009,6.525 19.26,6.269C19.51,6.013 19.817,5.885 20.183,5.885C20.549,5.885 20.86,6.013 21.116,6.269C21.372,6.525 21.5,6.836 21.5,7.202C21.5,7.561 21.372,7.868 21.115,8.121C20.859,8.374 20.547,8.5 20.181,8.5C20.151,8.5 20.118,8.496 20.082,8.487C20.045,8.479 20.009,8.475 19.974,8.475L18.615,16.308L5.385,16.308ZM6.662,14.808L17.338,14.808L18.277,9.652L15.306,10.888L12,6.352L8.694,10.888L5.723,9.652L6.662,14.808Z"
              style="fill:rgb(95,99,104);"/>
    </g>
    <g transform="matrix(42.666667,0,0,42.666667,0,0)">
        <rect x="5.413" y="18" width="13.173" height="1.5" style="fill:rgb(6,154,243);"/>
    </g>

</svg>
