<?xml version="1.0" encoding="UTF-8" standalone="no"?>
<svg
        height="24px"
        viewBox="0 -960 960 960"
        width="24px"
        fill="#666666"
        xmlns="http://www.w3.org/2000/svg"
>
    <path
            id="path1"
            d="m 481.90288,-837.3043 c -49.33333,0 -95.86458,4.16667 -139.53125,12.5 -43.66667,8.33333 -81.78646,19.86458 -114.45313,34.53125 -32.66666,14.66667 -58.5,31.60417 -77.5,50.9375 -19,19.33333 -28.51562,40.03125 -28.51562,62.03125 v 400 c 0,8.25 1.32812,16.34375 3.90625,24.21875 0.85937,2.625 1.82292,5.22917 2.96875,7.8125 3.4375,7.75 8.20312,15.28125 14.21875,22.65625 2.00521,2.45833 4.11458,4.92708 6.40625,7.34375 4.58333,4.83333 9.58333,9.46354 15,13.98437 5.41667,4.52084 11.25,8.91667 17.5,13.125 6.25,4.20834 12.91667,8.21355 20,12.10938 7.08333,3.89583 14.58333,7.66667 22.5,11.25 7.91667,3.58333 16.21875,6.94792 24.84375,10.15625 17.25,6.41667 35.85417,12.11458 55.9375,17.03125 10.04167,2.45833 20.5,4.71354 31.25,6.79688 10.75,2.08333 21.63021,3.9427 32.73437,5.54687 11.10417,1.60417 22.3698,2.9375 33.82813,4.0625 11.45833,1.125 23.10937,2.01042 34.92187,2.65625 11.8125,0.64583 23.84896,1.08333 36.01563,1.25 -11.33333,-12 -21.33333,-24.98438 -30,-38.98438 -8.66667,-13.99999 -16.38021,-28.65104 -23.04687,-43.98437 -52.66667,-5.33333 -99.95313,-15.33333 -141.95313,-30 -42,-14.66667 -67.69792,-30.36458 -77.03125,-47.03125 v -98.98438 c 6.33333,3.66667 12.94792,7.09896 19.84375,10.39063 20.6875,9.875 43.9375,18.10937 69.6875,24.60937 34.33333,8.66667 71.48437,15.33334 111.48437,20 1.33334,-15.99999 3.6198,-30.51562 6.95313,-43.51562 3.33333,-13 7.71354,-24.53125 13.04687,-34.53125 -40.66666,-3.33333 -81.01562,-10.61979 -121.01562,-21.95313 -40,-11.33333 -73.33333,-29.3177 -100,-53.98437 v -101.01563 c 34,19.33334 74.96875,33.98438 122.96875,43.98438 48,10 100.36458,15 157.03125,15 49.33333,0 95.86458,-4.16667 139.53125,-12.5 43.66667,-8.33333 81.78646,-19.86458 114.45313,-34.53125 32.66666,-14.66667 58.5,-31.60417 77.5,-50.9375 19,-19.33333 28.51562,-40.03125 28.51562,-62.03125 0,-22 -9.51563,-42.69792 -28.51562,-62.03125 -19.00001,-19.33333 -44.83334,-36.27083 -77.5,-50.9375 -32.66667,-14.66667 -70.78646,-26.19792 -114.45313,-34.53125 -43.66667,-8.33333 -90.19792,-12.5 -139.53125,-12.5 z m 0,80 c 60,0 119.86458,8.68229 179.53125,26.01562 59.66667,17.33334 93.13542,35.66667 100.46875,55 -7.33333,18.66667 -41.5,36.65105 -102.5,53.98438 -61,17.33333 -120.16667,26.01562 -177.5,26.01562 -57.33333,0 -115.80208,-8.54687 -175.46875,-25.54687 -59.66667,-17 -94.53125,-35.11979 -104.53125,-54.45313 9.33333,-20 43.15104,-38.54687 101.48438,-55.54687 58.33333,-17 117.84895,-25.46875 178.51562,-25.46875 z"
    />
    <path
            d="m 664.04361,-506.91778 c -50,0 -92.5,17.5 -127.5,52.5 -35,35 -52.5,77.5 -52.5,127.5 0,50 17.5,92.5 52.5,127.5 35,35 77.5,52.5 127.5,52.5 17.33333,0 34,-2.5 50,-7.5 16,-5 31.34896,-11.80208 46.01562,-20.46875 l 107.96878,107.968751 56.0156,-56.015621 -107.9687,-107.96876 c 8.6666,-14.66666 15.4687,-30.01562 20.4687,-46.01562 5,-16 7.5,-32.66667 7.5,-50 0,-50 -17.5,-92.5 -52.5,-127.5 -35,-35 -77.5,-52.5 -127.5,-52.5 z m 0,80 c 28,0 51.68229,9.65104 71.01562,28.98438 19.33334,19.33333 28.98438,43.01562 28.98438,71.01562 0,28 -9.65104,51.68229 -28.98438,71.01562 -19.33333,19.33334 -43.01562,28.98438 -71.01562,28.98438 -28,0 -51.68229,-9.65104 -71.01562,-28.98438 -19.33334,-19.33333 -28.98438,-43.01562 -28.98438,-71.01562 0,-28 9.65104,-51.68229 28.98438,-71.01562 19.33333,-19.33334 43.01562,-28.98438 71.01562,-28.98438 z"
            style="fill:#069af3"/>
</svg>
