<?xml version="1.0" encoding="UTF-8" standalone="no"?>
<!DOCTYPE svg PUBLIC "-//W3C//DTD SVG 1.1//EN" "http://www.w3.org/Graphics/SVG/1.1/DTD/svg11.dtd">
<svg width="100%" height="100%" viewBox="0 0 1024 1024" version="1.1" xmlns="http://www.w3.org/2000/svg" xmlns:xlink="http://www.w3.org/1999/xlink" xml:space="preserve" xmlns:serif="http://www.serif.com/" style="fill-rule:evenodd;clip-rule:evenodd;stroke-linejoin:round;stroke-miterlimit:2;">
    <g transform="matrix(42.666667,0,0,42.666667,0,0)">
        <path d="M1.087,13.161L1.462,11.661L6.452,11.661L6.077,13.161L1.087,13.161ZM3.087,9.588L3.462,8.088L9.452,8.088L9.077,9.588L3.087,9.588Z" style="fill:rgb(6,154,243);fill-rule:nonzero;"/>
    </g>
    <g transform="matrix(42.666667,0,0,42.666667,0,0)">
        <path d="M7.25,19.5C6.487,19.5 5.838,19.232 5.303,18.697C4.768,18.162 4.5,17.513 4.5,16.75L2.135,16.75L2.469,15.25L5.016,15.25C5.248,14.869 5.56,14.566 5.953,14.339C6.346,14.113 6.778,14 7.25,14C7.722,14 8.154,14.113 8.547,14.339C8.94,14.566 9.253,14.869 9.485,15.25L13.881,15.25L16.029,6L5.079,6L5.141,5.738C5.215,5.374 5.393,5.077 5.674,4.846C5.956,4.615 6.287,4.5 6.667,4.5L17.904,4.5L17.037,8.25L19.539,8.25L22.394,12.058L21.462,16.75L19.885,16.75C19.885,17.513 19.617,18.162 19.082,18.697C18.546,19.232 17.897,19.5 17.135,19.5C16.372,19.5 15.723,19.232 15.188,18.697C14.652,18.162 14.385,17.513 14.385,16.75L10,16.75C10,17.513 9.732,18.162 9.197,18.697C8.662,19.232 8.013,19.5 7.25,19.5ZM7.25,18C7.598,18 7.893,17.879 8.136,17.636C8.379,17.393 8.5,17.098 8.5,16.75C8.5,16.403 8.379,16.107 8.136,15.865C7.893,15.621 7.598,15.5 7.25,15.5C6.903,15.5 6.607,15.621 6.364,15.865C6.122,16.107 6,16.403 6,16.75C6,17.098 6.122,17.393 6.365,17.636C6.607,17.879 6.903,18 7.25,18ZM17.135,18C17.482,18 17.777,17.879 18.02,17.636C18.263,17.393 18.385,17.098 18.385,16.75C18.385,16.403 18.263,16.107 18.02,15.865C17.777,15.621 17.482,15.5 17.135,15.5C16.787,15.5 16.492,15.621 16.249,15.865C16.006,16.107 15.885,16.403 15.885,16.75C15.885,17.098 16.006,17.393 16.249,17.636C16.492,17.879 16.787,18 17.135,18ZM15.906,13.125L20.644,13.125L20.783,12.417L18.789,9.75L16.692,9.75L15.906,13.125Z" style="fill:rgb(95,99,104);fill-rule:nonzero;"/>
    </g>
</svg>
