<?xml version="1.0" encoding="UTF-8" standalone="no"?>
<!DOCTYPE svg PUBLIC "-//W3C//DTD SVG 1.1//EN" "http://www.w3.org/Graphics/SVG/1.1/DTD/svg11.dtd">
<svg width="100%" height="100%" viewBox="0 0 1024 1024" version="1.1" xmlns="http://www.w3.org/2000/svg" xmlns:xlink="http://www.w3.org/1999/xlink" xml:space="preserve" xmlns:serif="http://www.serif.com/" style="fill-rule:evenodd;clip-rule:evenodd;stroke-linejoin:round;stroke-miterlimit:2;">
    <path d="M106.667,298.667L106.667,183.797C106.667,162.244 114.133,144 129.067,129.067C144,114.133 162.244,106.667 183.797,106.667L298.667,106.667L298.667,170.667L183.797,170.667C180.512,170.667 177.504,172.036 174.773,174.773C172.036,177.504 170.667,180.512 170.667,183.797L170.667,298.667L106.667,298.667ZM298.667,917.333L183.797,917.333C162.244,917.333 144,909.867 129.067,894.933C114.133,880 106.667,861.756 106.667,840.203L106.667,725.333L170.667,725.333L170.667,840.203C170.667,843.488 172.036,846.496 174.773,849.227C177.504,851.964 180.512,853.333 183.797,853.333L298.667,853.333L298.667,917.333ZM725.333,917.333L725.333,853.333L840.203,853.333C843.488,853.333 846.496,851.964 849.227,849.227C851.964,846.496 853.333,843.488 853.333,840.203L853.333,725.333L917.333,725.333L917.333,840.203C917.333,861.756 909.867,880 894.933,894.933C880,909.867 861.756,917.333 840.203,917.333L725.333,917.333ZM853.333,298.667L853.333,183.797C853.333,180.512 851.964,177.504 849.227,174.773C846.496,172.036 843.488,170.667 840.203,170.667L725.333,170.667L725.333,106.667L840.203,106.667C861.756,106.667 880,114.133 894.933,129.067C909.867,144 917.333,162.244 917.333,183.797L917.333,298.667L853.333,298.667Z" style="fill:rgb(95,99,104);"/>
    <path d="M520.245,375.755C504.9,360.409 497.227,341.824 497.227,320C497.227,298.176 504.9,279.591 520.245,264.245C535.591,248.9 554.176,241.227 576,241.227C597.824,241.227 616.409,248.9 631.755,264.245C647.1,279.591 654.773,298.176 654.773,320C654.773,341.824 647.1,360.409 631.755,375.755C616.409,391.1 597.824,398.773 576,398.773C554.176,398.773 535.591,391.1 520.245,375.755ZM537.931,754.869L388.597,754.869L432.085,532.352L330.667,573.291L330.667,714.667L266.667,714.667L266.667,531.36L436.021,459.648C457.625,450.624 473.543,444.651 483.776,441.728C494.002,438.798 503.41,437.333 512,437.333C525.02,437.333 537.109,440.764 548.267,447.627C559.424,454.496 568.505,463.648 575.509,475.083L618.176,543.349C636.388,572.668 661.316,597.337 692.96,617.355C724.604,637.372 760.284,648.203 800,649.845L800,713.845C756.622,712.48 714.695,701.333 674.219,680.405C633.735,659.484 599.218,629.195 570.667,589.536L537.931,754.869Z" style="fill:rgb(11,154,244);"/>
</svg>
