<?xml version="1.0" encoding="UTF-8" standalone="no"?>
<!DOCTYPE svg PUBLIC "-//W3C//DTD SVG 1.1//EN" "http://www.w3.org/Graphics/SVG/1.1/DTD/svg11.dtd">
<svg width="100%" height="100%" viewBox="0 0 24 24" version="1.1" xmlns="http://www.w3.org/2000/svg" xmlns:xlink="http://www.w3.org/1999/xlink" xml:space="preserve" xmlns:serif="http://www.serif.com/" style="fill-rule:evenodd;clip-rule:evenodd;stroke-linejoin:round;stroke-miterlimit:2;">
    <path d="M3.5,20.5L3.5,16L7.192,16L11.25,11.942L11.25,8.896C10.663,8.712 10.183,8.381 9.81,7.905C9.437,7.429 9.25,6.883 9.25,6.269C9.25,5.506 9.518,4.857 10.053,4.322C10.588,3.787 11.237,3.519 12,3.519C12.763,3.519 13.412,3.787 13.947,4.322C14.482,4.857 14.75,5.506 14.75,6.269C14.75,6.883 14.563,7.429 14.19,7.905C13.817,8.381 13.337,8.712 12.75,8.896L12.75,11.942L16.808,16L20.5,16L20.5,20.5L16,20.5L16,17.392L12,13.392L8,17.392L8,20.5L3.5,20.5Z" style="fill:rgb(102,102,102);fill-rule:nonzero;"/>
</svg>
