<?xml version="1.0" encoding="UTF-8" standalone="no"?>
<!DOCTYPE svg PUBLIC "-//W3C//DTD SVG 1.1//EN" "http://www.w3.org/Graphics/SVG/1.1/DTD/svg11.dtd">
<svg width="100%" height="100%" viewBox="0 0 1024 1024" version="1.1" xmlns="http://www.w3.org/2000/svg" xmlns:xlink="http://www.w3.org/1999/xlink" xml:space="preserve" xmlns:serif="http://www.serif.com/" style="fill-rule:evenodd;clip-rule:evenodd;stroke-linejoin:round;stroke-miterlimit:2;">
    <g transform="matrix(42.6667,0,0,42.6667,0,0)">
        <path d="M4.192,14.158L5.144,14.158L5.71,12.566L8.444,12.566L9.025,14.158L9.971,14.158L7.604,7.861L6.55,7.861L4.192,14.158ZM6.016,11.737L7.052,8.869L7.102,8.869L8.138,11.737L6.015,11.737Z" style="fill:rgb(6,154,243);fill-rule:nonzero;"/>
    </g>
    <g transform="matrix(42.6667,0,0,42.6667,0,0)">
        <path d="M13.942,15.227L13.942,13.892C14.473,13.64 15.04,13.45 15.644,13.324C16.248,13.198 16.867,13.135 17.5,13.135C17.901,13.135 18.291,13.163 18.669,13.22C19.047,13.277 19.427,13.353 19.808,13.446L19.808,14.7C19.433,14.569 19.061,14.474 18.691,14.415C18.321,14.356 17.924,14.327 17.5,14.327C16.86,14.327 16.241,14.404 15.641,14.557C15.042,14.71 14.476,14.933 13.942,15.227ZM13.942,12.496L13.942,11.162C14.486,10.909 15.055,10.72 15.649,10.593C16.243,10.467 16.86,10.404 17.5,10.404C17.901,10.404 18.291,10.432 18.669,10.489C19.047,10.546 19.427,10.622 19.808,10.715L19.808,11.969C19.433,11.838 19.061,11.743 18.691,11.684C18.321,11.626 17.924,11.596 17.5,11.596C16.86,11.596 16.241,11.675 15.641,11.834C15.042,11.992 14.476,12.213 13.942,12.496ZM13.942,9.746L13.942,8.431C14.486,8.178 15.055,7.989 15.649,7.863C16.243,7.736 16.86,7.673 17.5,7.673C17.901,7.673 18.291,7.702 18.669,7.759C19.047,7.816 19.427,7.891 19.808,7.985L19.808,9.238C19.433,9.108 19.061,9.013 18.691,8.954C18.321,8.895 17.924,8.865 17.5,8.865C16.86,8.865 16.241,8.941 15.641,9.093C15.042,9.245 14.476,9.463 13.942,9.746Z" style="fill:rgb(6,154,243);fill-rule:nonzero;"/>
    </g>
    <g transform="matrix(42.6667,0,0,42.6667,0,0)">
        <path d="M12,19.385C11.194,18.79 10.324,18.33 9.391,18.006C8.457,17.681 7.494,17.519 6.5,17.519C5.89,17.519 5.291,17.587 4.702,17.722C4.114,17.857 3.546,18.056 3,18.319C2.644,18.483 2.305,18.457 1.983,18.241C1.661,18.025 1.5,17.719 1.5,17.323L1.5,6.465C1.5,6.25 1.556,6.048 1.667,5.859C1.777,5.67 1.937,5.533 2.146,5.45C2.823,5.121 3.528,4.877 4.263,4.718C4.997,4.56 5.742,4.481 6.5,4.481C7.473,4.481 8.424,4.614 9.352,4.88C10.28,5.146 11.163,5.539 12,6.058C12.837,5.539 13.72,5.146 14.648,4.88C15.576,4.614 16.527,4.481 17.5,4.481C18.258,4.481 19.004,4.56 19.738,4.718C20.472,4.877 21.177,5.121 21.854,5.45C22.063,5.533 22.223,5.67 22.334,5.859C22.445,6.048 22.5,6.25 22.5,6.465L22.5,17.323C22.5,17.719 22.333,18.022 21.998,18.232C21.663,18.441 21.311,18.464 20.942,18.3C20.403,18.044 19.843,17.849 19.264,17.717C18.686,17.585 18.097,17.519 17.5,17.519C16.506,17.519 15.543,17.681 14.609,18.006C13.676,18.33 12.806,18.79 12,19.385ZM6.5,16.019C7.328,16.019 8.134,16.113 8.917,16.301C9.701,16.489 10.478,16.783 11.25,17.185L11.25,7.354C10.548,6.896 9.787,6.553 8.969,6.324C8.151,6.095 7.328,5.981 6.5,5.981C5.9,5.981 5.339,6.028 4.818,6.122C4.297,6.216 3.762,6.37 3.212,6.584C3.135,6.61 3.08,6.647 3.048,6.695C3.016,6.743 3,6.796 3,6.854L3,16.311C3,16.401 3.032,16.467 3.096,16.509C3.16,16.55 3.231,16.555 3.308,16.523C3.782,16.362 4.283,16.237 4.81,16.15C5.337,16.063 5.9,16.019 6.5,16.019ZM12.75,17.185C13.522,16.783 14.299,16.489 15.083,16.301C15.866,16.113 16.672,16.019 17.5,16.019C18.1,16.019 18.664,16.063 19.191,16.15C19.717,16.237 20.218,16.362 20.692,16.523C20.769,16.555 20.84,16.55 20.904,16.509C20.968,16.467 21,16.401 21,16.312L21,6.854C21,6.796 20.984,6.745 20.952,6.7C20.92,6.655 20.865,6.617 20.789,6.585C20.239,6.371 19.703,6.216 19.182,6.122C18.661,6.028 18.1,5.981 17.5,5.981C16.672,5.981 15.849,6.095 15.031,6.324C14.213,6.553 13.453,6.896 12.75,7.354L12.75,17.185Z" style="fill:rgb(102,102,102);fill-rule:nonzero;"/>
    </g>
</svg>
