<?xml version="1.0" encoding="UTF-8" standalone="no"?>
<!DOCTYPE svg PUBLIC "-//W3C//DTD SVG 1.1//EN" "http://www.w3.org/Graphics/SVG/1.1/DTD/svg11.dtd">
<svg width="100%" height="100%" viewBox="0 0 1024 1024" version="1.1" xmlns="http://www.w3.org/2000/svg" xmlns:xlink="http://www.w3.org/1999/xlink" xml:space="preserve" xmlns:serif="http://www.serif.com/" style="fill-rule:evenodd;clip-rule:evenodd;stroke-linejoin:round;stroke-miterlimit:2;">
    <path d="M545.973,586.667L470.485,662.155L515.445,707.115L667.893,554.667L515.445,402.219L470.485,447.179L545.973,522.667L356.107,522.667L356.107,586.667L545.973,586.667Z" style="fill:rgb(16,148,234);fill-rule:nonzero;"/>
    <path d="M183.797,832C162.244,832 144,824.533 129.067,809.6C114.133,794.667 106.667,776.423 106.667,754.869L106.667,269.131C106.667,247.577 114.133,229.333 129.067,214.4C144,199.467 162.244,192 183.797,192L418.048,192L503.381,277.333L840.203,277.333C861.756,277.333 880,284.8 894.933,299.733C909.867,314.667 917.333,332.91 917.333,354.464L917.333,754.869C917.333,776.423 909.867,794.667 894.933,809.6C880,824.533 861.756,832 840.203,832L183.797,832ZM183.797,768L840.203,768C844.036,768 847.182,766.77 849.643,764.309C852.103,761.849 853.333,758.702 853.333,754.869L853.333,354.464C853.333,350.631 852.103,347.484 849.643,345.024C847.182,342.564 844.036,341.333 840.203,341.333L477.205,341.333L391.872,256L183.797,256C179.964,256 176.818,257.23 174.357,259.691C171.897,262.151 170.667,265.298 170.667,269.131L170.667,754.869C170.667,758.702 171.897,761.849 174.357,764.309C176.818,766.77 179.964,768 183.797,768Z" style="fill:rgb(102,102,102);"/>
</svg>
