<?xml version="1.0" encoding="UTF-8" standalone="no"?>
<!DOCTYPE svg PUBLIC "-//W3C//DTD SVG 1.1//EN" "http://www.w3.org/Graphics/SVG/1.1/DTD/svg11.dtd">
<svg width="100%" height="100%" viewBox="0 0 1024 1024" version="1.1" xmlns="http://www.w3.org/2000/svg" xmlns:xlink="http://www.w3.org/1999/xlink" xml:space="preserve" xmlns:serif="http://www.serif.com/" style="fill-rule:evenodd;clip-rule:evenodd;stroke-linejoin:round;stroke-miterlimit:2;">
    <g transform="matrix(0.400753,0,0,0.400753,53.1875,85.197674)">
        <path d="M1437.75,1011.75L532.5,852L532.5,2032.393C532.5,2086.3 576.2,2130 630.107,2130L2192.143,2130C2246.05,2130 2289.75,2086.3 2289.75,2032.393L2289.75,1597.5L1437.75,1011.75Z" style="fill:rgb(24,92,55);fill-rule:nonzero;"/>
    </g>
    <g transform="matrix(0.400753,0,0,0.400753,53.1875,85.197674)">
        <path d="M1437.75,0L630.107,0C576.2,0 532.5,43.7 532.5,97.607L532.5,532.5L1437.75,1065L1917,1224.75L2289.75,1065L2289.75,532.5L1437.75,0Z" style="fill:rgb(33,163,102);fill-rule:nonzero;"/>
    </g>
    <g transform="matrix(0.400753,0,0,0.400753,53.1875,85.197674)">
        <rect x="532.5" y="532.5" width="905.25" height="532.5" style="fill:rgb(16,124,65);fill-rule:nonzero;"/>
    </g>
    <g transform="matrix(0.400753,0,0,0.400753,53.1875,85.197674)">
        <path d="M1180.393,426L532.5,426L532.5,1757.25L1180.393,1757.25C1234.227,1757.075 1277.825,1713.477 1278,1659.643L1278,523.607C1277.825,469.773 1234.227,426.175 1180.393,426Z" style="fill-opacity:0.1;fill-rule:nonzero;"/>
    </g>
    <g transform="matrix(0.400753,0,0,0.400753,53.1875,85.197674)">
        <path d="M1127.143,479.25L532.5,479.25L532.5,1810.5L1127.143,1810.5C1180.977,1810.325 1224.575,1766.727 1224.75,1712.893L1224.75,576.857C1224.575,523.023 1180.977,479.425 1127.143,479.25Z" style="fill-opacity:0.2;fill-rule:nonzero;"/>
    </g>
    <g transform="matrix(0.400753,0,0,0.400753,53.1875,85.197674)">
        <path d="M1127.143,479.25L532.5,479.25L532.5,1704L1127.143,1704C1180.977,1703.825 1224.575,1660.227 1224.75,1606.393L1224.75,576.857C1224.575,523.023 1180.977,479.425 1127.143,479.25Z" style="fill-opacity:0.2;fill-rule:nonzero;"/>
    </g>
    <g transform="matrix(0.400753,0,0,0.400753,53.1875,85.197674)">
        <path d="M1073.893,479.25L532.5,479.25L532.5,1704L1073.893,1704C1127.727,1703.825 1171.325,1660.227 1171.5,1606.393L1171.5,576.857C1171.325,523.023 1127.727,479.425 1073.893,479.25Z" style="fill-opacity:0.2;fill-rule:nonzero;"/>
    </g>
    <g transform="matrix(0.400753,0,0,0.400753,53.1875,85.197674)">
        <path d="M97.607,479.25L1073.892,479.25C1127.799,479.25 1171.499,522.95 1171.499,576.857L1171.499,1553.142C1171.499,1607.049 1127.799,1650.749 1073.892,1650.749L97.607,1650.749C43.7,1650.75 0,1607.05 0,1553.143L0,576.857C0,522.95 43.7,479.25 97.607,479.25Z" style="fill:url(#_Linear1);fill-rule:nonzero;"/>
    </g>
    <g transform="matrix(0.400753,0,0,0.400753,53.1875,85.197674)">
        <path d="M302.3,1382.264L507.632,1064.095L319.5,747.683L470.836,747.683L573.502,950.033C582.981,969.256 589.477,983.527 592.992,992.952L594.323,992.952C601.068,977.616 608.168,962.724 615.623,948.275L725.371,747.79L864.3,747.79L671.375,1062.338L869.2,1382.263L721.378,1382.263L602.79,1160.158C597.204,1150.708 592.464,1140.782 588.626,1130.498L586.869,1130.498C583.395,1140.573 578.786,1150.22 573.13,1159.253L451.028,1382.264L302.3,1382.264Z" style="fill:white;fill-rule:nonzero;"/>
    </g>
    <g transform="matrix(0.400753,0,0,0.400753,53.1875,85.197674)">
        <path d="M2192.143,0L1437.75,0L1437.75,532.5L2289.75,532.5L2289.75,97.607C2289.75,43.7 2246.05,0 2192.143,0Z" style="fill:rgb(51,196,129);fill-rule:nonzero;"/>
    </g>
    <g transform="matrix(0.400753,0,0,0.400753,53.1875,85.197674)">
        <rect x="1437.75" y="1065" width="852" height="532.5" style="fill:rgb(16,124,65);fill-rule:nonzero;"/>
    </g>
    <defs>
        <linearGradient id="_Linear1" x1="0" y1="0" x2="1" y2="0" gradientUnits="userSpaceOnUse" gradientTransform="matrix(764.4736,1324.0366,-1324.0366,764.4736,203.5132,402.9817)"><stop offset="0" style="stop-color:rgb(24,136,79);stop-opacity:1"/><stop offset="0.5" style="stop-color:rgb(17,126,67);stop-opacity:1"/><stop offset="1" style="stop-color:rgb(11,102,49);stop-opacity:1"/></linearGradient>
    </defs>
</svg>
