<?xml version="1.0" encoding="UTF-8" standalone="no"?>
<!DOCTYPE svg PUBLIC "-//W3C//DTD SVG 1.1//EN" "http://www.w3.org/Graphics/SVG/1.1/DTD/svg11.dtd">
<svg width="24px" height="24px" viewBox="0 0 1024 1024" version="1.1" xmlns="http://www.w3.org/2000/svg" xmlns:xlink="http://www.w3.org/1999/xlink" xml:space="preserve" xmlns:serif="http://www.serif.com/" style="fill-rule:evenodd;clip-rule:evenodd;stroke-linejoin:round;stroke-miterlimit:2;">
    <g transform="matrix(42.666667,0,0,42.666667,0.000002,14)">
        <path d="M12.88,14.038L12.88,17.578L11.12,17.578L11.12,14.038L12.88,14.038ZM8.88,14.038L8.88,17.578L7.12,17.578L7.12,14.038L8.88,14.038ZM16.88,14.038L16.88,17.578L15.12,17.578L15.12,14.038L16.88,14.038Z" style="fill:rgb(6,154,243);"/>
    </g>
    <g transform="matrix(42.666667,0,0,42.666667,0,0)">
        <path d="M20.629,3.346C20.602,3.16 20.521,3.005 20.385,2.88C20.25,2.755 20.09,2.692 19.904,2.692L19.135,2.692C18.936,2.692 18.764,2.756 18.619,2.885C18.474,3.013 18.388,3.176 18.362,3.375L17.442,10.308L13.5,10.308L13.5,8.878C13.5,8.558 13.37,8.308 13.11,8.128C12.84,7.948 12.56,7.918 12.26,8.038L8.5,9.548L8.5,8.928C8.5,8.588 8.36,8.338 8.09,8.178C7.82,8.008 7.54,7.988 7.23,8.108L3.6,9.638C3.26,9.788 2.99,10.018 2.79,10.318C2.6,10.628 2.5,10.958 2.5,11.318L2.5,19.498C2.5,19.998 2.68,20.428 3.03,20.778C3.38,21.128 3.81,21.308 4.31,21.308L19.69,21.308C20.19,21.308 20.62,21.128 20.97,20.778C21.32,20.428 21.5,19.998 21.5,19.498L21.5,10.308L20.629,3.346ZM20,19.498C20,19.588 19.97,19.668 19.91,19.718C19.86,19.778 19.78,19.808 19.69,19.808L4.31,19.808C4.22,19.808 4.14,19.778 4.09,19.718C4.03,19.668 4,19.588 4,19.498L4,11.338C4,11.268 4.02,11.218 4.05,11.168C4.08,11.118 4.13,11.078 4.18,11.058L7,9.808L7,11.758L12,9.758L12,11.808L20,11.808L20,19.498Z" style="fill:rgb(95,99,104);fill-rule:nonzero;"/>
    </g>
</svg>
