<?xml version="1.0" encoding="UTF-8" standalone="no"?>
<!DOCTYPE svg PUBLIC "-//W3C//DTD SVG 1.1//EN" "http://www.w3.org/Graphics/SVG/1.1/DTD/svg11.dtd">
<svg width="100%" height="100%" viewBox="0 0 24 24" version="1.1" xmlns="http://www.w3.org/2000/svg" xmlns:xlink="http://www.w3.org/1999/xlink" xml:space="preserve" xmlns:serif="http://www.serif.com/" style="fill-rule:evenodd;clip-rule:evenodd;stroke-linejoin:round;stroke-miterlimit:2;">
    <path d="M12,21.5L8.885,18.404L9.939,17.35L11.25,18.627L11.25,12.288L12.75,12.288L12.75,18.627L14.046,17.35L15.115,18.404L12,21.5ZM19.385,18.673L18.325,17.619L19.637,16.327L17,16.327C16.495,16.327 16.067,16.152 15.717,15.802C15.367,15.452 15.192,15.024 15.192,14.519L15.192,9.356L16.692,9.356L16.692,14.519C16.692,14.609 16.721,14.683 16.779,14.74C16.836,14.798 16.91,14.827 17,14.827L19.637,14.827L18.325,13.541L19.385,12.481L22.5,15.577L19.385,18.673ZM4.616,18.673L1.5,15.577L4.616,12.481L5.669,13.541L4.364,14.827L7,14.827C7.09,14.827 7.164,14.798 7.221,14.74C7.279,14.683 7.308,14.609 7.308,14.519L7.308,9.356L8.808,9.356L8.808,14.519C8.808,15.024 8.633,15.452 8.283,15.802C7.933,16.152 7.505,16.327 7,16.327L4.364,16.327L5.669,17.619L4.616,18.673Z" style="fill:rgb(7,154,243);fill-rule:nonzero;"/>
    <path d="M2.5,11.286L2.5,5.308C2.5,4.803 2.675,4.375 3.025,4.025C3.375,3.675 3.803,3.5 4.308,3.5L19.692,3.5C20.197,3.5 20.625,3.675 20.975,4.025C21.325,4.375 21.5,4.803 21.5,5.308L21.5,11.286L20,9.786L20,5.308C20,5.218 19.971,5.144 19.914,5.086C19.856,5.029 19.782,5 19.692,5L4.308,5C4.218,5 4.144,5.029 4.087,5.086C4.029,5.144 4,5.218 4,5.308L4,9.786L2.5,11.286Z" style="fill:rgb(102,102,102);fill-rule:nonzero;"/>
</svg>
