<?xml version="1.0" encoding="UTF-8" standalone="no"?>

<svg width="100%" height="100%" viewBox="0 0 24 24" version="1.1" xmlns="http://www.w3.org/2000/svg"
     style="fill-rule:evenodd;clip-rule:evenodd;stroke-linejoin:round;stroke-miterlimit:2;">
    <path d="M5.5,20.75L5.5,4.5L11.115,4.5C11.064,4.75 11.023,5 10.992,5.25C10.962,5.5 10.955,5.75 10.971,6L7,6L7,12L14.25,12L14.65,14L18,14L18,12.359C18.25,12.353 18.5,12.331 18.75,12.294C19,12.257 19.25,12.201 19.5,12.127L19.5,15.5L13.404,15.5L13.004,13.5L7,13.5L7,20.75L5.5,20.75Z"
          style="fill:rgb(102,102,102);fill-rule:nonzero;"/>
    <path d="M17.654,1.196C18.903,1.196 19.965,1.634 20.84,2.51C21.716,3.385 22.154,4.447 22.154,5.696C22.154,6.945 21.716,8.007 20.84,8.883C19.965,9.758 18.903,10.196 17.654,10.196C16.405,10.196 15.343,9.758 14.467,8.883C13.592,8.007 13.154,6.945 13.154,5.696C13.154,4.447 13.592,3.385 14.467,2.51C15.343,1.634 16.405,1.196 17.654,1.196ZM16.939,7.831L20.346,4.438L19.508,3.6L16.939,6.138L15.8,5L14.962,5.854L16.939,7.831Z"
          style="fill:rgb(102,102,102);fill-rule:nonzero;"/>
</svg>
