<?xml version="1.0" encoding="UTF-8" standalone="no"?>
<!DOCTYPE svg PUBLIC "-//W3C//DTD SVG 1.1//EN" "http://www.w3.org/Graphics/SVG/1.1/DTD/svg11.dtd">
<svg width="100%" height="100%" viewBox="0 0 1024 1024" version="1.1" xmlns="http://www.w3.org/2000/svg" xmlns:xlink="http://www.w3.org/1999/xlink" xml:space="preserve" xmlns:serif="http://www.serif.com/" style="fill-rule:evenodd;clip-rule:evenodd;stroke-linejoin:round;stroke-miterlimit:2;">
    <g transform="matrix(1.066667,0,0,1.066667,0,1024)">
        <path d="M172.31,-180C152.103,-180 135,-187 121,-201C107,-215 100,-232.103 100,-252.31L100,-707.69C100,-727.897 107,-745 121,-759C135,-773 152.103,-780 172.31,-780L391.92,-780L471.92,-700L787.69,-700C807.897,-700 825,-693 839,-679C853,-665 860,-647.897 860,-627.69L860,-252.31C860,-232.103 853,-215 839,-201C825,-187 807.897,-180 787.69,-180L172.31,-180ZM172.31,-240L787.69,-240C791.283,-240 794.233,-241.153 796.54,-243.46C798.847,-245.767 800,-248.717 800,-252.31L800,-627.69C800,-631.283 798.847,-634.233 796.54,-636.54C794.233,-638.847 791.283,-640 787.69,-640L447.38,-640L367.38,-720L172.31,-720C168.717,-720 165.767,-718.847 163.46,-716.54C161.153,-714.233 160,-711.283 160,-707.69L160,-252.31C160,-248.717 161.153,-245.767 163.46,-243.46C165.767,-241.153 168.717,-240 172.31,-240ZM160,-240L160,-720L160,-240Z" style="fill:rgb(102,102,102);fill-rule:nonzero;"/>
    </g>
</svg>
