<?xml version="1.0" encoding="UTF-8" standalone="no"?>
<!DOCTYPE svg PUBLIC "-//W3C//DTD SVG 1.1//EN" "http://www.w3.org/Graphics/SVG/1.1/DTD/svg11.dtd">
<svg width="100%" height="100%" viewBox="0 0 24 24" version="1.1" xmlns="http://www.w3.org/2000/svg" xmlns:xlink="http://www.w3.org/1999/xlink" xml:space="preserve" xmlns:serif="http://www.serif.com/" style="fill-rule:evenodd;clip-rule:evenodd;stroke-linejoin:round;stroke-miterlimit:2;">
    <path d="M17.75,19.75L17.75,4.25L19.25,4.25L19.25,18.25L22.269,18.25L22.269,19.75L17.75,19.75Z" style="fill:rgb(6,154,243);fill-rule:nonzero;"/>
    <path d="M4.481,20.75C3.718,20.75 3.069,20.482 2.534,19.947C1.998,19.412 1.731,18.763 1.731,18C1.731,17.586 1.816,17.194 1.986,16.825C2.156,16.456 2.404,16.139 2.731,15.875L2.731,11.25L4.875,11.25L4.875,5.5L11.923,5.5L16.45,16.133C16.544,16.353 16.617,16.575 16.67,16.799C16.723,17.023 16.75,17.256 16.75,17.5C16.75,18.403 16.434,19.17 15.802,19.802C15.17,20.434 14.403,20.75 13.5,20.75C12.836,20.75 12.231,20.569 11.685,20.208C11.139,19.846 10.743,19.36 10.498,18.75L7.114,18.75C6.948,19.344 6.622,19.825 6.134,20.195C5.646,20.565 5.095,20.75 4.481,20.75ZM4.481,19.25C4.828,19.25 5.124,19.129 5.367,18.886C5.609,18.643 5.731,18.348 5.731,18C5.731,17.653 5.609,17.357 5.367,17.115C5.124,16.872 4.828,16.75 4.481,16.75C4.133,16.75 3.838,16.872 3.595,17.115C3.352,17.357 3.231,17.653 3.231,18C3.231,18.348 3.352,18.643 3.595,18.886C3.838,19.128 4.133,19.25 4.481,19.25ZM13.5,19.25C13.981,19.25 14.393,19.078 14.736,18.736C15.079,18.393 15.25,17.981 15.25,17.5C15.25,17.019 15.079,16.607 14.736,16.264C14.393,15.922 13.981,15.75 13.5,15.75C13.019,15.75 12.607,15.922 12.265,16.264C11.922,16.607 11.75,17.019 11.75,17.5C11.75,17.981 11.922,18.393 12.265,18.736C12.607,19.078 13.019,19.25 13.5,19.25ZM7.113,17.25L10.266,17.25C10.273,16.971 10.323,16.703 10.416,16.449C10.509,16.194 10.646,15.961 10.825,15.75L8.662,15.75L5.736,12.75L4.231,12.75L4.231,15.289C4.269,15.276 4.309,15.266 4.351,15.26C4.393,15.253 4.436,15.25 4.481,15.25C5.095,15.25 5.646,15.435 6.134,15.805C6.622,16.175 6.948,16.657 7.113,17.25ZM9.3,14.25L13.592,14.25C13.676,14.25 13.757,14.26 13.838,14.279C13.918,14.298 13.996,14.327 14.073,14.365L10.935,7L6.375,7L6.375,11.25L9.3,14.25Z" style="fill:rgb(102,102,102);fill-rule:nonzero;"/>
</svg>
