<?xml version="1.0" encoding="UTF-8" standalone="no"?>
<!DOCTYPE svg PUBLIC "-//W3C//DTD SVG 1.1//EN" "http://www.w3.org/Graphics/SVG/1.1/DTD/svg11.dtd">
<svg width="100%" height="100%" viewBox="0 0 24 24" version="1.1" xmlns="http://www.w3.org/2000/svg" xmlns:xlink="http://www.w3.org/1999/xlink" xml:space="preserve" xmlns:serif="http://www.serif.com/" style="fill-rule:evenodd;clip-rule:evenodd;stroke-linejoin:round;stroke-miterlimit:2;">
    <path d="M7.175,21.49C6.43,21.49 5.797,21.23 5.274,20.711C4.752,20.191 4.491,19.56 4.491,18.817C4.491,18.212 4.673,17.672 5.039,17.197C5.404,16.722 5.865,16.407 6.423,16.252L6.423,7.748C5.865,7.593 5.404,7.278 5.039,6.803C4.673,6.328 4.491,5.788 4.491,5.183C4.491,4.438 4.751,3.804 5.272,3.282C5.794,2.761 6.427,2.5 7.172,2.5C7.916,2.5 8.55,2.761 9.072,3.282C9.595,3.804 9.856,4.438 9.856,5.183C9.856,5.788 9.675,6.328 9.313,6.803C8.95,7.278 8.487,7.593 7.923,7.748L7.923,8.106C7.923,8.979 8.226,9.722 8.832,10.333C9.438,10.944 10.173,11.25 11.039,11.25L12.962,11.25C14.236,11.25 15.322,11.702 16.22,12.606C17.118,13.509 17.567,14.602 17.567,15.884L17.567,16.252C18.131,16.407 18.596,16.72 18.962,17.192C19.327,17.664 19.51,18.203 19.51,18.808C19.51,19.553 19.247,20.186 18.721,20.708C18.196,21.229 17.561,21.49 16.819,21.49C16.076,21.49 15.444,21.229 14.924,20.708C14.404,20.186 14.144,19.553 14.144,18.808C14.144,18.203 14.325,17.664 14.688,17.192C15.05,16.72 15.51,16.407 16.067,16.252L16.067,15.884C16.067,15.019 15.765,14.28 15.162,13.668C14.558,13.056 13.824,12.75 12.962,12.75L11.039,12.75C10.421,12.75 9.846,12.634 9.316,12.401C8.785,12.168 8.321,11.852 7.923,11.452L7.923,16.252C8.487,16.407 8.95,16.72 9.313,17.192C9.675,17.664 9.856,18.203 9.856,18.808C9.856,19.553 9.595,20.186 9.074,20.708C8.552,21.23 7.919,21.49 7.175,21.49ZM7.178,20C7.509,20 7.789,19.887 8.016,19.66C8.242,19.434 8.356,19.153 8.356,18.818C8.356,18.483 8.242,18.202 8.016,17.975C7.789,17.748 7.508,17.635 7.173,17.635C6.845,17.635 6.566,17.75 6.336,17.98C6.106,18.21 5.991,18.489 5.991,18.817C5.991,19.145 6.106,19.425 6.336,19.655C6.566,19.885 6.847,20 7.178,20ZM16.822,20C17.154,20 17.433,19.887 17.66,19.66C17.887,19.434 18,19.153 18,18.818C18,18.483 17.887,18.202 17.66,17.975C17.433,17.748 17.152,17.635 16.817,17.635C16.489,17.635 16.21,17.75 15.98,17.98C15.75,18.21 15.635,18.489 15.635,18.817C15.635,19.145 15.75,19.425 15.98,19.655C16.21,19.885 16.491,20 16.822,20ZM7.178,6.366C7.509,6.366 7.789,6.252 8.016,6.025C8.242,5.799 8.356,5.518 8.356,5.183C8.356,4.848 8.242,4.567 8.016,4.34C7.789,4.113 7.508,4 7.173,4C6.845,4 6.566,4.115 6.336,4.345C6.106,4.575 5.991,4.855 5.991,5.183C5.991,5.511 6.106,5.79 6.336,6.02C6.566,6.25 6.847,6.365 7.178,6.365Z" style="fill:rgb(102,102,102);fill-rule:nonzero;"/>
</svg>
