<?xml version="1.0" encoding="UTF-8" standalone="no"?>
<!DOCTYPE svg PUBLIC "-//W3C//DTD SVG 1.1//EN" "http://www.w3.org/Graphics/SVG/1.1/DTD/svg11.dtd">
<svg width="100%" height="100%" viewBox="0 0 1024 1024" version="1.1" xmlns="http://www.w3.org/2000/svg" xmlns:xlink="http://www.w3.org/1999/xlink" xml:space="preserve" xmlns:serif="http://www.serif.com/" style="fill-rule:evenodd;clip-rule:evenodd;stroke-linejoin:round;stroke-miterlimit:2;">
    <g transform="matrix(42.666667,0,0,42.666667,0,0)">
        <path d="M16.4,15.7C16.67,16.11 16.8,16.57 16.8,17.08L16.8,17.79C16.8,18.19 16.65,18.54 16.35,18.85C16.06,19.16 15.7,19.31 15.28,19.31L3.32,19.31C2.9,19.31 2.54,19.16 2.24,18.86C1.95,18.57 1.8,18.21 1.8,17.79L1.8,17.08C1.8,16.57 1.93,16.11 2.2,15.7C2.46,15.3 2.82,14.99 3.26,14.76C4.21,14.3 5.17,13.94 6.13,13.69C7.09,13.43 8.15,13.31 9.3,13.31C10.45,13.31 11.51,13.43 12.47,13.69C13.43,13.94 14.38,14.3 15.33,14.76C15.78,14.99 16.13,15.3 16.4,15.7ZM15.3,17.81L15.3,17.08C15.3,16.88 15.25,16.69 15.14,16.53C15.04,16.36 14.87,16.22 14.64,16.1C13.82,15.68 12.97,15.35 12.1,15.14C11.23,14.92 10.3,14.81 9.3,14.81C8.3,14.81 7.37,14.92 6.49,15.14C5.62,15.35 4.77,15.68 3.95,16.1C3.72,16.22 3.56,16.36 3.45,16.53C3.35,16.69 3.3,16.88 3.3,17.08L3.3,17.81L15.3,17.81ZM11.77,5.72C12.46,6.41 12.8,7.23 12.8,8.19C12.8,9.15 12.46,9.98 11.77,10.66C11.08,11.35 10.26,11.69 9.3,11.69C8.34,11.69 7.51,11.35 6.83,10.66C6.14,9.98 5.8,9.15 5.8,8.19C5.8,7.23 6.14,6.41 6.83,5.72C7.51,5.03 8.34,4.69 9.3,4.69C10.26,4.69 11.08,5.03 11.77,5.72ZM10.71,9.6C11.1,9.21 11.3,8.74 11.3,8.19C11.3,7.64 11.1,7.17 10.71,6.78C10.32,6.39 9.85,6.19 9.3,6.19C8.75,6.19 8.28,6.39 7.89,6.78C7.49,7.17 7.3,7.64 7.3,8.19C7.3,8.74 7.49,9.21 7.89,9.6C8.28,10 8.75,10.19 9.3,10.19C9.85,10.19 10.32,10 10.71,9.6Z" style="fill:rgb(6,154,243);"/>
    </g>
    <g transform="matrix(42.666667,0,0,42.666667,0,0)">
        <path d="M20.683,19.308L18.412,19.308C18.537,19.078 18.633,18.834 18.699,18.575C18.765,18.316 18.798,18.054 18.798,17.789L18.798,16.962C18.798,16.305 18.637,15.68 18.316,15.085C17.995,14.49 17.539,13.98 16.948,13.554C17.619,13.654 18.255,13.809 18.858,14.018C19.46,14.228 20.035,14.476 20.583,14.762C21.099,15.037 21.498,15.362 21.78,15.736C22.061,16.11 22.202,16.519 22.202,16.962L22.202,17.789C22.202,18.21 22.054,18.569 21.759,18.865C21.463,19.16 21.104,19.308 20.683,19.308ZM17.933,8.192C17.933,9.155 17.59,9.979 16.905,10.664C16.219,11.35 15.395,11.692 14.433,11.692C14.32,11.692 14.176,11.679 14.002,11.654C13.828,11.628 13.684,11.6 13.571,11.569C13.966,11.095 14.269,10.569 14.481,9.991C14.692,9.413 14.798,8.813 14.798,8.191C14.798,7.569 14.69,6.971 14.474,6.398C14.258,5.825 13.957,5.297 13.571,4.815C13.715,4.764 13.858,4.731 14.002,4.715C14.146,4.7 14.289,4.692 14.433,4.692C15.395,4.692 16.219,5.035 16.905,5.721C17.59,6.406 17.933,7.23 17.933,8.192Z" style="fill:rgb(95,99,104);"/>
    </g>
</svg>
