<?xml version="1.0" encoding="UTF-8" standalone="no"?>
<!DOCTYPE svg PUBLIC "-//W3C//DTD SVG 1.1//EN" "http://www.w3.org/Graphics/SVG/1.1/DTD/svg11.dtd">
<svg width="100%" height="100%" viewBox="0 0 1024 1024" version="1.1" xmlns="http://www.w3.org/2000/svg" xmlns:xlink="http://www.w3.org/1999/xlink" xml:space="preserve" xmlns:serif="http://www.serif.com/" style="fill-rule:evenodd;clip-rule:evenodd;stroke-linejoin:round;stroke-miterlimit:2;">
    <path d="M231.381,861.536L153.024,392.203L870.976,392.203L792.619,861.536L231.381,861.536ZM284.8,797.536L739.2,797.536L793.6,456.203L230.4,456.203L284.8,797.536Z" style="fill:rgb(102,102,102);fill-rule:nonzero;"/>
    <path d="M426.667,616.203L597.333,616.203C606.4,616.203 613.998,613.134 620.128,606.997C626.265,600.86 629.333,593.259 629.333,584.192C629.333,575.118 626.265,567.52 620.128,561.397C613.998,555.268 606.4,552.203 597.333,552.203L426.667,552.203C417.6,552.203 410.002,555.271 403.872,561.408C397.735,567.545 394.667,575.147 394.667,584.213C394.667,593.287 397.735,600.889 403.872,607.019C410.002,613.141 417.6,616.203 426.667,616.203ZM256,341.333C246.933,341.333 239.335,338.265 233.205,332.128C227.068,325.991 224,318.389 224,309.323C224,300.249 227.068,292.651 233.205,286.528C239.335,280.398 246.933,277.333 256,277.333L768,277.333C777.067,277.333 784.665,280.402 790.795,286.539C796.932,292.676 800,300.277 800,309.344C800,318.418 796.932,326.016 790.795,332.139C784.665,338.268 777.067,341.333 768,341.333L256,341.333ZM341.333,226.464C332.267,226.464 324.668,223.396 318.539,217.259C312.402,211.122 309.333,203.52 309.333,194.453C309.333,185.38 312.402,177.781 318.539,171.659C324.668,165.529 332.267,162.464 341.333,162.464L682.667,162.464C691.733,162.464 699.332,165.532 705.461,171.669C711.598,177.806 714.667,185.408 714.667,194.475C714.667,203.548 711.598,211.147 705.461,217.269C699.332,223.399 691.733,226.464 682.667,226.464L341.333,226.464Z" style="fill:rgb(6,154,243);fill-rule:nonzero;"/>
</svg>
