<?xml version="1.0" encoding="UTF-8" standalone="no"?>
<!DOCTYPE svg PUBLIC "-//W3C//DTD SVG 1.1//EN" "http://www.w3.org/Graphics/SVG/1.1/DTD/svg11.dtd">
<svg width="100%" height="100%" viewBox="0 0 1024 1024" version="1.1" xmlns="http://www.w3.org/2000/svg" xmlns:xlink="http://www.w3.org/1999/xlink" xml:space="preserve" xmlns:serif="http://www.serif.com/" style="fill-rule:evenodd;clip-rule:evenodd;stroke-linejoin:round;stroke-miterlimit:2;">
    <g transform="matrix(1.16129,0,0,1.16129,-82.580645,-113.741935)">
        <circle cx="512" cy="575" r="93" style="fill:rgb(6,154,243);"/>
    </g>
    <g transform="matrix(0.9375,0,0,0.9375,62,980.75)">
        <path d="M234,-40C202.333,-40 175.417,-51.083 153.25,-73.25C131.083,-95.417 120,-122.333 120,-154C120,-185.667 131.083,-212.583 153.25,-234.75C175.417,-256.917 202.333,-268 234,-268C243.333,-268 251.5,-267.167 258.5,-265.5C265.5,-263.833 272.667,-261.333 280,-258L365,-364C352.333,-379.333 342.667,-396.833 336,-416.5C329.333,-436.167 327.667,-456.667 331,-478L210,-519C200,-502.333 186.833,-489.333 170.5,-480C154.167,-470.667 135.333,-466 114,-466C82.333,-466 55.417,-477.083 33.25,-499.25C11.083,-521.417 0,-548.333 0,-580C0,-611.667 11.083,-638.583 33.25,-660.75C55.417,-682.917 82.333,-694 114,-694C145.667,-694 172.583,-682.917 194.75,-660.75C216.917,-638.583 228,-611.667 228,-580L228,-576L350,-534C362,-555.333 376.5,-571.667 393.5,-583C410.5,-594.333 429.333,-602.333 450,-607L450,-736C424,-743.333 403.5,-757.667 388.5,-779C373.5,-800.333 366,-822.667 366,-846C366,-877.667 377.083,-904.583 399.25,-926.75C421.417,-948.917 448.333,-960 480,-960C511.667,-960 538.583,-948.917 560.75,-926.75C582.917,-904.583 594,-877.667 594,-846C594,-822.667 586.333,-800.333 571,-779C555.667,-757.667 535.333,-743.333 510,-736L510,-607C530.667,-602.333 549.667,-594.333 567,-583C584.333,-571.667 599,-555.333 611,-534L732,-576L732,-580C732,-611.667 743.083,-638.583 765.25,-660.75C787.417,-682.917 814.333,-694 846,-694C877.667,-694 904.583,-682.917 926.75,-660.75C948.917,-638.583 960,-611.667 960,-580C960,-548.333 948.917,-521.417 926.75,-499.25C904.583,-477.083 877.667,-466 846,-466C824.667,-466 805.667,-470.667 789,-480C772.333,-489.333 759.333,-502.333 750,-519L629,-478C632.333,-456.667 630.833,-436.167 624.5,-416.5C618.167,-396.833 608.333,-379.333 595,-364L680,-258C687.333,-261.333 694.5,-263.833 701.5,-265.5C708.5,-267.167 716.52,-268 725.56,-268C757.853,-268 785,-256.917 807,-234.75C829,-212.583 840,-185.667 840,-154C840,-122.333 828.917,-95.417 806.75,-73.25C784.583,-51.083 757.667,-40 726,-40C694.333,-40 667.417,-51.083 645.25,-73.25C623.083,-95.417 612,-122.333 612,-154C612,-167.333 613.833,-179.333 617.5,-190C621.167,-200.667 626.333,-211 633,-221L548,-327C526.58,-315.667 503.727,-310 479.44,-310C455.147,-310 432.333,-315.667 411,-327L327,-220C333.667,-210 338.833,-199.833 342.5,-189.5C346.167,-179.167 348,-167.333 348,-154C348,-122.333 336.917,-95.417 314.75,-73.25C292.583,-51.083 265.667,-40 234,-40ZM114.04,-526C129.347,-526 142.167,-531.18 152.5,-541.54C162.833,-551.893 168,-564.727 168,-580.04C168,-595.347 162.82,-608.167 152.46,-618.5C142.107,-628.833 129.273,-634 113.96,-634C98.653,-634 85.833,-628.82 75.5,-618.46C65.167,-608.107 60,-595.273 60,-579.96C60,-564.653 65.18,-551.833 75.54,-541.5C85.893,-531.167 98.727,-526 114.04,-526ZM234.04,-100C249.347,-100 262.167,-105.18 272.5,-115.54C282.833,-125.893 288,-138.727 288,-154.04C288,-169.347 282.82,-182.167 272.46,-192.5C262.107,-202.833 249.273,-208 233.96,-208C218.653,-208 205.833,-202.82 195.5,-192.46C185.167,-182.107 180,-169.273 180,-153.96C180,-138.653 185.18,-125.833 195.54,-115.5C205.893,-105.167 218.727,-100 234.04,-100ZM480.04,-792C495.347,-792 508.167,-797.18 518.5,-807.54C528.833,-817.893 534,-830.727 534,-846.04C534,-861.347 528.82,-874.167 518.46,-884.5C508.107,-894.833 495.273,-900 479.96,-900C464.653,-900 451.833,-894.82 441.5,-884.46C431.167,-874.107 426,-861.273 426,-845.96C426,-830.653 431.18,-817.833 441.54,-807.5C451.893,-797.167 464.727,-792 480.04,-792ZM480.5,-370C505.5,-370 526.667,-378.833 544,-396.5C561.333,-414.167 570,-435.5 570,-460.5C570,-485.5 561.3,-506.667 543.9,-524C526.5,-541.333 505.2,-550 480,-550C455.333,-550 434.167,-541.3 416.5,-523.9C398.833,-506.5 390,-485.2 390,-460C390,-435.333 398.833,-414.167 416.5,-396.5C434.167,-378.833 455.5,-370 480.5,-370ZM726.04,-100C741.347,-100 754.167,-105.18 764.5,-115.54C774.833,-125.893 780,-138.727 780,-154.04C780,-169.347 774.82,-182.167 764.46,-192.5C754.107,-202.833 741.273,-208 725.96,-208C710.653,-208 697.833,-202.82 687.5,-192.46C677.167,-182.107 672,-169.273 672,-153.96C672,-138.653 677.18,-125.833 687.54,-115.5C697.893,-105.167 710.727,-100 726.04,-100ZM846.04,-526C861.347,-526 874.167,-531.18 884.5,-541.54C894.833,-551.893 900,-564.727 900,-580.04C900,-595.347 894.82,-608.167 884.46,-618.5C874.107,-628.833 861.273,-634 845.96,-634C830.653,-634 817.833,-628.82 807.5,-618.46C797.167,-608.107 792,-595.273 792,-579.96C792,-564.653 797.18,-551.833 807.54,-541.5C817.893,-531.167 830.727,-526 846.04,-526Z" style="fill:rgb(102,102,102);fill-rule:nonzero;"/>
    </g>
</svg>
