<?xml version="1.0" encoding="UTF-8" standalone="no"?>
<!DOCTYPE svg PUBLIC "-//W3C//DTD SVG 1.1//EN" "http://www.w3.org/Graphics/SVG/1.1/DTD/svg11.dtd">
<svg width="100%" height="100%" viewBox="0 0 24 24" version="1.1" xmlns="http://www.w3.org/2000/svg" xmlns:xlink="http://www.w3.org/1999/xlink" xml:space="preserve" xmlns:serif="http://www.serif.com/" style="fill-rule:evenodd;clip-rule:evenodd;stroke-linejoin:round;stroke-miterlimit:2;">
    <path d="M5.308,21.5C4.809,21.5 4.383,21.323 4.03,20.97C3.677,20.617 3.5,20.191 3.5,19.692L3.5,8.494C3.207,8.343 2.966,8.128 2.78,7.849C2.593,7.57 2.5,7.249 2.5,6.884L2.5,4.308C2.5,3.809 2.677,3.383 3.03,3.03C3.383,2.677 3.809,2.5 4.308,2.5L19.692,2.5C20.191,2.5 20.617,2.677 20.97,3.03C21.323,3.383 21.5,3.809 21.5,4.308L21.5,6.884C21.5,7.249 21.407,7.57 21.22,7.849C21.034,8.128 20.793,8.343 20.5,8.494L20.5,19.692C20.5,20.191 20.323,20.617 19.97,20.97C19.617,21.323 19.191,21.5 18.692,21.5L5.308,21.5ZM5,8.692L5,19.644C5,19.747 5.037,19.832 5.111,19.899C5.184,19.966 5.276,20 5.385,20L18.692,20C18.782,20 18.856,19.971 18.914,19.914C18.971,19.856 19,19.782 19,19.692L19,8.692L5,8.692ZM4.308,7.192L19.692,7.192C19.782,7.192 19.856,7.163 19.914,7.106C19.971,7.048 20,6.974 20,6.884L20,4.308C20,4.218 19.971,4.144 19.914,4.086C19.856,4.029 19.782,4 19.692,4L4.308,4C4.218,4 4.144,4.029 4.087,4.086C4.029,4.144 4,4.218 4,4.308L4,6.884C4,6.974 4.029,7.048 4.087,7.106C4.144,7.163 4.218,7.192 4.308,7.192Z" style="fill:rgb(102,102,102);fill-rule:nonzero;"/>
    <rect x="9.192" y="12" width="5.615" height="1.433" style="fill:rgb(6,154,243);fill-rule:nonzero;"/>
</svg>
