<?xml version="1.0" encoding="UTF-8" standalone="no"?>
<!DOCTYPE svg PUBLIC "-//W3C//DTD SVG 1.1//EN" "http://www.w3.org/Graphics/SVG/1.1/DTD/svg11.dtd">
<svg width="100%" height="100%" viewBox="0 0 1024 1024" version="1.1" xmlns="http://www.w3.org/2000/svg" xmlns:xlink="http://www.w3.org/1999/xlink" xml:space="preserve" xmlns:serif="http://www.serif.com/" style="fill-rule:evenodd;clip-rule:evenodd;stroke-linejoin:round;stroke-miterlimit:2;">
    <path d="M493.045,745.845C432.167,740.647 380.996,715.84 339.531,671.424C298.066,627.008 277.333,573.867 277.333,512C277.333,446.905 300.171,391.52 345.845,345.845C391.52,300.171 446.905,277.333 512,277.333C573.867,277.333 627.008,297.998 671.424,339.328C715.84,380.651 740.647,431.755 745.845,492.64L677.995,472.533C668.75,434.133 648.907,402.667 618.464,378.133C588.021,353.6 552.533,341.333 512,341.333C465.067,341.333 424.889,358.044 391.467,391.467C358.044,424.889 341.333,465.067 341.333,512C341.333,552.533 353.668,588.089 378.336,618.667C403.004,649.244 434.404,669.156 472.533,678.4L493.045,745.845Z" style="fill:rgb(6,154,243);fill-rule:nonzero;"/>
    <path d="M859.317,923.488L665.845,729.6L619.488,869.739L512,512L869.739,619.488L729.6,665.845L923.488,859.317L859.317,923.488Z" style="fill:rgb(102,102,102);fill-rule:nonzero;"/>
</svg>
