<?xml version="1.0" encoding="UTF-8" standalone="no"?>
<!DOCTYPE svg PUBLIC "-//W3C//DTD SVG 1.1//EN" "http://www.w3.org/Graphics/SVG/1.1/DTD/svg11.dtd">
<svg width="100%" height="100%" viewBox="0 0 1024 1024" version="1.1" xmlns="http://www.w3.org/2000/svg" xmlns:xlink="http://www.w3.org/1999/xlink" xml:space="preserve" xmlns:serif="http://www.serif.com/" style="fill-rule:evenodd;clip-rule:evenodd;stroke-linejoin:round;stroke-miterlimit:2;">
    <g transform="matrix(42.666667,0,0,42.666667,0,0)">
        <rect x="10" y="8" width="4" height="4" style="fill:rgb(6,154,243);fill-rule:nonzero;"/>
    </g>
    <g transform="matrix(42.666667,0,0,42.666667,0,0)">
        <path d="M6,22L6,15C6,14 5,14 5,13C5,12 4,11 4,10C4,8 5,6 7,5C8,3 10,2 12,2C14,2 16,3 17,5C19,6 20,8 20,10C20,11 19,12 19,13C19,14 18,14 18,15L18,22L12,20L6,22ZM8,20L12,19L16,20L16,16C15,17 15,17 14,17C13,17 13,18 12,18C11,18 11,17 10,17C9,17 9,17 8,16L8,20ZM12,16C14,16 15,15 16,14C17,13 18,12 18,10C18,8 17,7 16,6C15,5 14,4 12,4C10,4 9,5 8,6C7,7 6,8 6,10C6,12 7,13 8,14C9,15 10,16 12,16Z" style="fill:rgb(95,99,104);"/>
    </g>
</svg>
