<?xml version="1.0" encoding="UTF-8" standalone="no"?>
<!DOCTYPE svg PUBLIC "-//W3C//DTD SVG 1.1//EN" "http://www.w3.org/Graphics/SVG/1.1/DTD/svg11.dtd">
<svg width="100%" height="100%" viewBox="0 0 1024 1024" version="1.1" xmlns="http://www.w3.org/2000/svg" xmlns:xlink="http://www.w3.org/1999/xlink" xml:space="preserve" xmlns:serif="http://www.serif.com/" style="fill-rule:evenodd;clip-rule:evenodd;stroke-linejoin:round;stroke-miterlimit:2;">
    <g transform="matrix(42.666667,0,0,42.666667,0,0)">
        <path d="M5.844,19.558C5.063,19.558 4.401,19.285 3.856,18.739C3.311,18.193 3.038,17.53 3.038,16.75L2.25,16.75C1.994,16.75 1.779,16.663 1.606,16.49C1.433,16.317 1.346,16.102 1.346,15.846L1.346,6.308C1.346,5.803 1.521,5.375 1.871,5.025C2.221,4.675 2.649,4.5 3.154,4.5L14.961,4.5C15.459,4.5 15.884,4.677 16.238,5.031C16.592,5.385 16.769,5.811 16.769,6.308L16.769,8.308L18.519,8.308C18.805,8.308 19.077,8.372 19.333,8.5C19.589,8.628 19.8,8.805 19.965,9.031L22.473,12.388C22.533,12.464 22.579,12.547 22.609,12.637C22.639,12.727 22.654,12.825 22.654,12.931L22.654,15.846C22.654,16.102 22.567,16.317 22.394,16.49C22.221,16.663 22.006,16.75 21.75,16.75L20.846,16.75C20.846,17.53 20.573,18.193 20.026,18.739C19.48,19.285 18.817,19.558 18.036,19.558C17.256,19.558 16.593,19.285 16.048,18.739C15.503,18.193 15.231,17.53 15.231,16.75L8.654,16.75C8.654,17.532 8.381,18.195 7.834,18.74C7.288,19.285 6.624,19.558 5.844,19.558ZM5.846,18.058C6.213,18.058 6.523,17.931 6.775,17.679C7.028,17.426 7.154,17.117 7.154,16.75C7.154,16.383 7.028,16.074 6.775,15.821C6.522,15.569 6.213,15.442 5.846,15.442C5.48,15.442 5.17,15.569 4.917,15.821C4.665,16.074 4.538,16.383 4.538,16.75C4.538,17.117 4.665,17.426 4.917,17.679C5.17,17.931 5.48,18.058 5.846,18.058ZM2.846,15.25L3.569,15.25C3.782,14.88 4.089,14.569 4.491,14.318C4.893,14.068 5.345,13.942 5.846,13.942C6.335,13.942 6.783,14.066 7.191,14.314C7.6,14.561 7.91,14.873 8.123,15.25L15.269,15.25L15.269,6.308C15.269,6.218 15.24,6.144 15.183,6.087C15.125,6.029 15.051,6 14.962,6L3.154,6C3.077,6 3.006,6.032 2.942,6.096C2.878,6.16 2.846,6.231 2.846,6.308C2.846,6.308 2.846,15.25 2.846,15.25ZM18.038,18.058C18.405,18.058 18.715,17.931 18.967,17.679C19.22,17.426 19.346,17.117 19.346,16.75C19.346,16.383 19.22,16.074 18.967,15.821C18.715,15.569 18.405,15.442 18.038,15.442C17.672,15.442 17.362,15.569 17.11,15.821C16.857,16.074 16.731,16.383 16.731,16.75C16.731,17.117 16.857,17.426 17.11,17.679C17.362,17.931 17.672,18.058 18.038,18.058ZM16.769,13.25L21.25,13.25L18.75,9.933C18.718,9.894 18.681,9.864 18.639,9.841C18.598,9.819 18.551,9.808 18.5,9.808L16.769,9.808L16.769,13.25Z" style="fill:rgb(95,99,104);fill-rule:nonzero;"/>
    </g>
</svg>
