<?xml version="1.0" encoding="UTF-8" standalone="no"?>

<svg width="100%" height="100%" viewBox="0 0 24 24" version="1.1" xmlns="http://www.w3.org/2000/svg"
     xmlns:xlink="http://www.w3.org/1999/xlink" xml:space="preserve" xmlns:serif="http://www.serif.com/"
     style="fill-rule:evenodd;clip-rule:evenodd;stroke-linejoin:round;stroke-miterlimit:2;">
    <path d="M6.1,11.442L5.896,10.25C5.639,10.173 5.397,10.074 5.17,9.954C4.944,9.833 4.73,9.681 4.527,9.496L3.375,9.908L2.606,8.631L3.554,7.823C3.482,7.555 3.446,7.281 3.446,7C3.446,6.719 3.482,6.445 3.554,6.177L2.606,5.369L3.375,4.092L4.527,4.504C4.73,4.319 4.944,4.167 5.17,4.046C5.397,3.926 5.639,3.827 5.896,3.75L6.1,2.558L7.6,2.558L7.804,3.75C8.061,3.827 8.303,3.926 8.53,4.046C8.756,4.167 8.971,4.319 9.173,4.504L10.325,4.092L11.094,5.369L10.146,6.177C10.218,6.445 10.254,6.719 10.254,7C10.254,7.281 10.218,7.555 10.146,7.823L11.094,8.631L10.325,9.908L9.173,9.496C8.971,9.681 8.756,9.833 8.53,9.954C8.303,10.074 8.061,10.173 7.804,10.25L7.6,11.442L6.1,11.442ZM6.85,9.077C7.426,9.077 7.916,8.875 8.32,8.47C8.725,8.066 8.927,7.576 8.927,7C8.927,6.424 8.725,5.934 8.32,5.53C7.916,5.125 7.426,4.923 6.85,4.923C6.274,4.923 5.784,5.125 5.38,5.53C4.975,5.934 4.773,6.424 4.773,7C4.773,7.576 4.975,8.066 5.38,8.47C5.784,8.875 6.274,9.077 6.85,9.077Z"
          style="fill:rgb(6,154,243);fill-rule:nonzero;"/>
    <path d="M15.204,22.01L14.889,20.429C14.522,20.354 14.181,20.226 13.866,20.042C13.55,19.859 13.266,19.631 13.014,19.358L11.523,19.873L10.518,18.165L11.733,17.131C11.622,16.76 11.567,16.383 11.567,16C11.567,15.617 11.622,15.24 11.733,14.869L10.518,13.835L11.523,12.127L13.014,12.642C13.266,12.369 13.55,12.141 13.866,11.958C14.181,11.774 14.522,11.646 14.889,11.571L15.204,9.99L17.196,9.99L17.511,11.571C17.878,11.646 18.219,11.774 18.534,11.958C18.85,12.141 19.134,12.369 19.386,12.642L20.877,12.127L21.883,13.835L20.667,14.869C20.778,15.24 20.833,15.617 20.833,16C20.833,16.383 20.778,16.76 20.667,17.131L21.883,18.165L20.877,19.873L19.386,19.358C19.134,19.631 18.85,19.859 18.534,20.042C18.219,20.226 17.878,20.354 17.511,20.429L17.196,22.01L15.204,22.01ZM16.2,19C17.033,19 17.742,18.708 18.325,18.125C18.908,17.542 19.2,16.833 19.2,16C19.2,15.167 18.908,14.458 18.325,13.875C17.742,13.292 17.033,13 16.2,13C15.367,13 14.658,13.292 14.075,13.875C13.492,14.458 13.2,15.167 13.2,16C13.2,16.833 13.492,17.542 14.075,18.125C14.658,18.708 15.367,19 16.2,19Z"
          style="fill:rgb(102,102,102);fill-rule:nonzero;"/>
</svg>
