<?xml version="1.0" encoding="UTF-8" standalone="no"?>
<!DOCTYPE svg PUBLIC "-//W3C//DTD SVG 1.1//EN" "http://www.w3.org/Graphics/SVG/1.1/DTD/svg11.dtd">
<svg width="100%" height="100%" viewBox="0 0 1024 1024" version="1.1" xmlns="http://www.w3.org/2000/svg" xmlns:xlink="http://www.w3.org/1999/xlink" xml:space="preserve" xmlns:serif="http://www.serif.com/" style="fill-rule:evenodd;clip-rule:evenodd;stroke-linejoin:round;stroke-miterlimit:2;">
    <g transform="matrix(4.166667,0,0,4.166667,-847.75,518.132117)">
        <g>
            <g transform="matrix(1,0,0,1,-83.07,92.55)">
                <path d="M449.7,-19.44L449.7,11.78L445.76,11.78L445.76,6.43C442.19,10.7 438.12,12.84 433.53,12.84C428.94,12.84 425.06,11.21 421.89,7.96C418.75,4.67 417.19,0.77 417.19,-3.74C417.19,-8.29 418.78,-12.17 421.95,-15.38C425.12,-18.63 428.93,-20.26 433.36,-20.26C438.46,-20.26 442.59,-18.08 445.77,-13.73L445.77,-19.43L449.7,-19.43M446,-3.69C446,-7.26 444.8,-10.26 442.41,-12.69C440.02,-15.16 437.08,-16.39 433.59,-16.39C430.14,-16.39 427.22,-15.12 424.83,-12.57C422.44,-10.06 421.24,-7.08 421.24,-3.63C421.24,-0.18 422.46,2.82 424.89,5.37C427.32,7.88 430.22,9.13 433.59,9.13C437,9.13 439.92,7.91 442.35,5.48C444.79,3.06 446,-0 446,-3.69" style="fill:rgb(31,48,95);fill-rule:nonzero;"/>
            </g>
            <g transform="matrix(1,0,0,1,-83.82,92.55)">
                <path d="M458.4,11.78L458.4,-30.43L467.16,-30.43C473.16,-30.43 477.55,-29.98 480.33,-29.08C483.15,-28.22 485.58,-26.83 487.62,-24.91C489.66,-23.03 491.23,-20.72 492.32,-17.97C493.42,-15.23 493.97,-12.01 493.97,-8.33C493.97,-4.68 493.11,-1.24 491.38,2.02C489.69,5.23 487.38,7.66 484.44,9.31C481.54,10.96 477.35,11.78 471.86,11.78L458.4,11.78ZM462.46,7.78L467.34,7.78C472.44,7.78 476.12,7.53 478.39,7.02C480.7,6.51 482.72,5.51 484.45,4.02C486.17,2.49 487.49,0.65 488.39,-1.51C489.29,-3.67 489.74,-6.13 489.74,-8.92C489.74,-11.7 489.21,-14.27 488.15,-16.62C487.13,-18.97 485.66,-20.91 483.74,-22.44C481.82,-23.97 479.55,-24.99 476.92,-25.5C474.33,-26.05 470.51,-26.32 465.46,-26.32L462.46,-26.32L462.46,7.78Z" style="fill:rgb(31,48,95);fill-rule:nonzero;"/>
            </g>
            <g transform="matrix(1,0,0,1,-83.82,92.55)">
                <path d="M406,-28.14C406,-29.04 406.31,-29.83 406.94,-30.49C407.61,-31.16 408.39,-31.49 409.29,-31.49C410.23,-31.49 411.01,-31.16 411.64,-30.49C412.31,-29.86 412.64,-29.08 412.64,-28.14C412.64,-27.24 412.31,-26.45 411.64,-25.79C411.01,-25.16 410.23,-24.85 409.29,-24.85C408.39,-24.85 407.6,-25.18 406.94,-25.85C406.31,-26.52 406,-27.28 406,-28.14M407.29,-19.44L411.35,-19.44L411.35,11.78L407.29,11.78L407.29,-19.44Z" style="fill:rgb(31,48,95);fill-rule:nonzero;"/>
            </g>
            <g transform="matrix(1,0,0,1,-84.33,92.55)">
                <path d="M296.7,11.78L302.7,-30.43L303.35,-30.43L320.51,4.19L337.56,-30.44L338.21,-30.44L344.27,11.77L340.1,11.77L335.98,-18.45L321.05,11.77L319.99,11.77L304.88,-18.68L300.76,11.77L296.7,11.77" style="fill:rgb(31,48,95);fill-rule:nonzero;"/>
            </g>
            <g transform="matrix(1,0,0,1,-84.58,92.55)">
                <path d="M381.1,-19.44L381.1,11.78L377.16,11.78L377.16,6.43C373.59,10.7 369.52,12.84 364.93,12.84C360.34,12.84 356.46,11.21 353.29,7.96C350.15,4.67 348.59,0.77 348.59,-3.74C348.59,-8.29 350.18,-12.17 353.35,-15.38C356.52,-18.63 360.33,-20.26 364.76,-20.26C369.86,-20.26 373.99,-18.08 377.17,-13.73L377.17,-19.43L381.1,-19.43M377.4,-3.69C377.4,-7.26 376.2,-10.26 373.81,-12.69C371.42,-15.16 368.48,-16.39 364.99,-16.39C361.54,-16.39 358.62,-15.12 356.23,-12.57C353.84,-10.06 352.64,-7.08 352.64,-3.63C352.64,-0.18 353.85,2.82 356.29,5.37C358.72,7.88 361.62,9.13 364.99,9.13C368.4,9.13 371.32,7.91 373.75,5.48C376.18,3.06 377.4,-0 377.4,-3.69" style="fill:rgb(31,48,95);fill-rule:nonzero;"/>
            </g>
            <g transform="matrix(1,0,0,1,-85.34,92.55)">
                <path d="M388.7,-19.44L392.82,-19.44L392.82,-14.91C393.92,-16.75 394.98,-18.1 395.99,-18.97C397.05,-19.83 398.2,-20.26 399.46,-20.26C400.75,-20.26 402.05,-19.91 403.34,-19.2L401.22,-15.79C400.63,-16.14 400.02,-16.32 399.4,-16.32C398.19,-16.32 397.03,-15.69 395.93,-14.44C394.87,-13.19 394.09,-11.56 393.58,-9.56C393.07,-7.6 392.82,-4.01 392.82,1.2L392.82,11.78L388.7,11.78L388.7,-19.44Z" style="fill:rgb(31,48,95);fill-rule:nonzero;"/>
            </g>
            <g transform="matrix(1,0,0,1,-83.32,92.55)">
                <path d="M498.3,-30.44L506.65,-30.44C511.08,-30.44 514.43,-29.54 516.7,-27.74C519.01,-25.98 520.17,-23.43 520.17,-20.1C520.17,-18.26 519.7,-16.55 518.76,-14.99C517.86,-13.46 516.53,-12.23 514.76,-11.29C517.66,-10.35 519.86,-8.94 521.34,-7.06C522.87,-5.18 523.63,-2.94 523.63,-0.36C523.63,3.13 522.36,6.03 519.81,8.34C517.26,10.61 513.97,11.75 509.93,11.75L498.3,11.75L498.3,-30.44ZM502.47,-26.32L502.47,-12.8L504.88,-12.8C508.56,-12.8 511.31,-13.39 513.11,-14.56C514.91,-15.74 515.81,-17.58 515.81,-20.09C515.81,-24.24 512.99,-26.32 507.34,-26.32L502.47,-26.32ZM502.47,-8.56L502.47,7.66L507.7,7.66C510.72,7.66 512.93,7.37 514.34,6.78C515.79,6.15 516.97,5.21 517.87,3.96C518.77,2.67 519.22,1.35 519.22,0.02C519.22,-1.31 518.97,-2.49 518.46,-3.51C517.95,-4.53 517.19,-5.43 516.17,-6.21C515.19,-6.99 513.99,-7.58 512.58,-7.97C511.21,-8.36 508.62,-8.56 504.82,-8.56L502.47,-8.56Z" style="fill:rgb(31,48,95);fill-rule:nonzero;"/>
            </g>
        </g>
    </g>
    <g transform="matrix(5.151338,0,0,5.151338,-8384.213194,-80.784745)">
        <path d="M1812,38.13C1809.27,38.22 1810.06,39.45 1804.15,40.91C1798.18,42.38 1790.96,41.48 1784.54,44.18C1767.74,51.22 1765.02,78.44 1745.01,88.97C1731.89,96.38 1718.51,98.08 1706.55,101.83C1696.95,105.68 1690.98,108.23 1683.94,114.3C1678.48,119.01 1677.15,123.58 1671.44,129.49C1665.65,137.36 1643.7,130.37 1638.05,140.24C1641.03,142.17 1642.75,142.7 1647.98,142.01C1646.9,144.06 1640.02,146.76 1641.27,149.78C1641.27,149.78 1657.9,152.81 1671.92,144.35C1678.46,141.69 1684.59,136.06 1694.75,134.71C1707.91,132.96 1722.74,137.47 1738.65,138.74C1735.36,145.24 1731.97,149.08 1728.34,154.44C1727.22,155.65 1729.3,156.72 1733.16,155.99C1740.1,154.27 1745.13,152.41 1750.12,148.96C1756.63,144.47 1759.43,140.36 1764.92,133.85C1769.69,141.5 1786.51,143.18 1789.96,136.57C1783.54,133.85 1782.17,119.7 1784.37,113.59C1786.97,107.77 1788.84,99.54 1790.94,91.89C1792.83,85 1794,74.49 1796.26,69.11C1798.96,62.42 1804.21,60.33 1808.15,56.78C1812.09,53.23 1816.01,50.27 1815.89,42.15C1815.85,39.51 1814.49,38.05 1812,38.13Z" style="fill:rgb(31,48,95);"/>
        <path d="M1643,148.4C1653.31,148.71 1656.11,148.44 1664.26,144.9C1671.19,141.89 1680.46,133.78 1688.65,131.16C1700.67,127.3 1713.56,127.88 1726.35,129.39C1730.63,129.9 1734.93,130.61 1738,130.28C1742.79,127.34 1743.02,119.36 1745.99,118.72C1745.18,134.16 1738.56,144.04 1731.94,153C1745.89,150.54 1755.21,141.83 1760.85,131.05C1762.56,127.78 1765.4,122.43 1766.7,118.75C1767.73,121.19 1765.36,122.74 1766.47,125.4C1775.45,117.99 1779.69,109.55 1783.33,97.19C1787.55,82.89 1791.88,70.6 1794.6,66.37C1797.25,62.24 1801.38,59.69 1805.15,57.05C1809.43,54.04 1813.26,50.91 1813.92,45.18C1809.4,44.76 1808.36,43.72 1807.69,41.44C1805.43,42.71 1803.35,42.99 1801,43.06C1798.96,43.12 1796.72,43.03 1793.98,43.31C1771.35,45.63 1770.3,67.75 1753.85,83.99C1752.79,85.02 1750.98,86.54 1749.78,87.44C1744.7,91.23 1739.26,93.31 1733.53,95.5C1724.25,99.04 1715.45,100.07 1706.75,103.13C1700.36,105.37 1694.42,107.94 1689.17,111.53C1687.86,112.43 1686.08,114.03 1684.94,114.96C1681.86,117.48 1679.84,120.27 1677.88,123.15C1675.86,126.11 1673.92,129.16 1670.95,132.07C1666.14,136.79 1648.18,133.45 1641.85,137.83C1641.15,138.32 1640.58,138.9 1640.2,139.6C1643.65,141.17 1645.96,140.21 1649.93,140.64C1650.42,144.43 1641.71,146.67 1643,148.4Z" style="fill:rgb(192,118,90);fill-rule:nonzero;"/>
        <path d="M1787,52.65C1790.2,55.43 1796.92,53.2 1795.72,47.67C1790.74,47.25 1787.86,48.94 1787,52.65Z" style="fill:rgb(31,48,95);"/>
        <path d="M1809,46.18C1808.15,47.97 1806.52,50.27 1806.52,54.82C1806.51,55.6 1805.93,56.14 1805.92,54.93C1805.96,50.48 1807.14,48.56 1808.39,46.04C1808.96,45.01 1809.31,45.43 1809,46.18Z" style="fill:rgb(31,48,95);fill-rule:nonzero;"/>
        <path d="M1808,45.51C1806.99,47.21 1804.57,50.32 1804.18,54.86C1804.11,55.64 1803.47,56.12 1803.57,54.92C1804.01,50.5 1805.94,47.73 1807.41,45.32C1808.07,44.34 1808.38,44.79 1808,45.51Z" style="fill:rgb(31,48,95);fill-rule:nonzero;"/>
        <path d="M1807,44.62C1805.85,46.23 1802.13,49.97 1801.35,54.45C1801.21,55.22 1800.54,55.64 1800.74,54.46C1801.55,50.09 1804.76,46.65 1806.42,44.38C1807.16,43.45 1807.44,43.93 1807,44.62Z" style="fill:rgb(31,48,95);fill-rule:nonzero;"/>
        <path d="M1807,43.62C1805.64,45.06 1801.2,49.82 1799.8,54.15C1799.55,54.89 1798.83,55.22 1799.19,54.07C1800.6,49.85 1804.49,45.31 1806.46,43.3C1807.33,42.49 1807.53,43.01 1807,43.62Z" style="fill:rgb(31,48,95);fill-rule:nonzero;"/>
    </g>
</svg>
