<?xml version="1.0" encoding="UTF-8" standalone="no"?>
<!DOCTYPE svg PUBLIC "-//W3C//DTD SVG 1.1//EN" "http://www.w3.org/Graphics/SVG/1.1/DTD/svg11.dtd">
<svg width="100%" height="100%" viewBox="0 0 24 24" version="1.1" xmlns="http://www.w3.org/2000/svg" xmlns:xlink="http://www.w3.org/1999/xlink" xml:space="preserve" xmlns:serif="http://www.serif.com/" style="fill-rule:evenodd;clip-rule:evenodd;stroke-linejoin:round;stroke-miterlimit:2;">
    <path d="M11.154,20.846L11.154,19.539L12.846,19.539L12.846,20.846L11.154,20.846ZM11.135,18.346C11.103,17.905 10.962,17.495 10.714,17.117C10.465,16.739 10.195,16.359 9.904,15.976C9.613,15.593 9.351,15.197 9.118,14.788C8.886,14.378 8.769,13.929 8.769,13.442C8.769,12.553 9.085,11.792 9.717,11.16C10.349,10.528 11.11,10.212 12,10.212C12.89,10.212 13.651,10.528 14.283,11.16C14.915,11.792 15.231,12.553 15.231,13.442C15.231,13.929 15.114,14.376 14.882,14.783C14.649,15.189 14.387,15.585 14.096,15.971C13.805,16.357 13.535,16.739 13.286,17.117C13.038,17.495 12.897,17.905 12.865,18.346L11.135,18.346Z" style="fill:rgb(7,154,243);fill-rule:nonzero;"/>
    <path d="M5.169,18.475C4.556,17.714 4.083,16.871 3.75,15.946C3.417,15.022 3.25,14.04 3.25,13C3.25,10.564 4.099,8.497 5.798,6.798C7.497,5.099 9.564,4.25 12,4.25L12.806,4.25L10.946,2.39L11.991,1.346L15.644,5L11.991,8.654L10.921,7.584L12.756,5.75L12,5.75C9.996,5.75 8.287,6.457 6.872,7.872C5.457,9.287 4.75,10.996 4.75,13C4.75,13.837 4.881,14.629 5.143,15.376C5.405,16.123 5.774,16.799 6.248,17.406L5.169,18.475ZM18.831,18.475L17.752,17.406C18.226,16.799 18.595,16.123 18.857,15.376C19.119,14.629 19.25,13.837 19.25,13C19.25,11.913 19.032,10.9 18.596,9.962C18.16,9.023 17.558,8.224 16.791,7.566L17.86,6.496C18.756,7.304 19.462,8.263 19.977,9.374C20.492,10.485 20.75,11.694 20.75,13C20.75,14.04 20.583,15.022 20.25,15.946C19.917,16.871 19.444,17.714 18.831,18.475Z" style="fill:rgb(102,102,102);fill-rule:nonzero;"/>
</svg>
