<?xml version="1.0" encoding="UTF-8" standalone="no"?>
<!DOCTYPE svg PUBLIC "-//W3C//DTD SVG 1.1//EN" "http://www.w3.org/Graphics/SVG/1.1/DTD/svg11.dtd">
<svg width="24px" height="24px" viewBox="0 0 1024 1024" version="1.1" xmlns="http://www.w3.org/2000/svg" xmlns:xlink="http://www.w3.org/1999/xlink" xml:space="preserve" xmlns:serif="http://www.serif.com/" style="fill-rule:evenodd;clip-rule:evenodd;stroke-linejoin:round;stroke-miterlimit:2;">
    <g transform="matrix(42.666667,0,0,42.666667,0,0)">
        <path d="M17.133,16.988L18.45,18.305C18.588,18.454 18.662,18.63 18.67,18.835C18.679,19.039 18.608,19.216 18.459,19.365C18.311,19.52 18.135,19.596 17.933,19.593C17.73,19.589 17.554,19.513 17.406,19.365L14.902,16.87C14.721,16.69 14.631,16.479 14.631,16.238C14.631,15.997 14.721,15.786 14.902,15.605L17.406,13.111C17.554,12.962 17.73,12.886 17.933,12.883C18.135,12.88 18.311,12.956 18.459,13.111C18.608,13.26 18.679,13.438 18.67,13.645C18.662,13.853 18.588,14.031 18.45,14.18L17.133,15.488L20.75,15.488C20.963,15.488 21.141,15.56 21.285,15.703C21.428,15.847 21.5,16.025 21.5,16.238C21.5,16.451 21.428,16.629 21.285,16.772C21.141,16.916 20.963,16.988 20.75,16.988L17.133,16.988ZM6.867,8.497L3.25,8.497C3.037,8.497 2.859,8.426 2.715,8.282C2.572,8.138 2.5,7.96 2.5,7.747C2.5,7.535 2.572,7.356 2.715,7.213C2.859,7.069 3.037,6.997 3.25,6.997L6.867,6.997L5.55,5.69C5.412,5.541 5.34,5.364 5.335,5.16C5.33,4.955 5.401,4.779 5.55,4.63C5.699,4.482 5.871,4.407 6.067,4.407C6.263,4.407 6.436,4.482 6.585,4.63L9.098,7.115C9.279,7.296 9.369,7.508 9.369,7.752C9.369,7.997 9.279,8.209 9.098,8.39L6.594,10.884C6.446,11.033 6.27,11.107 6.067,11.107C5.865,11.107 5.689,11.029 5.541,10.874C5.392,10.726 5.321,10.549 5.33,10.345C5.338,10.14 5.412,9.964 5.55,9.815L6.867,8.497Z" style="fill:rgb(6,154,243);"/>
    </g>
    <g transform="matrix(42.666667,0,0,42.666667,0,0)">
        <path d="M11.56,13.508C11.91,13.858 12.09,14.278 12.09,14.788L12.09,17.688C12.09,18.198 11.91,18.618 11.56,18.968C11.21,19.318 10.78,19.498 10.28,19.498L4.31,19.498C3.8,19.498 3.38,19.318 3.03,18.968C2.68,18.618 2.5,18.198 2.5,17.688L2.5,14.788C2.5,14.278 2.68,13.858 3.03,13.508C3.38,13.158 3.8,12.978 4.31,12.978L10.28,12.978C10.78,12.978 11.21,13.158 11.56,13.508ZM10.59,17.688L10.59,14.788C10.59,14.698 10.56,14.618 10.5,14.568C10.44,14.508 10.37,14.478 10.28,14.478L4.31,14.478C4.22,14.478 4.14,14.508 4.09,14.568C4.03,14.618 4,14.698 4,14.788L4,17.688C4,17.778 4.03,17.858 4.09,17.908C4.14,17.968 4.22,17.998 4.31,17.998L10.28,17.998C10.37,17.998 10.44,17.968 10.5,17.908C10.56,17.858 10.59,17.778 10.59,17.688ZM20.98,5.017C21.33,5.367 21.5,5.797 21.5,6.307L21.5,9.207C21.5,9.717 21.33,10.137 20.98,10.487C20.63,10.837 20.2,11.017 19.69,11.017L13.72,11.017C13.22,11.017 12.79,10.837 12.44,10.487C12.09,10.137 11.91,9.717 11.91,9.207L11.91,6.307C11.91,5.797 12.09,5.367 12.44,5.017C12.79,4.667 13.22,4.497 13.72,4.497L19.69,4.497C20.2,4.497 20.63,4.667 20.98,5.017ZM20,9.207L20,6.307C20,6.217 19.97,6.137 19.91,6.087C19.86,6.027 19.78,5.997 19.69,5.997L13.72,5.997C13.63,5.997 13.56,6.027 13.5,6.087C13.44,6.137 13.41,6.217 13.41,6.307L13.41,9.207C13.41,9.297 13.44,9.377 13.5,9.427C13.56,9.487 13.63,9.517 13.72,9.517L19.69,9.517C19.78,9.517 19.86,9.487 19.91,9.427C19.97,9.377 20,9.297 20,9.207Z" style="fill:rgb(95,99,104);"/>
    </g>
</svg>
