<?xml version="1.0" encoding="UTF-8" standalone="no"?>
<!DOCTYPE svg PUBLIC "-//W3C//DTD SVG 1.1//EN" "http://www.w3.org/Graphics/SVG/1.1/DTD/svg11.dtd">
<svg width="100%" height="100%" viewBox="0 0 1024 1024" version="1.1" xmlns="http://www.w3.org/2000/svg" xmlns:xlink="http://www.w3.org/1999/xlink" xml:space="preserve" xmlns:serif="http://www.serif.com/" style="fill-rule:evenodd;clip-rule:evenodd;stroke-linejoin:round;stroke-miterlimit:2;">
    <g transform="matrix(7.889343,0,0,7.168938,-3180.215796,-209.793631)">
        <path d="M477.589,57.413C472.956,51.867 468.966,46.235 468.151,45.065C468.065,44.978 467.937,44.978 467.851,45.065C467.036,46.235 463.046,51.867 458.413,57.413C418.646,108.579 464.676,143.109 464.676,143.109L465.062,143.369C465.406,148.698 466.264,156.367 466.264,156.367L469.696,156.367C469.696,156.367 470.554,148.741 470.897,143.369L471.283,143.066C471.326,143.109 517.356,108.579 477.589,57.413ZM467.98,142.373C467.98,142.373 465.92,140.596 465.363,139.687L465.363,139.6L467.851,83.884C467.851,83.711 468.108,83.711 468.108,83.884L470.596,139.6L470.596,139.687C470.039,140.596 467.98,142.373 467.98,142.373Z" style="fill:rgb(0,104,74);fill-rule:nonzero;"/>
    </g>
</svg>
