<?xml version="1.0" encoding="UTF-8" standalone="no"?>
<!DOCTYPE svg PUBLIC "-//W3C//DTD SVG 1.1//EN" "http://www.w3.org/Graphics/SVG/1.1/DTD/svg11.dtd">
<svg width="100%" height="100%" viewBox="0 0 1024 1024" version="1.1" xmlns="http://www.w3.org/2000/svg" xmlns:xlink="http://www.w3.org/1999/xlink" xml:space="preserve" xmlns:serif="http://www.serif.com/" style="fill-rule:evenodd;clip-rule:evenodd;stroke-linejoin:round;stroke-miterlimit:2;">
    <g transform="matrix(1.066667,0,0,1.066667,0,1024)">
        <path d="M263.85,-140L263.85,-210.77L299.23,-246.15L172.31,-246.15C152.103,-246.15 135,-253.15 121,-267.15C107,-281.15 100,-298.253 100,-318.46L100,-747.69C100,-767.897 107,-785 121,-799C135,-813 152.103,-820 172.31,-820L787.69,-820C807.897,-820 825,-813 839,-799C853,-785 860,-767.897 860,-747.69L860,-318.46C860,-298.253 853,-281.15 839,-267.15C825,-253.15 807.897,-246.15 787.69,-246.15L660.77,-246.15L696.15,-210.77L696.15,-140L263.85,-140ZM172.31,-306.15L787.69,-306.15C790.77,-306.15 793.59,-307.433 796.15,-310C798.717,-312.567 800,-315.387 800,-318.46L800,-747.69C800,-750.77 798.717,-753.59 796.15,-756.15C793.59,-758.717 790.77,-760 787.69,-760L172.31,-760C169.23,-760 166.41,-758.717 163.85,-756.15C161.283,-753.59 160,-750.77 160,-747.69L160,-318.46C160,-315.387 161.283,-312.567 163.85,-310C166.41,-307.433 169.23,-306.15 172.31,-306.15ZM160,-306.15L160,-760L160,-306.15Z" style="fill:rgb(95,99,104);fill-rule:nonzero;"/>
    </g>
</svg>
