<?xml version="1.0" encoding="UTF-8" standalone="no"?>
<!DOCTYPE svg PUBLIC "-//W3C//DTD SVG 1.1//EN" "http://www.w3.org/Graphics/SVG/1.1/DTD/svg11.dtd">
<svg width="100%" height="100%" viewBox="0 0 24 24" version="1.1" xmlns="http://www.w3.org/2000/svg" xmlns:xlink="http://www.w3.org/1999/xlink" xml:space="preserve" xmlns:serif="http://www.serif.com/" style="fill-rule:evenodd;clip-rule:evenodd;stroke-linejoin:round;stroke-miterlimit:2;">
    <path d="M8.296,19.5C8.132,19.5 7.979,19.461 7.837,19.382C7.694,19.303 7.585,19.187 7.508,19.033L5.654,15.712L7.008,15.712L7.969,17.596L10.125,17.596L10.125,16.712L8.502,16.712L7.541,14.827L5.162,14.827L3.814,12.452C3.78,12.375 3.753,12.3 3.731,12.226C3.709,12.152 3.698,12.077 3.698,12C3.698,11.946 3.737,11.795 3.814,11.548L5.162,9.173L7.541,9.173L8.502,7.289L10.125,7.289L10.125,6.404L7.969,6.404L7.008,8.289L5.654,8.289L7.508,4.967C7.585,4.813 7.694,4.697 7.837,4.618C7.979,4.539 8.132,4.5 8.296,4.5L10.654,4.5C10.912,4.5 11.127,4.586 11.299,4.759C11.472,4.931 11.558,5.146 11.558,5.404L11.558,9.212L10.048,9.212L9.164,10.096L11.558,10.096L11.558,12.962L9.473,12.962L8.531,11.087L6.452,11.087L5.567,11.971L7.998,11.971L8.941,13.846L11.558,13.846L11.558,18.596C11.558,18.854 11.472,19.069 11.299,19.241C11.127,19.414 10.912,19.5 10.654,19.5L8.296,19.5Z" style="fill:rgb(102,102,102);fill-rule:nonzero;"/>
    <path d="M14,19.5C13.514,19.5 13.101,19.33 12.761,18.99C12.42,18.649 12.25,18.236 12.25,17.75C12.25,17.392 12.343,17.079 12.53,16.81C12.716,16.54 12.957,16.333 13.25,16.189L13.25,7.811C12.957,7.667 12.716,7.46 12.53,7.191C12.343,6.921 12.25,6.608 12.25,6.25C12.25,5.764 12.42,5.351 12.761,5.01C13.101,4.67 13.514,4.5 14,4.5C14.486,4.5 14.899,4.67 15.24,5.01C15.58,5.351 15.75,5.764 15.75,6.25C15.75,6.608 15.657,6.921 15.47,7.191C15.284,7.46 15.043,7.667 14.75,7.811L14.75,10.519L17.019,9.156C16.968,8.64 17.116,8.192 17.463,7.811C17.809,7.431 18.238,7.241 18.75,7.241C19.236,7.241 19.649,7.411 19.99,7.751C20.33,8.091 20.5,8.505 20.5,8.99C20.5,9.476 20.33,9.889 19.99,10.23C19.649,10.57 19.236,10.74 18.75,10.74C18.567,10.74 18.397,10.713 18.242,10.659C18.087,10.604 17.938,10.529 17.794,10.433L15.317,11.933L17.996,14.058C18.113,13.995 18.233,13.95 18.356,13.924C18.479,13.898 18.61,13.885 18.75,13.885C19.236,13.885 19.649,14.055 19.99,14.395C20.33,14.736 20.5,15.149 20.5,15.634C20.5,16.121 20.33,16.534 19.99,16.874C19.649,17.214 19.236,17.385 18.75,17.385C18.178,17.385 17.722,17.161 17.382,16.714C17.041,16.266 16.932,15.774 17.054,15.239L14.75,13.392L14.75,16.214C15.044,16.358 15.279,16.564 15.458,16.83C15.636,17.096 15.725,17.403 15.725,17.75C15.725,18.236 15.559,18.649 15.227,18.99C14.895,19.33 14.486,19.5 14,19.5Z" style="fill:rgb(6,154,243);fill-rule:nonzero;"/>
</svg>
