<?xml version="1.0" encoding="UTF-8" standalone="no"?>
<!DOCTYPE svg PUBLIC "-//W3C//DTD SVG 1.1//EN" "http://www.w3.org/Graphics/SVG/1.1/DTD/svg11.dtd">
<svg width="100%" height="100%" viewBox="0 0 1024 1024" version="1.1" xmlns="http://www.w3.org/2000/svg" xmlns:xlink="http://www.w3.org/1999/xlink" xml:space="preserve" xmlns:serif="http://www.serif.com/" style="fill-rule:evenodd;clip-rule:evenodd;stroke-linejoin:round;stroke-miterlimit:2;">
    <path d="M530.869,596.181L530.869,430.773L633.024,430.773L595.285,393.024L530.869,393.024L530.869,230.571C530.869,219.57 534.549,210.393 541.909,203.04C549.262,195.68 558.439,192 569.44,192L670.027,192C677.031,192 683.57,193.682 689.643,197.045C695.716,200.409 700.391,205.372 703.669,211.936L782.763,353.643L725.003,353.643L683.979,273.237L592,273.237L592,310.976L661.248,310.976L701.867,391.381L803.776,391.381L861.376,492.224C846.165,486.315 830.382,481.842 814.027,478.805C797.671,475.776 780.96,474.261 763.893,474.261C715.431,474.261 670.823,485.323 630.069,507.445C589.316,529.575 556.249,559.154 530.869,596.181Z" style="fill:rgb(6,154,243);fill-rule:nonzero;"/>
    <path d="M454.56,832L353.973,832C346.969,832 340.43,830.318 334.357,826.955C328.284,823.591 323.609,818.628 320.331,812.064L241.237,670.357L298.997,670.357L340.021,750.763L432,750.763L432,713.024L362.752,713.024L321.728,632.619L220.224,632.619L162.709,531.285C161.287,528 160.11,524.786 159.179,521.643C158.247,518.5 157.781,515.285 157.781,512C157.781,509.703 159.424,503.275 162.709,492.715L220.224,391.381L321.728,391.381L362.752,310.976L432,310.976L432,273.237L340.021,273.237L298.997,353.643L241.237,353.643L320.331,211.936C323.609,205.372 328.284,200.409 334.357,197.045C340.43,193.682 346.969,192 353.973,192L454.56,192C465.561,192 474.738,195.68 482.091,203.04C489.451,210.393 493.131,219.57 493.131,230.571L493.131,393.024L428.715,393.024L390.976,430.773L493.131,430.773L493.131,553.024L404.181,553.024L363.979,473.024L275.285,473.024L237.536,510.773L341.248,510.773L381.461,590.773L493.131,590.773L493.131,673.067C488.21,686.578 484.516,700.594 482.048,715.115C479.588,729.643 478.357,744.537 478.357,759.797C478.357,769.426 478.756,778.916 479.552,788.267C480.341,797.618 481.966,807.108 484.427,816.736C481.419,821.109 477.248,824.747 471.915,827.648C466.581,830.549 460.796,832 454.56,832Z" style="fill:rgb(102,102,102);fill-rule:nonzero;"/>
    <path d="M763.893,951.797C710.617,951.797 665.298,933.116 627.936,895.755C590.581,858.393 571.904,813.074 571.904,759.797C571.904,706.514 590.581,661.195 627.936,623.84C665.298,586.478 710.617,567.797 763.893,567.797C817.177,567.797 862.496,586.478 899.851,623.84C937.212,661.195 955.893,706.514 955.893,759.797C955.893,813.074 937.212,858.393 899.851,895.755C862.496,933.116 817.177,951.797 763.893,951.797ZM763.893,879.179L882.048,761.024L855.467,734.443L782.773,807.136L782.773,640.405L745.024,640.405L745.024,807.136L672.331,734.443L645.749,761.024L763.893,879.179Z" style="fill:rgb(6,154,243);fill-rule:nonzero;"/>
</svg>
