<?xml version="1.0" encoding="UTF-8" standalone="no"?>
<!DOCTYPE svg PUBLIC "-//W3C//DTD SVG 1.1//EN" "http://www.w3.org/Graphics/SVG/1.1/DTD/svg11.dtd">
<svg width="100%" height="100%" viewBox="0 0 1024 1024" version="1.1" xmlns="http://www.w3.org/2000/svg" xmlns:xlink="http://www.w3.org/1999/xlink" xml:space="preserve" xmlns:serif="http://www.serif.com/" style="fill-rule:evenodd;clip-rule:evenodd;stroke-linejoin:round;stroke-miterlimit:2;">
    <path d="M353.973,832C346.969,832 340.43,830.318 334.357,826.955C328.284,823.591 323.609,818.628 320.331,812.064L241.237,670.357L298.997,670.357L340.021,750.763L432,750.763L432,713.024L362.752,713.024L321.728,632.619L220.224,632.619L162.709,531.285C161.287,528 160.11,524.786 159.179,521.643C158.247,518.5 157.781,515.285 157.781,512C157.781,509.703 159.424,503.275 162.709,492.715L220.224,391.381L321.728,391.381L362.752,310.976L432,310.976L432,273.237L340.021,273.237L298.997,353.643L241.237,353.643L320.331,211.936C323.609,205.372 328.284,200.409 334.357,197.045C340.43,193.682 346.969,192 353.973,192L454.56,192C465.561,192 474.738,195.68 482.091,203.04C489.451,210.393 493.131,219.57 493.131,230.571L493.131,393.024L428.715,393.024L390.976,430.773L493.131,430.773L493.131,553.024L404.181,553.024L363.979,473.024L275.285,473.024L237.536,510.773L341.248,510.773L381.461,590.773L493.131,590.773L493.131,793.429C493.131,804.43 489.451,813.607 482.091,820.96C474.738,828.32 465.561,832 454.56,832L353.973,832Z" style="fill:rgb(102,102,102);fill-rule:nonzero;"/>
    <path d="M569.44,832C558.439,832 549.262,828.32 541.909,820.96C534.549,813.607 530.869,804.43 530.869,793.429L530.869,590.773L642.539,590.773L682.752,510.773L786.464,510.773L748.715,473.024L660.021,473.024L619.403,553.024L530.869,553.024L530.869,430.773L633.024,430.773L595.285,393.024L530.869,393.024L530.869,230.571C530.869,219.57 534.549,210.393 541.909,203.04C549.262,195.68 558.439,192 569.44,192L670.027,192C677.031,192 683.57,193.682 689.643,197.045C695.716,200.409 700.391,205.372 703.669,211.936L782.763,353.643L725.003,353.643L683.979,273.237L592,273.237L592,310.976L661.248,310.976L701.867,391.381L803.776,391.381L861.291,492.715C862.713,496 863.89,499.214 864.821,502.357C865.753,505.5 866.219,508.715 866.219,512C866.219,514.297 864.576,520.725 861.291,531.285L803.776,632.619L701.867,632.619L661.248,713.024L592,713.024L592,750.763L683.979,750.763L725.003,670.357L782.763,670.357L703.669,812.064C700.391,818.628 695.716,823.591 689.643,826.955C683.57,830.318 677.031,832 670.027,832L569.44,832Z" style="fill:rgb(6,154,243);fill-rule:nonzero;"/>
</svg>
