<?xml version="1.0" encoding="UTF-8" standalone="no"?>
<!DOCTYPE svg PUBLIC "-//W3C//DTD SVG 1.1//EN" "http://www.w3.org/Graphics/SVG/1.1/DTD/svg11.dtd">
<svg width="100%" height="100%" viewBox="0 0 24 24" version="1.1" xmlns="http://www.w3.org/2000/svg" xmlns:xlink="http://www.w3.org/1999/xlink" xml:space="preserve" xmlns:serif="http://www.serif.com/" style="fill-rule:evenodd;clip-rule:evenodd;stroke-linejoin:round;stroke-miterlimit:2;">
    <path d="M4.241,20.5C4.028,20.5 3.85,20.428 3.706,20.284C3.562,20.14 3.491,19.962 3.491,19.75C3.491,19.537 3.562,19.359 3.706,19.216C3.85,19.072 4.028,19 4.241,19L5.346,19L5.346,12.75L4.241,12.75C4.028,12.75 3.85,12.678 3.706,12.534C3.562,12.39 3.491,12.212 3.491,12C3.491,11.787 3.562,11.609 3.706,11.465C3.85,11.322 4.028,11.25 4.241,11.25L5.346,11.25L5.346,5L4.241,5C4.028,5 3.85,4.928 3.706,4.784C3.562,4.64 3.491,4.462 3.491,4.25C3.491,4.037 3.562,3.859 3.706,3.715C3.85,3.572 4.028,3.5 4.241,3.5L19.75,3.5C19.963,3.5 20.141,3.572 20.284,3.716C20.428,3.86 20.5,4.038 20.5,4.25C20.5,4.463 20.428,4.641 20.284,4.784C20.141,4.928 19.963,5 19.75,5L18.654,5L18.654,11.25L19.75,11.25C19.963,11.25 20.141,11.322 20.284,11.466C20.428,11.61 20.5,11.788 20.5,12C20.5,12.213 20.428,12.391 20.284,12.535C20.141,12.678 19.963,12.75 19.75,12.75L18.654,12.75L18.654,19L19.75,19C19.963,19 20.141,19.072 20.284,19.216C20.428,19.36 20.5,19.538 20.5,19.75C20.5,19.963 20.428,20.141 20.284,20.285C20.141,20.428 19.963,20.5 19.75,20.5L4.241,20.5ZM6.846,19L17.154,19L17.154,12.75L16.904,12.75C16.691,12.75 16.513,12.678 16.37,12.534C16.226,12.39 16.154,12.212 16.154,12C16.154,11.787 16.226,11.609 16.37,11.465C16.513,11.322 16.691,11.25 16.904,11.25L17.154,11.25L17.154,5L6.846,5L6.846,11.25L7.096,11.25C7.309,11.25 7.487,11.322 7.631,11.466C7.774,11.61 7.846,11.788 7.846,12C7.846,12.213 7.774,12.391 7.631,12.535C7.487,12.678 7.309,12.75 7.096,12.75L6.846,12.75L6.846,19Z" style="fill:rgb(102,102,102);fill-rule:nonzero;"/>
    <path d="M11.999,15.683C12.762,15.683 13.412,15.419 13.947,14.892C14.482,14.365 14.75,13.727 14.75,12.978C14.75,12.383 14.578,11.871 14.234,11.443C13.891,11.015 13.146,10.137 12,8.808C10.859,10.126 10.115,11.002 9.769,11.437C9.423,11.871 9.25,12.386 9.25,12.981C9.25,13.728 9.517,14.365 10.052,14.892C10.586,15.419 11.235,15.683 11.999,15.683Z" style="fill:rgb(6,154,243);fill-rule:nonzero;"/>
    <path d="M6.846,19L6.846,5L6.846,19Z" style="fill:rgb(102,102,102);fill-rule:nonzero;"/>
</svg>
