<?xml version="1.0" encoding="UTF-8" standalone="no"?>
<!DOCTYPE svg PUBLIC "-//W3C//DTD SVG 1.1//EN" "http://www.w3.org/Graphics/SVG/1.1/DTD/svg11.dtd">
<svg width="100%" height="100%" viewBox="0 0 12 12" version="1.1" xmlns="http://www.w3.org/2000/svg" xmlns:xlink="http://www.w3.org/1999/xlink" xml:space="preserve" xmlns:serif="http://www.serif.com/" style="fill-rule:evenodd;clip-rule:evenodd;stroke-linejoin:round;stroke-miterlimit:2;">
    <path d="M6.011,5.09C6.479,5.09 6.911,5.247 7.234,5.518C7.549,5.781 7.736,6.135 7.736,6.488C7.736,6.932 7.533,7.278 7.17,7.499C6.86,7.686 6.444,7.777 5.968,7.777C5.464,7.777 5.033,7.648 4.722,7.41C4.413,7.175 4.24,6.845 4.24,6.488C4.24,6.134 4.439,5.779 4.768,5.515C5.102,5.246 5.543,5.09 6.011,5.09ZM6.01,5.538C5.664,5.535 5.326,5.65 5.053,5.863C4.822,6.048 4.692,6.281 4.692,6.488C4.692,6.702 4.797,6.903 4.997,7.055C5.224,7.229 5.559,7.329 5.968,7.329C6.368,7.329 6.705,7.256 6.934,7.116C7.166,6.976 7.284,6.773 7.284,6.488C7.284,6.276 7.161,6.043 6.943,5.86C6.701,5.657 6.373,5.538 6.01,5.538ZM6.342,6.143L6.344,6.145C6.404,6.221 6.391,6.33 6.316,6.39L6.17,6.505L6.17,6.728C6.169,6.831 6.084,6.915 5.982,6.915C5.879,6.915 5.794,6.831 5.794,6.728L5.794,6.498L5.658,6.389C5.617,6.356 5.593,6.306 5.593,6.254C5.593,6.214 5.607,6.175 5.632,6.144C5.693,6.07 5.804,6.058 5.879,6.119L5.987,6.205L6.097,6.118C6.171,6.059 6.281,6.07 6.342,6.143ZM8.175,5.184C8.415,5.184 8.609,5.379 8.609,5.619C8.609,5.857 8.413,6.054 8.175,6.055C7.936,6.054 7.741,5.858 7.741,5.62C7.74,5.381 7.936,5.184 8.175,5.184ZM3.822,5.184C4.061,5.184 4.255,5.379 4.255,5.619C4.255,5.857 4.059,6.054 3.821,6.055C3.583,6.054 3.387,5.858 3.388,5.62C3.387,5.381 3.583,5.184 3.821,5.184L3.822,5.184Z" style="fill:rgb(6,154,243);"/>
    <path d="M3.953,0.545C4.061,0.588 4.158,0.658 4.247,0.75C4.394,0.903 4.519,1.122 4.614,1.382C4.709,1.643 4.771,1.932 4.795,2.221C5.109,2.043 5.459,1.935 5.819,1.903L5.845,1.901C6.279,1.866 6.71,1.945 7.085,2.138C7.135,2.165 7.185,2.193 7.233,2.223C7.258,1.939 7.319,1.656 7.413,1.401C7.508,1.141 7.633,0.923 7.78,0.769C7.862,0.681 7.962,0.611 8.074,0.564C8.203,0.514 8.339,0.505 8.472,0.543C8.673,0.6 8.845,0.727 8.98,0.912C9.104,1.08 9.197,1.296 9.261,1.555C9.376,2.022 9.396,2.637 9.318,3.378L9.358,3.407C9.736,3.695 10,4.106 10.139,4.582C10.356,5.326 10.247,6.16 9.872,6.627L9.863,6.637L9.864,6.639C10.073,7.02 10.199,7.422 10.226,7.839L10.227,7.854C10.259,8.386 10.127,8.922 9.82,9.449L9.816,9.454L9.821,9.466C10.057,10.044 10.131,10.627 10.04,11.209L10.037,11.228C10.008,11.404 9.84,11.525 9.664,11.496C9.507,11.471 9.39,11.335 9.39,11.176C9.39,11.159 9.391,11.142 9.394,11.125C9.477,10.609 9.399,10.091 9.154,9.564C9.108,9.464 9.115,9.348 9.174,9.255L9.176,9.252C9.478,8.79 9.603,8.337 9.576,7.892C9.553,7.503 9.413,7.12 9.176,6.756C9.081,6.609 9.121,6.41 9.266,6.313L9.27,6.31C9.392,6.23 9.504,6.027 9.56,5.75C9.623,5.421 9.607,5.083 9.513,4.763C9.41,4.413 9.223,4.121 8.96,3.921C8.663,3.694 8.269,3.585 7.77,3.616C7.637,3.625 7.512,3.551 7.454,3.431C7.297,3.098 7.068,2.86 6.783,2.713C6.509,2.576 6.202,2.518 5.897,2.547C5.274,2.596 4.725,2.947 4.562,3.39C4.515,3.517 4.393,3.602 4.257,3.602C3.723,3.603 3.31,3.728 3.008,3.954C2.747,4.149 2.569,4.421 2.475,4.748C2.39,5.055 2.379,5.378 2.441,5.691C2.497,5.97 2.607,6.201 2.732,6.325L2.736,6.329C2.842,6.432 2.865,6.594 2.791,6.721C2.611,7.032 2.476,7.496 2.454,7.941C2.429,8.45 2.547,8.892 2.814,9.209L2.822,9.219C2.904,9.314 2.923,9.449 2.869,9.564C2.581,10.182 2.493,10.69 2.588,11.09C2.593,11.111 2.595,11.133 2.595,11.155C2.595,11.334 2.448,11.481 2.269,11.481C2.122,11.481 1.992,11.381 1.954,11.239C1.832,10.73 1.915,10.147 2.19,9.49L2.197,9.472L2.193,9.466C2.058,9.266 1.957,9.045 1.894,8.812L1.892,8.802C1.816,8.511 1.786,8.21 1.803,7.91C1.825,7.455 1.942,6.989 2.114,6.615L2.12,6.602L2.119,6.601C1.973,6.392 1.864,6.124 1.804,5.828L1.802,5.816C1.719,5.403 1.735,4.977 1.848,4.571C1.979,4.114 2.237,3.721 2.616,3.437C2.646,3.414 2.678,3.392 2.709,3.371C2.63,2.624 2.65,2.006 2.765,1.536C2.829,1.277 2.922,1.061 3.046,0.892C3.181,0.708 3.353,0.581 3.554,0.524C3.687,0.486 3.824,0.494 3.952,0.545L3.953,0.545ZM3.72,1.15L3.719,1.151C3.661,1.176 3.611,1.218 3.576,1.27L3.574,1.273C3.505,1.367 3.445,1.506 3.4,1.689C3.315,2.035 3.292,2.504 3.338,3.08C3.553,3.016 3.787,2.976 4.04,2.961L4.045,2.961L4.128,2.824C4.19,2.439 4.139,1.978 4.002,1.602C3.935,1.42 3.853,1.277 3.775,1.196C3.759,1.179 3.741,1.164 3.721,1.151L3.72,1.15ZM8.307,1.17L8.306,1.17C8.287,1.183 8.269,1.199 8.253,1.215C8.175,1.297 8.093,1.44 8.026,1.622C7.881,2.019 7.833,2.511 7.911,2.909L7.944,2.964L7.959,2.964C8.207,2.964 8.454,3 8.692,3.07C8.735,2.508 8.711,2.049 8.628,1.709C8.583,1.527 8.523,1.388 8.454,1.293L8.452,1.29C8.416,1.237 8.367,1.196 8.309,1.171L8.307,1.17Z" style="fill:rgb(102,102,102);"/>
</svg>
