<?xml version="1.0" encoding="UTF-8" standalone="no"?>
<!DOCTYPE svg PUBLIC "-//W3C//DTD SVG 1.1//EN" "http://www.w3.org/Graphics/SVG/1.1/DTD/svg11.dtd">
<svg width="100%" height="100%" viewBox="0 0 1024 1024" version="1.1" xmlns="http://www.w3.org/2000/svg" xmlns:xlink="http://www.w3.org/1999/xlink" xml:space="preserve" xmlns:serif="http://www.serif.com/" style="fill-rule:evenodd;clip-rule:evenodd;stroke-linejoin:round;stroke-miterlimit:2;">
    <g transform="matrix(42.666667,0,0,42.666667,0,0)">
        <path d="M9.68,5.34L8.16,6.22L14.33,9.79L15.86,8.9L9.68,5.34Z" style="fill:rgb(6,154,243);fill-rule:nonzero;"/>
    </g>
    <g transform="matrix(42.666667,0,0,42.666667,0,0)">
        <path d="M20.26,7.3C20.1,7.03 19.88,6.81 19.6,6.65L12.9,2.79C12.62,2.63 12.32,2.55 12,2.55C11.68,2.55 11.38,2.63 11.1,2.79L4.4,6.65C4.12,6.81 3.9,7.03 3.74,7.3C3.58,7.58 3.5,7.88 3.5,8.21L3.5,15.79C3.5,16.12 3.58,16.42 3.74,16.7C3.9,16.97 4.12,17.19 4.4,17.35L11.1,21.21C11.38,21.37 11.68,21.45 12,21.45C12.32,21.45 12.62,21.37 12.9,21.21L19.6,17.35C19.88,17.19 20.1,16.97 20.26,16.7C20.42,16.42 20.5,16.12 20.5,15.79L20.5,8.21C20.5,7.88 20.42,7.58 20.26,7.3ZM11.25,19.57L5.15,16.04C5.1,16 5.06,15.97 5.04,15.92C5.01,15.88 5,15.83 5,15.78L5,8.81L11.25,12.43L11.25,19.57ZM5.83,7.57L8.15,6.22L8.16,6.22L9.68,5.34L11.85,4.09C11.9,4.05 11.95,4.04 12,4.04C12.05,4.04 12.1,4.05 12.15,4.09L18.18,7.57L15.86,8.9L14.33,9.79L12,11.14L5.83,7.57ZM19,15.78C19,15.83 18.99,15.88 18.96,15.92C18.94,15.97 18.9,16 18.85,16.04L12.75,19.57L12.75,12.43L19,8.81L19,15.78Z" style="fill:rgb(95,99,104);fill-rule:nonzero;"/>
    </g>
</svg>
