<?xml version="1.0" encoding="UTF-8" standalone="no"?>
<!DOCTYPE svg PUBLIC "-//W3C//DTD SVG 1.1//EN" "http://www.w3.org/Graphics/SVG/1.1/DTD/svg11.dtd">
<svg width="100%" height="100%" viewBox="0 0 24 24" version="1.1" xmlns="http://www.w3.org/2000/svg" xmlns:xlink="http://www.w3.org/1999/xlink" xml:space="preserve" xmlns:serif="http://www.serif.com/" style="fill-rule:evenodd;clip-rule:evenodd;stroke-linejoin:round;stroke-miterlimit:2;">
    <path d="M2.943,20.788L2.943,17.789L21.058,17.789L21.058,20.788L18.673,20.788L18.673,19.289L13.192,19.289L13.192,20.788L10.808,20.788L10.808,19.289L5.327,19.289L5.327,20.788L2.943,20.788Z" style="fill:rgb(102,102,102);fill-rule:nonzero;"/>
    <path d="M6.414,15.789C6.157,15.788 5.943,15.702 5.77,15.528C5.596,15.355 5.51,15.141 5.51,14.884L5.51,3.692C5.51,3.436 5.596,3.222 5.77,3.048C5.943,2.875 6.157,2.788 6.414,2.788L17.587,2.788C17.843,2.788 18.057,2.875 18.231,3.048C18.404,3.222 18.49,3.436 18.49,3.692L18.49,14.808C18.49,15.086 18.398,15.319 18.214,15.507C18.03,15.695 17.801,15.789 17.529,15.789L6.414,15.789ZM7.01,14.288L16.991,14.288L16.991,4.288L7.01,4.288L7.01,14.288ZM9,8.077L15,8.077L15,6.577L9,6.577L9,8.077Z" style="fill:rgb(6,154,243);fill-rule:nonzero;"/>
</svg>
