<?xml version="1.0" encoding="UTF-8" standalone="no"?>
<!DOCTYPE svg PUBLIC "-//W3C//DTD SVG 1.1//EN" "http://www.w3.org/Graphics/SVG/1.1/DTD/svg11.dtd">
<svg width="100%" height="100%" viewBox="0 0 24 24" version="1.1" xmlns="http://www.w3.org/2000/svg" xmlns:xlink="http://www.w3.org/1999/xlink" xml:space="preserve" xmlns:serif="http://www.serif.com/" style="fill-rule:evenodd;clip-rule:evenodd;stroke-linejoin:round;stroke-miterlimit:2;">
    <path d="M17.192,21.5C15.944,21.5 14.881,21.062 14.006,20.187C13.13,19.311 12.692,18.249 12.692,17C12.692,15.751 13.13,14.689 14.006,13.814C14.881,12.938 15.944,12.5 17.192,12.5C18.441,12.5 19.503,12.938 20.379,13.814C21.254,14.689 21.692,15.751 21.692,17C21.692,18.249 21.254,19.311 20.379,20.187C19.503,21.062 18.441,21.5 17.192,21.5ZM18.858,19.289L19.481,18.666L17.635,16.819L17.635,14.058L16.75,14.058L16.75,17.181L18.858,19.289Z" style="fill:rgb(7,154,243);fill-rule:nonzero;"/>
    <path d="M5.308,20.5C4.809,20.5 4.383,20.323 4.03,19.97C3.677,19.617 3.5,19.191 3.5,18.692L3.5,5.308C3.5,4.809 3.677,4.383 4.03,4.03C4.383,3.677 4.809,3.5 5.308,3.5L9.714,3.5C9.852,3.013 10.135,2.609 10.563,2.288C10.99,1.968 11.469,1.808 12,1.808C12.551,1.808 13.038,1.968 13.461,2.288C13.883,2.609 14.163,3.013 14.302,3.5L18.692,3.5C19.191,3.5 19.617,3.677 19.97,4.03C20.323,4.383 20.5,4.809 20.5,5.308L20.5,11.442C20.264,11.29 20.024,11.159 19.781,11.051C19.537,10.943 19.277,10.846 19,10.761L19,5.308C19,5.231 18.968,5.16 18.904,5.096C18.84,5.032 18.769,5 18.692,5L16.5,5L16.5,7.615L7.5,7.615L7.5,5L5.308,5C5.231,5 5.16,5.032 5.096,5.096C5.032,5.16 5,5.231 5,5.308L5,18.692C5,18.782 5.029,18.856 5.087,18.914C5.144,18.971 5.218,19 5.308,19L11.021,19C11.106,19.277 11.204,19.539 11.316,19.786C11.427,20.032 11.565,20.271 11.731,20.5L5.308,20.5ZM12,5.116C12.258,5.116 12.473,5.029 12.645,4.857C12.818,4.684 12.904,4.469 12.904,4.212C12.904,3.954 12.818,3.739 12.645,3.566C12.473,3.394 12.258,3.308 12,3.308C11.742,3.308 11.527,3.394 11.355,3.566C11.182,3.739 11.096,3.954 11.096,4.212C11.096,4.469 11.182,4.684 11.355,4.857C11.527,5.029 11.742,5.116 12,5.116Z" style="fill:rgb(102,102,102);fill-rule:nonzero;"/>
</svg>
