<?xml version="1.0" encoding="UTF-8" standalone="no"?>
<!DOCTYPE svg PUBLIC "-//W3C//DTD SVG 1.1//EN" "http://www.w3.org/Graphics/SVG/1.1/DTD/svg11.dtd">
<svg width="100%" height="100%" viewBox="0 0 1024 1024" version="1.1" xmlns="http://www.w3.org/2000/svg" xmlns:xlink="http://www.w3.org/1999/xlink" xml:space="preserve" xmlns:serif="http://www.serif.com/" style="fill-rule:evenodd;clip-rule:evenodd;stroke-linejoin:round;stroke-miterlimit:2;">
    <g transform="matrix(42.666667,0,0,42.666667,-2.428,50.5)">
        <path d="M2.721,13.64L1.5,12.764L6.125,5.35L9.067,8.792L12.971,2.436L15.913,6.86L19.279,1.5L20.481,2.386L15.944,9.612L13.027,5.214L9.275,11.321L6.317,7.863L2.721,13.64Z" style="fill:rgb(95,99,104);fill-rule:nonzero;"/>
    </g>
    <g transform="matrix(42.666667,0,0,42.666667,34.5,3.041667)">
        <path d="M19.437,21.5L16.679,18.742C16.342,18.988 15.972,19.176 15.57,19.306C15.168,19.435 14.747,19.5 14.308,19.5C13.146,19.5 12.158,19.094 11.345,18.281C10.532,17.468 10.125,16.48 10.125,15.319C10.125,14.158 10.532,13.17 11.345,12.356C12.157,11.542 13.145,11.135 14.306,11.135C15.467,11.135 16.455,11.541 17.269,12.355C18.083,13.168 18.49,14.155 18.49,15.317C18.49,15.757 18.426,16.18 18.296,16.584C18.167,16.99 17.979,17.361 17.733,17.698L20.481,20.456L19.437,21.5ZM14.308,18C15.059,18 15.694,17.741 16.213,17.222C16.731,16.703 16.991,16.068 16.991,15.317C16.991,14.566 16.731,13.931 16.212,13.413C15.694,12.894 15.059,12.634 14.307,12.634C13.556,12.634 12.921,12.894 12.403,13.413C11.884,13.931 11.625,14.566 11.625,15.317C11.625,16.069 11.884,16.703 12.403,17.222C12.922,17.741 13.557,18 14.308,18Z" style="fill:rgb(6,154,243);fill-rule:nonzero;"/>
    </g>
</svg>
