<?xml version="1.0" encoding="UTF-8" standalone="no"?>
<!DOCTYPE svg PUBLIC "-//W3C//DTD SVG 1.1//EN" "http://www.w3.org/Graphics/SVG/1.1/DTD/svg11.dtd">
<svg width="100%" height="100%" viewBox="0 0 24 24" version="1.1" xmlns="http://www.w3.org/2000/svg" xmlns:xlink="http://www.w3.org/1999/xlink" xml:space="preserve" xmlns:serif="http://www.serif.com/" style="fill-rule:evenodd;clip-rule:evenodd;stroke-linejoin:round;stroke-miterlimit:2;">
    <path d="M10.75,22.51L9.706,21.44L11.781,19.365L7.767,19.365C7.602,19.872 7.304,20.29 6.872,20.62C6.441,20.95 5.945,21.115 5.385,21.115C4.69,21.115 4.1,20.872 3.614,20.386C3.128,19.9 2.885,19.31 2.885,18.615C2.885,18.055 3.05,17.559 3.38,17.128C3.71,16.696 4.128,16.398 4.635,16.233L4.635,7.767C4.128,7.602 3.71,7.304 3.38,6.872C3.05,6.441 2.885,5.945 2.885,5.385C2.885,4.69 3.128,4.1 3.614,3.614C4.1,3.128 4.69,2.885 5.385,2.885C5.945,2.885 6.441,3.05 6.872,3.38C7.304,3.71 7.602,4.128 7.767,4.635L11.781,4.635L9.696,2.56L10.75,1.49L14.644,5.385L10.75,9.279L9.696,8.21L11.781,6.135L7.767,6.135C7.643,6.53 7.438,6.869 7.154,7.154C6.869,7.438 6.53,7.643 6.135,7.767L6.135,16.233C6.53,16.357 6.869,16.562 7.154,16.846C7.438,17.131 7.643,17.47 7.767,17.865L11.771,17.865L9.706,15.79L10.75,14.721L14.644,18.615L10.75,22.51ZM5.385,19.615C5.668,19.615 5.906,19.519 6.097,19.328C6.289,19.136 6.385,18.899 6.385,18.615C6.385,18.332 6.289,18.094 6.097,17.903C5.906,17.711 5.668,17.615 5.385,17.615C5.101,17.615 4.864,17.711 4.672,17.903C4.481,18.094 4.385,18.332 4.385,18.615C4.385,18.899 4.481,19.136 4.672,19.328C4.864,19.519 5.101,19.615 5.385,19.615ZM5.385,6.385C5.668,6.385 5.906,6.289 6.097,6.097C6.289,5.906 6.385,5.668 6.385,5.385C6.385,5.101 6.289,4.864 6.097,4.672C5.906,4.481 5.668,4.385 5.385,4.385C5.101,4.385 4.864,4.481 4.672,4.672C4.481,4.864 4.385,5.101 4.385,5.385C4.385,5.668 4.481,5.906 4.672,6.097C4.864,6.289 5.101,6.385 5.385,6.385Z" style="fill:rgb(102,102,102);fill-rule:nonzero;"/>
    <path d="M18.617,21.115C17.924,21.115 17.333,20.872 16.846,20.386C16.359,19.9 16.116,19.31 16.116,18.615C16.116,18.048 16.281,17.548 16.61,17.115C16.941,16.682 17.359,16.388 17.865,16.233L17.865,7.767C17.359,7.612 16.941,7.318 16.61,6.885C16.281,6.452 16.115,5.952 16.115,5.385C16.115,4.69 16.358,4.1 16.844,3.614C17.33,3.128 17.919,2.885 18.613,2.885C19.307,2.885 19.897,3.128 20.385,3.614C20.872,4.1 21.115,4.69 21.115,5.385C21.115,5.952 20.95,6.452 20.62,6.885C20.29,7.318 19.872,7.612 19.365,7.767L19.365,16.233C19.872,16.398 20.29,16.696 20.62,17.128C20.95,17.559 21.115,18.055 21.115,18.615C21.115,19.31 20.872,19.9 20.387,20.386C19.901,20.872 19.311,21.115 18.617,21.115ZM18.615,19.615C18.899,19.615 19.136,19.519 19.328,19.328C19.519,19.136 19.615,18.899 19.615,18.615C19.615,18.332 19.519,18.094 19.328,17.903C19.136,17.711 18.899,17.615 18.615,17.615C18.332,17.615 18.094,17.711 17.903,17.903C17.711,18.094 17.615,18.332 17.615,18.615C17.615,18.899 17.711,19.136 17.903,19.328C18.094,19.519 18.332,19.615 18.615,19.615ZM18.615,6.385C18.899,6.385 19.136,6.289 19.328,6.097C19.519,5.906 19.615,5.668 19.615,5.385C19.615,5.101 19.519,4.864 19.328,4.672C19.136,4.481 18.899,4.385 18.615,4.385C18.332,4.385 18.094,4.481 17.903,4.672C17.711,4.864 17.615,5.101 17.615,5.385C17.615,5.668 17.711,5.906 17.903,6.097C18.094,6.289 18.332,6.385 18.615,6.385Z" style="fill:rgb(7,154,243);fill-rule:nonzero;"/>
</svg>
