<?xml version="1.0" encoding="UTF-8" standalone="no"?>
<!DOCTYPE svg PUBLIC "-//W3C//DTD SVG 1.1//EN" "http://www.w3.org/Graphics/SVG/1.1/DTD/svg11.dtd">
<svg width="100%" height="100%" viewBox="0 0 1024 1024" version="1.1" xmlns="http://www.w3.org/2000/svg" xmlns:xlink="http://www.w3.org/1999/xlink" xml:space="preserve" xmlns:serif="http://www.serif.com/" style="fill-rule:evenodd;clip-rule:evenodd;stroke-linejoin:round;stroke-miterlimit:2;">
    <path d="M226.464,874.667C204.91,874.667 186.667,867.2 171.733,852.267C156.8,837.333 149.333,819.09 149.333,797.536L149.333,653.131C149.333,631.577 156.8,613.333 171.733,598.4C186.667,583.467 204.91,576 226.464,576L650.667,576L650.667,405.333L714.667,405.333L714.667,576L797.536,576C819.09,576 837.333,583.467 852.267,598.4C867.2,613.333 874.667,631.577 874.667,653.131L874.667,797.536C874.667,819.09 867.2,837.333 852.267,852.267C837.333,867.2 819.09,874.667 797.536,874.667L226.464,874.667ZM226.464,810.667L797.536,810.667C801.369,810.667 804.516,809.436 806.976,806.976C809.436,804.516 810.667,801.369 810.667,797.536L810.667,653.131C810.667,649.298 809.436,646.151 806.976,643.691C804.516,641.23 801.369,640 797.536,640L226.464,640C222.631,640 219.484,641.23 217.024,643.691C214.564,646.151 213.333,649.298 213.333,653.131L213.333,797.536C213.333,801.369 214.564,804.516 217.024,806.976C219.484,809.436 222.631,810.667 226.464,810.667Z" style="fill:rgb(95,99,104);"/>
    <path d="M325.579,752.245C318.361,759.463 309.39,763.072 298.667,763.072C287.943,763.072 278.972,759.463 271.755,752.245C264.537,745.028 260.928,736.057 260.928,725.333C260.928,714.61 264.537,705.639 271.755,698.421C278.972,691.204 287.943,687.595 298.667,687.595C309.39,687.595 318.361,691.204 325.579,698.421C332.796,705.639 336.405,714.61 336.405,725.333C336.405,736.057 332.796,745.028 325.579,752.245ZM474.912,752.245C467.694,759.463 458.724,763.072 448,763.072C437.276,763.072 428.306,759.463 421.088,752.245C413.87,745.028 410.261,736.057 410.261,725.333C410.261,714.61 413.87,705.639 421.088,698.421C428.306,691.204 437.276,687.595 448,687.595C458.724,687.595 467.694,691.204 474.912,698.421C482.13,705.639 485.739,714.61 485.739,725.333C485.739,736.057 482.13,745.028 474.912,752.245ZM624.245,752.245C617.028,759.463 608.057,763.072 597.333,763.072C586.61,763.072 577.639,759.463 570.421,752.245C563.204,745.028 559.595,736.057 559.595,725.333C559.595,714.61 563.204,705.639 570.421,698.421C577.639,691.204 586.61,687.595 597.333,687.595C608.057,687.595 617.028,691.204 624.245,698.421C631.463,705.639 635.072,714.61 635.072,725.333C635.072,736.057 631.463,745.028 624.245,752.245ZM600.619,355.285L554.336,309.003C572.825,291.936 592.629,278.837 613.749,269.707C634.862,260.569 657.835,256 682.667,256C707.499,256 730.471,260.569 751.584,269.707C772.704,278.837 792.508,291.936 810.997,309.003L764.715,355.285C753.671,344.235 741.38,335.591 727.84,329.355C714.3,323.118 699.243,320 682.667,320C666.091,320 651.033,323.118 637.493,329.355C623.954,335.591 611.662,344.235 600.619,355.285ZM493.952,248.619L448.981,203.648C479.452,173.184 514.556,149.404 554.293,132.309C594.037,115.214 636.828,106.667 682.667,106.667C728.505,106.667 771.296,115.214 811.04,132.309C850.777,149.404 885.881,173.184 916.352,203.648L871.381,248.619C847.915,225.152 820.171,206.293 788.149,192.043C756.121,177.792 720.96,170.667 682.667,170.667C644.373,170.667 609.212,177.792 577.184,192.043C545.163,206.293 517.419,225.152 493.952,248.619Z" style="fill:rgb(11,154,244);"/>
</svg>
