<?xml version="1.0" encoding="UTF-8" standalone="no"?>
<!DOCTYPE svg PUBLIC "-//W3C//DTD SVG 1.1//EN" "http://www.w3.org/Graphics/SVG/1.1/DTD/svg11.dtd">
<svg width="100%" height="100%" viewBox="0 0 1024 1024" version="1.1" xmlns="http://www.w3.org/2000/svg" xmlns:xlink="http://www.w3.org/1999/xlink" xml:space="preserve" xmlns:serif="http://www.serif.com/" style="fill-rule:evenodd;clip-rule:evenodd;stroke-linejoin:round;stroke-miterlimit:2;">
    <path d="M874.667,307.691L874.667,797.536C874.667,819.09 867.2,837.333 852.267,852.267C837.333,867.2 819.09,874.667 797.536,874.667L226.464,874.667C204.91,874.667 186.667,867.2 171.733,852.267C156.8,837.333 149.333,819.09 149.333,797.536L149.333,226.464C149.333,204.91 156.8,186.667 171.733,171.733C186.667,156.8 204.91,149.333 226.464,149.333L716.309,149.333L874.667,307.691ZM810.667,334.933L689.067,213.333L226.464,213.333C222.631,213.333 219.484,214.564 217.024,217.024C214.564,219.484 213.333,222.631 213.333,226.464L213.333,797.536C213.333,801.369 214.564,804.516 217.024,806.976C219.484,809.436 222.631,810.667 226.464,810.667L797.536,810.667C801.369,810.667 804.516,809.436 806.976,806.976C809.436,804.516 810.667,801.369 810.667,797.536L810.667,334.933Z" style="fill:rgb(102,102,102);"/>
    <path d="M512,736.821C482.46,736.821 457.298,726.428 436.512,705.643C415.726,684.857 405.333,659.694 405.333,630.155C405.333,600.615 415.726,575.452 436.512,554.667C457.298,533.881 482.46,523.488 512,523.488C541.54,523.488 566.702,533.881 587.488,554.667C608.274,575.452 618.667,600.615 618.667,630.155C618.667,659.694 608.274,684.857 587.488,705.643C566.702,726.428 541.54,736.821 512,736.821ZM272.416,421.739L272.416,272.416L622.763,272.416L622.763,421.739L272.416,421.739Z" style="fill:rgb(69,152,236);"/>
</svg>
