<?xml version="1.0" encoding="UTF-8" standalone="no"?>
<!DOCTYPE svg PUBLIC "-//W3C//DTD SVG 1.1//EN" "http://www.w3.org/Graphics/SVG/1.1/DTD/svg11.dtd">
<svg width="100%" height="100%" viewBox="0 0 1024 1024" version="1.1" xmlns="http://www.w3.org/2000/svg" xmlns:xlink="http://www.w3.org/1999/xlink" xml:space="preserve" xmlns:serif="http://www.serif.com/" style="fill-rule:evenodd;clip-rule:evenodd;stroke-linejoin:round;stroke-miterlimit:2;">
    <g transform="matrix(42.666667,0,0,42.666667,0,0)">
        <path d="M19.98,5.08C19.63,4.73 19.2,4.56 18.69,4.56L17.31,4.56L17.31,3.19C17.31,2.98 17.24,2.8 17.09,2.66C16.95,2.52 16.77,2.44 16.56,2.44C16.34,2.44 16.17,2.52 16.02,2.66C15.88,2.8 15.81,2.98 15.81,3.19L15.81,4.56L8.23,4.56L8.23,3.21C8.23,2.99 8.16,2.81 8.01,2.66C7.86,2.52 7.68,2.44 7.46,2.44C7.24,2.44 7.06,2.52 6.91,2.66C6.77,2.81 6.69,2.99 6.69,3.21L6.69,4.56L5.31,4.56C4.8,4.56 4.38,4.73 4.03,5.08C3.68,5.43 3.5,5.86 3.5,6.37L3.5,19.75C3.5,20.26 3.68,20.68 4.03,21.03C4.38,21.38 4.8,21.56 5.31,21.56L18.69,21.56C19.2,21.56 19.63,21.38 19.98,21.03C20.33,20.68 20.5,20.26 20.5,19.75L20.5,6.37C20.5,5.86 20.33,5.43 19.98,5.08ZM19,19.75C19,19.83 18.97,19.9 18.9,19.96C18.84,20.03 18.77,20.06 18.69,20.06L5.31,20.06C5.23,20.06 5.16,20.03 5.1,19.96C5.03,19.9 5,19.83 5,19.75L5,10.37L19,10.37L19,19.75ZM19,8.87L5,8.87L5,6.37C5,6.29 5.03,6.22 5.1,6.16C5.16,6.09 5.23,6.06 5.31,6.06L18.69,6.06C18.77,6.06 18.84,6.09 18.9,6.16C18.97,6.22 19,6.29 19,6.37L19,8.87Z" style="fill:rgb(95,99,104);fill-rule:nonzero;"/>
    </g>
    <g transform="matrix(42.666667,0,0,42.666667,0,0)">
        <path d="M16.75,13.06C16.75,13.27 16.68,13.45 16.53,13.59C16.39,13.74 16.21,13.81 16,13.81L8,13.81C7.79,13.81 7.61,13.74 7.47,13.59C7.32,13.45 7.25,13.27 7.25,13.06C7.25,12.85 7.32,12.67 7.47,12.53C7.61,12.38 7.79,12.31 8,12.31L16,12.31C16.21,12.31 16.39,12.38 16.53,12.53C16.68,12.67 16.75,12.85 16.75,13.06ZM13.75,17.06C13.75,17.27 13.68,17.45 13.53,17.59C13.39,17.74 13.21,17.81 13,17.81L8,17.81C7.79,17.81 7.61,17.74 7.47,17.59C7.32,17.45 7.25,17.27 7.25,17.06C7.25,16.85 7.32,16.67 7.47,16.53C7.61,16.38 7.79,16.31 8,16.31L13,16.31C13.21,16.31 13.39,16.38 13.53,16.53C13.68,16.67 13.75,16.85 13.75,17.06Z" style="fill:rgb(6,154,243);"/>
    </g>
</svg>
