<?xml version="1.0" encoding="UTF-8" standalone="no"?>
<!DOCTYPE svg PUBLIC "-//W3C//DTD SVG 1.1//EN" "http://www.w3.org/Graphics/SVG/1.1/DTD/svg11.dtd">
<svg width="100%" height="100%" viewBox="0 0 1024 1024" version="1.1" xmlns="http://www.w3.org/2000/svg"
     xml:space="preserve"
     style="fill-rule:evenodd;clip-rule:evenodd;stroke-linejoin:round;stroke-miterlimit:2;">
    <g transform="matrix(42.6667,0,0,42.6667,0,0)">
        <path d="M20.456,21.5L14.762,15.806C14.11,16.339 13.38,16.755 12.572,17.053C11.763,17.351 10.906,17.5 10,17.5C7.906,17.5 6.133,16.774 4.68,15.321C3.227,13.868 2.5,12.095 2.5,10.001C2.5,7.908 3.226,6.135 4.679,4.681C6.132,3.227 7.905,2.5 9.999,2.5C12.092,2.5 13.865,3.227 15.319,4.68C16.773,6.133 17.5,7.906 17.5,10C17.5,10.906 17.351,11.763 17.053,12.572C16.755,13.38 16.339,14.107 15.806,14.752L21.5,20.446L20.456,21.5ZM10,16.019C11.667,16.019 13.083,15.435 14.25,14.266C15.417,13.098 16,11.679 16,10.009C16,8.34 15.417,6.921 14.25,5.753C13.083,4.584 11.667,4 10,4C8.333,4 6.917,4.584 5.75,5.753C4.583,6.921 4,8.34 4,10.009C4,11.679 4.583,13.098 5.75,14.266C6.917,15.435 8.333,16.019 10,16.019Z"
              style="fill:rgb(102,102,102);fill-rule:nonzero;"/>
    </g>
    <g transform="matrix(42.6667,0,0,42.6667,0,0)">
        <path d="M12.673,12.798L12.673,9.25L14.173,9.25L14.173,12.798L12.673,12.798ZM5.827,12.798L5.827,8.269L7.327,8.269L7.327,12.798L5.827,12.798ZM9.25,12.798L9.25,6.317L10.75,6.317L10.75,12.798L9.25,12.798Z"
              style="fill:rgb(6,154,243);fill-rule:nonzero;"/>
    </g>
</svg>
