<?xml version="1.0" encoding="UTF-8" standalone="no"?>
<svg
   height="24px"
   viewBox="0 -960 960 960"
   width="24px"
   fill="#666666"
   version="1.1"
   id="svg1"
   sodipodi:docname="share.svg"
   inkscape:version="1.4 (e7c3feb1, 2024-10-09)"
   xmlns:inkscape="http://www.inkscape.org/namespaces/inkscape"
   xmlns:sodipodi="http://sodipodi.sourceforge.net/DTD/sodipodi-0.dtd"
   xmlns="http://www.w3.org/2000/svg"
   xmlns:svg="http://www.w3.org/2000/svg">
  <defs
     id="defs1" />
  <sodipodi:namedview
     id="namedview1"
     pagecolor="#ffffff"
     bordercolor="#000000"
     borderopacity="0.25"
     inkscape:showpageshadow="2"
     inkscape:pageopacity="0.0"
     inkscape:pagecheckerboard="0"
     inkscape:deskcolor="#d1d1d1"
     inkscape:zoom="42.041667"
     inkscape:cx="11.988107"
     inkscape:cy="12"
     inkscape:window-width="2144"
     inkscape:window-height="1270"
     inkscape:window-x="850"
     inkscape:window-y="25"
     inkscape:window-maximized="0"
     inkscape:current-layer="svg1" />
  <ellipse
     style="fill:#069af3;stroke-width:30.9969"
     id="path2"
     cx="208.36473"
     cy="-481.42719"
     rx="78.017838"
     ry="82.775032" />
  <ellipse
     style="fill:#069af3;stroke-width:32.069"
     id="path2-0"
     cx="673.73639"
     cy="-756.94751"
     rx="78.969276"
     ry="87.532211" />
  <ellipse
     style="fill:#069af3;stroke-width:32.069"
     id="path2-0-9"
     cx="676.11499"
     cy="-213.95439"
     rx="78.969276"
     ry="87.532211" />
  <path
     d="M672.22-100q-44.91 0-76.26-31.41-31.34-31.41-31.34-76.28 0-6 4.15-29.16L284.31-404.31q-14.46 15-34.36 23.5t-42.64 8.5q-44.71 0-76.01-31.54Q100-435.39 100-480q0-44.61 31.3-76.15 31.3-31.54 76.01-31.54 22.74 0 42.64 8.5 19.9 8.5 34.36 23.5l284.46-167.08q-2.38-7.38-3.27-14.46-.88-7.08-.88-15.08 0-44.87 31.43-76.28Q627.49-860 672.4-860t76.25 31.44Q780-797.13 780-752.22q0 44.91-31.41 76.26-31.41 31.34-76.28 31.34-22.85 0-42.5-8.69Q610.15-662 595.69-677L311.23-509.54q2.38 7.39 3.27 14.46.88 7.08.88 15.08t-.88 15.08q-.89 7.07-3.27 14.46L595.69-283q14.46-15 34.12-23.69 19.65-8.69 42.5-8.69 44.87 0 76.28 31.43Q780-252.51 780-207.6t-31.44 76.25Q717.13-100 672.22-100Zm.09-60q20.27 0 33.98-13.71Q720-187.42 720-207.69q0-20.27-13.71-33.98-13.71-13.72-33.98-13.72-20.27 0-33.98 13.72-13.72 13.71-13.72 33.98 0 20.27 13.72 33.98Q652.04-160 672.31-160Zm-465-272.31q20.43 0 34.25-13.71 13.83-13.71 13.83-33.98 0-20.27-13.83-33.98-13.82-13.71-34.25-13.71-20.11 0-33.71 13.71Q160-500.27 160-480q0 20.27 13.6 33.98 13.6 13.71 33.71 13.71Zm465-272.3q20.27 0 33.98-13.72Q720-732.04 720-752.31q0-20.27-13.71-33.98Q692.58-800 672.31-800q-20.27 0-33.98 13.71-13.72 13.71-13.72 33.98 0 20.27 13.72 33.98 13.71 13.72 33.98 13.72Zm0 496.92ZM207.69-480Zm464.62-272.31Z"
     id="path1" />
</svg>
