<?xml version="1.0" encoding="UTF-8" standalone="no"?>
<!DOCTYPE svg PUBLIC "-//W3C//DTD SVG 1.1//EN" "http://www.w3.org/Graphics/SVG/1.1/DTD/svg11.dtd">
<svg width="100%" height="100%" viewBox="0 0 1024 1024" version="1.1" xmlns="http://www.w3.org/2000/svg" xmlns:xlink="http://www.w3.org/1999/xlink" xml:space="preserve" xmlns:serif="http://www.serif.com/" style="fill-rule:evenodd;clip-rule:evenodd;stroke-linejoin:round;stroke-miterlimit:2;">
    <path d="M192,618.667C162.19,618.667 136.96,608.341 116.309,587.691C95.659,567.04 85.333,541.81 85.333,512C85.333,482.19 95.659,456.96 116.309,436.309C136.96,415.659 162.19,405.333 192,405.333L192,311.797C192,290.585 199.552,272.427 214.656,257.323C229.76,242.219 247.918,234.667 269.131,234.667L405.333,234.667C405.333,204.857 415.659,179.627 436.309,158.976C456.96,138.325 482.19,128 512,128C541.81,128 567.04,138.325 587.691,158.976C608.341,179.627 618.667,204.857 618.667,234.667L754.869,234.667C776.082,234.667 794.24,242.219 809.344,257.323C824.448,272.427 832,290.585 832,311.797L832,405.333C861.81,405.333 887.04,415.659 907.691,436.309C928.341,456.96 938.667,482.19 938.667,512C938.667,541.81 928.341,567.04 907.691,587.691C887.04,608.341 861.81,618.667 832,618.667L832,797.536C832,818.748 824.448,836.907 809.344,852.011C794.24,867.115 776.082,874.667 754.869,874.667L269.131,874.667C247.918,874.667 229.76,867.115 214.656,852.011C199.552,836.907 192,818.748 192,797.536L192,618.667ZM269.131,810.667L754.869,810.667C758.702,810.667 761.849,809.436 764.309,806.976C766.77,804.516 768,801.369 768,797.536L768,311.797C768,307.964 766.77,304.818 764.309,302.357C761.849,299.897 758.702,298.667 754.869,298.667L269.131,298.667C265.298,298.667 262.151,299.897 259.691,302.357C257.23,304.818 256,307.964 256,311.797L256,797.536C256,801.369 257.23,804.516 259.691,806.976C262.151,809.436 265.298,810.667 269.131,810.667Z" style="fill:rgb(102,102,102);"/>
    <path d="M383.947,544C369.148,544 356.569,538.802 346.208,528.405C335.847,518.016 330.667,505.419 330.667,490.613C330.667,475.815 335.865,463.236 346.261,452.875C356.651,442.514 369.248,437.333 384.053,437.333C398.852,437.333 411.431,442.532 421.792,452.928C432.153,463.317 437.333,475.915 437.333,490.72C437.333,505.518 432.135,518.098 421.739,528.459C411.349,538.82 398.752,544 383.947,544ZM639.947,544C625.148,544 612.569,538.802 602.208,528.405C591.847,518.016 586.667,505.419 586.667,490.613C586.667,475.815 591.865,463.236 602.261,452.875C612.651,442.514 625.248,437.333 640.053,437.333C654.852,437.333 667.431,442.532 677.792,452.928C688.153,463.317 693.333,475.915 693.333,490.72C693.333,505.518 688.135,518.098 677.739,528.459C667.349,538.82 654.752,544 639.947,544ZM352,714.667L352,650.667L672,650.667L672,714.667L352,714.667Z" style="fill:rgb(8,154,243);"/>
</svg>
