<?xml version="1.0" encoding="UTF-8" standalone="no"?>
<!DOCTYPE svg PUBLIC "-//W3C//DTD SVG 1.1//EN" "http://www.w3.org/Graphics/SVG/1.1/DTD/svg11.dtd">
<svg width="100%" height="100%" viewBox="0 0 1024 1024" version="1.1" xmlns="http://www.w3.org/2000/svg" xmlns:xlink="http://www.w3.org/1999/xlink" xml:space="preserve" xmlns:serif="http://www.serif.com/" style="fill-rule:evenodd;clip-rule:evenodd;stroke-linejoin:round;stroke-miterlimit:2;">
    <path d="M266.667,757.333L434.133,757.333L434.133,615.467L544,615.467L544,473.6L653.867,473.6L653.867,330.667L757.333,330.667L757.333,266.667L589.867,266.667L589.867,408.533L480,408.533L480,550.4L370.133,550.4L370.133,693.333L266.667,693.333L266.667,757.333Z" style="fill:rgb(6,154,243);fill-rule:nonzero;"/>
    <path d="M226.464,874.667C204.91,874.667 186.667,867.2 171.733,852.267C156.8,837.333 149.333,819.09 149.333,797.536L149.333,226.464C149.333,204.91 156.8,186.667 171.733,171.733C186.667,156.8 204.91,149.333 226.464,149.333L797.536,149.333C819.09,149.333 837.333,156.8 852.267,171.733C867.2,186.667 874.667,204.91 874.667,226.464L874.667,797.536C874.667,819.09 867.2,837.333 852.267,852.267C837.333,867.2 819.09,874.667 797.536,874.667L226.464,874.667ZM226.464,810.667L797.536,810.667C800.821,810.667 803.829,809.298 806.56,806.56C809.298,803.829 810.667,800.821 810.667,797.536L810.667,226.464C810.667,223.179 809.298,220.171 806.56,217.44C803.829,214.702 800.821,213.333 797.536,213.333L226.464,213.333C223.179,213.333 220.171,214.702 217.44,217.44C214.702,220.171 213.333,223.179 213.333,226.464L213.333,797.536C213.333,800.821 214.702,803.829 217.44,806.56C220.171,809.298 223.179,810.667 226.464,810.667Z" style="fill:rgb(102,102,102);"/>
</svg>
