<?xml version="1.0" encoding="UTF-8" standalone="no"?>
<!DOCTYPE svg PUBLIC "-//W3C//DTD SVG 1.1//EN" "http://www.w3.org/Graphics/SVG/1.1/DTD/svg11.dtd">
<svg width="100%" height="100%" viewBox="0 0 24 24" version="1.1" xmlns="http://www.w3.org/2000/svg" xmlns:xlink="http://www.w3.org/1999/xlink" xml:space="preserve" xmlns:serif="http://www.serif.com/" style="fill-rule:evenodd;clip-rule:evenodd;stroke-linejoin:round;stroke-miterlimit:2;">
    <path d="M4.308,19.5C3.803,19.5 3.375,19.325 3.025,18.975C2.675,18.625 2.5,18.197 2.5,17.692L2.5,6.308C2.5,5.803 2.675,5.375 3.025,5.025C3.375,4.675 3.803,4.5 4.308,4.5L19.692,4.5C20.197,4.5 20.625,4.675 20.975,5.025C21.325,5.375 21.5,5.803 21.5,6.308L21.5,17.692C21.5,18.197 21.325,18.625 20.975,18.975C20.625,19.325 20.197,19.5 19.692,19.5L4.308,19.5ZM4.308,18L19.692,18C19.769,18 19.84,17.968 19.904,17.904C19.968,17.84 20,17.769 20,17.692L20,8L4,8L4,17.692C4,17.769 4.032,17.84 4.096,17.904C4.16,17.968 4.231,18 4.308,18Z" style="fill:rgb(102,102,102);fill-rule:nonzero;"/>
    <path d="M12.25,16.75L12.25,15.25L17.75,15.25L17.75,16.75L12.25,16.75ZM7.5,16.644L6.456,15.6L9.031,13L6.431,10.4L7.5,9.356L11.144,13L7.5,16.644Z" style="fill:rgb(6,154,243);fill-rule:nonzero;"/>
</svg>
