<?xml version="1.0" encoding="UTF-8" standalone="no"?>
<!DOCTYPE svg PUBLIC "-//W3C//DTD SVG 1.1//EN" "http://www.w3.org/Graphics/SVG/1.1/DTD/svg11.dtd">
<svg width="100%" height="100%" viewBox="0 0 1024 1024" version="1.1" xmlns="http://www.w3.org/2000/svg" xmlns:xlink="http://www.w3.org/1999/xlink" xml:space="preserve" xmlns:serif="http://www.serif.com/" style="fill-rule:evenodd;clip-rule:evenodd;stroke-linejoin:round;stroke-miterlimit:2;">
    <path d="M823.893,238.933C771.84,237.227 720.213,277.333 704,341.333C682.667,426.667 682.667,426.667 640,469.333C554.667,554.667 426.667,597.333 170.667,640C128,646.827 106.667,661.333 85.333,682.667C170.667,682.667 256,682.667 192,746.667L128,810.667L256,810.667L341.333,725.333C426.667,768 483.413,768 568.747,725.333L597.333,810.667L725.333,810.667L682.667,682.667C682.667,682.667 725.333,512 768,469.333C810.667,426.667 810.667,469.333 853.333,469.333C896,469.333 938.667,426.667 938.667,362.667C938.667,341.333 938.667,298.667 874.667,256C859.733,245.76 842.24,239.787 823.893,238.933" style="fill:rgb(102,102,102);fill-rule:nonzero;"/>
    <path d="M384,256C243.563,256 128,371.563 128,512C128,537.6 133.547,558.08 137.813,580.267C390.4,538.453 524.373,494.507 594.347,424.107L615.68,402.773C573.44,313.173 482.987,256 384,256Z" style="fill:rgb(69,152,236);fill-rule:nonzero;"/>
</svg>
