<?xml version="1.0" encoding="UTF-8" standalone="no"?>
<!DOCTYPE svg PUBLIC "-//W3C//DTD SVG 1.1//EN" "http://www.w3.org/Graphics/SVG/1.1/DTD/svg11.dtd">
<svg width="100%" height="100%" viewBox="0 0 24 24" version="1.1" xmlns="http://www.w3.org/2000/svg" xmlns:xlink="http://www.w3.org/1999/xlink" xml:space="preserve" xmlns:serif="http://www.serif.com/" style="fill-rule:evenodd;clip-rule:evenodd;stroke-linejoin:round;stroke-miterlimit:2;">
    <path d="M7.385,14.115L7.385,8.885L12.615,8.885L12.615,14.115L7.385,14.115ZM8.885,12.615L11.116,12.615L11.116,10.385L8.885,10.385L8.885,12.615Z" style="fill:rgb(6,154,243);fill-rule:nonzero;"/>
    <path d="M14.385,14.115L14.385,8.885L19.615,8.885L19.615,14.115L14.385,14.115ZM15.885,12.615L18.116,12.615L18.116,10.385L15.885,10.385L15.885,12.615Z" style="fill:rgb(6,154,243);fill-rule:nonzero;"/>
    <path d="M19.259,21.442C18.78,21.442 18.374,21.274 18.04,20.937C17.706,20.599 17.539,20.191 17.539,19.712C17.539,19.232 17.706,18.824 18.04,18.487C18.374,18.149 18.78,17.981 19.259,17.981C19.738,17.981 20.148,18.149 20.489,18.487C20.83,18.824 21,19.232 21,19.712C21,20.191 20.83,20.599 20.489,20.937C20.148,21.274 19.738,21.442 19.259,21.442ZM6.221,21.442C5.742,21.442 5.333,21.274 4.996,20.937C4.659,20.599 4.491,20.191 4.491,19.712C4.491,19.232 4.659,18.824 4.996,18.487C5.333,18.149 5.742,17.981 6.221,17.981C6.701,17.981 7.109,18.149 7.446,18.487C7.783,18.824 7.952,19.232 7.952,19.712C7.952,20.191 7.783,20.599 7.446,20.937C7.109,21.274 6.701,21.442 6.221,21.442ZM4.5,17L4.5,5L2.25,5L2.25,3.5L6,3.5L6,15.5L21,15.5L21,17L4.5,17Z" style="fill:rgb(102,102,102);fill-rule:nonzero;"/>
</svg>
