<?xml version="1.0" encoding="UTF-8" standalone="no"?>
<!DOCTYPE svg PUBLIC "-//W3C//DTD SVG 1.1//EN" "http://www.w3.org/Graphics/SVG/1.1/DTD/svg11.dtd">
<svg width="100%" height="100%" viewBox="0 0 24 24" version="1.1" xmlns="http://www.w3.org/2000/svg" xmlns:xlink="http://www.w3.org/1999/xlink" xml:space="preserve" xmlns:serif="http://www.serif.com/" style="fill-rule:evenodd;clip-rule:evenodd;stroke-linejoin:round;stroke-miterlimit:2;">
    <path d="M2.5,20.5L2.5,7.337L12,3.538L21.5,7.337L21.5,20.5L16,20.5L16,12.5L8,12.5L8,20.5L2.5,20.5ZM4,19L6.5,19L6.5,11L17.5,11L17.5,19L20,19L20,8.35L12,5.15L4,8.35L4,19Z" style="fill:rgb(102,102,102);fill-rule:nonzero;"/>
    <path d="M9.279,20.5L9.279,18.731L11.048,18.731L11.048,20.5L9.279,20.5ZM12.952,20.5L12.952,18.731L14.721,18.731L14.721,20.5L12.952,20.5ZM11.116,17.5L11.116,15.731L12.885,15.731L12.885,17.5L11.116,17.5Z" style="fill:rgb(6,154,243);fill-rule:nonzero;"/>
</svg>
