<?xml version="1.0" encoding="UTF-8" standalone="no"?>
<!DOCTYPE svg PUBLIC "-//W3C//DTD SVG 1.1//EN" "http://www.w3.org/Graphics/SVG/1.1/DTD/svg11.dtd">
<svg width="100%" height="100%" viewBox="0 0 1024 1024" version="1.1" xmlns="http://www.w3.org/2000/svg" xmlns:xlink="http://www.w3.org/1999/xlink" xml:space="preserve" xmlns:serif="http://www.serif.com/" style="fill-rule:evenodd;clip-rule:evenodd;stroke-linejoin:round;stroke-miterlimit:2;">
    <g transform="matrix(42.6667,0,0,42.6667,0,0)">
        <path d="M16.477,12.481L11.539,7.542L16.477,2.604L21.415,7.542L16.477,12.481ZM16.502,10.392L19.327,7.567L16.502,4.742L13.677,7.567L16.502,10.392Z" style="fill:rgb(6,154,243);fill-rule:nonzero;"/>
    </g>
    <g transform="matrix(42.6667,0,0,42.6667,0,0)">
        <path d="M13.192,20.192L13.192,13.192L20.192,13.192L20.192,20.192L13.192,20.192ZM3.808,20.192L3.808,13.192L10.808,13.192L10.808,20.192L3.808,20.192ZM14.692,18.692L18.692,18.692L18.692,14.692L14.692,14.692L14.692,18.692ZM5.308,18.692L9.308,18.692L9.308,14.692L5.308,14.692L5.308,18.692ZM3.808,10.808L3.808,3.808L10.808,3.808L10.808,10.808L3.808,10.808ZM5.308,9.308L9.308,9.308L9.308,5.308L5.308,5.308L5.308,9.308Z" style="fill:rgb(102,102,102);fill-rule:nonzero;"/>
    </g>
</svg>
