<?xml version="1.0" encoding="UTF-8" standalone="no"?>
<!DOCTYPE svg PUBLIC "-//W3C//DTD SVG 1.1//EN" "http://www.w3.org/Graphics/SVG/1.1/DTD/svg11.dtd">
<svg width="100%" height="100%" viewBox="0 0 1024 1024" version="1.1" xmlns="http://www.w3.org/2000/svg" xmlns:xlink="http://www.w3.org/1999/xlink" xml:space="preserve" xmlns:serif="http://www.serif.com/" style="fill-rule:evenodd;clip-rule:evenodd;stroke-linejoin:round;stroke-miterlimit:2;">
    <g transform="matrix(0.499668,0,0,0.499668,42,74.79093)">
        <path d="M1801.056,0L517.694,0C473.404,0 437.5,35.904 437.5,80.194L437.5,437.5L1181.25,656.25L1881.25,437.5L1881.25,80.194C1881.25,35.904 1845.346,0 1801.056,0Z" style="fill:rgb(65,165,238);fill-rule:nonzero;"/>
    </g>
    <g transform="matrix(0.499668,0,0,0.499668,42,74.79093)">
        <path d="M1881.25,437.5L437.5,437.5L437.5,875L1181.25,1006.25L1881.25,875L1881.25,437.5Z" style="fill:rgb(43,124,211);fill-rule:nonzero;"/>
    </g>
    <g transform="matrix(0.499668,0,0,0.499668,42,74.79093)">
        <path d="M437.5,875L437.5,1312.5L1137.5,1400L1881.25,1312.5L1881.25,875L437.5,875Z" style="fill:rgb(24,90,189);fill-rule:nonzero;"/>
    </g>
    <g transform="matrix(0.499668,0,0,0.499668,42,74.79093)">
        <path d="M517.694,1750L1801.057,1750C1845.347,1750 1881.251,1714.096 1881.251,1669.806L1881.251,1312.5L437.5,1312.5L437.5,1669.806C437.5,1714.096 473.404,1750 517.694,1750Z" style="fill:rgb(16,63,145);fill-rule:nonzero;"/>
    </g>
    <g transform="matrix(0.499668,0,0,0.499668,42,74.79093)">
        <path d="M969.806,350L437.5,350L437.5,1443.75L969.806,1443.75C1014.036,1443.606 1049.856,1407.786 1050,1363.556L1050,430.194C1049.856,385.964 1014.036,350.144 969.806,350Z" style="fill-opacity:0.1;fill-rule:nonzero;"/>
    </g>
    <g transform="matrix(0.499668,0,0,0.499668,42,74.79093)">
        <path d="M926.056,393.75L437.5,393.75L437.5,1487.5L926.056,1487.5C970.286,1487.356 1006.106,1451.536 1006.25,1407.306L1006.25,473.944C1006.106,429.714 970.286,393.894 926.056,393.75Z" style="fill-opacity:0.2;fill-rule:nonzero;"/>
    </g>
    <g transform="matrix(0.499668,0,0,0.499668,42,74.79093)">
        <path d="M926.056,393.75L437.5,393.75L437.5,1400L926.056,1400C970.286,1399.856 1006.106,1364.036 1006.25,1319.806L1006.25,473.944C1006.106,429.714 970.286,393.894 926.056,393.75Z" style="fill-opacity:0.2;fill-rule:nonzero;"/>
    </g>
    <g transform="matrix(0.499668,0,0,0.499668,42,74.79093)">
        <path d="M882.306,393.75L437.5,393.75L437.5,1400L882.306,1400C926.536,1399.856 962.356,1364.036 962.5,1319.806L962.5,473.944C962.356,429.714 926.536,393.894 882.306,393.75Z" style="fill-opacity:0.2;fill-rule:nonzero;"/>
    </g>
    <g transform="matrix(0.499668,0,0,0.499668,42,74.79093)">
        <path d="M80.194,393.75L882.306,393.75C926.596,393.75 962.5,429.654 962.5,473.944L962.5,1276.057C962.5,1320.347 926.596,1356.251 882.306,1356.251L80.194,1356.251C35.904,1356.251 0,1320.347 0,1276.057L0,473.944C0,429.654 35.904,393.75 80.194,393.75Z" style="fill:url(#_Linear1);fill-rule:nonzero;"/>
    </g>
    <g transform="matrix(0.499668,0,0,0.499668,42,74.79093)">
        <path d="M329.088,1008.788C330.663,1021.169 331.713,1031.932 332.194,1041.163L334.031,1041.163C334.731,1032.413 336.189,1021.869 338.406,1009.532C340.623,997.194 342.621,986.767 344.4,978.251L428.75,614.338L537.819,614.338L625.319,972.782C630.403,995.07 634.042,1017.663 636.213,1040.419L637.657,1040.419C639.288,1018.372 642.328,996.453 646.757,974.794L716.538,614.163L815.807,614.163L693.219,1135.663L577.238,1135.663L494.113,790.3C491.707,780.369 488.951,767.375 485.932,751.406C482.913,735.437 481.032,723.756 480.288,716.406L478.844,716.406C477.882,724.893 476,737.494 473.2,754.206C470.4,770.919 468.154,783.285 466.462,791.306L388.324,1135.575L270.374,1135.575L147.131,614.337L248.193,614.337L324.187,978.993C325.894,986.475 327.513,996.45 329.088,1008.788Z" style="fill:white;fill-rule:nonzero;"/>
    </g>
    <defs>
        <linearGradient id="_Linear1" x1="0" y1="0" x2="1" y2="0" gradientUnits="userSpaceOnUse" gradientTransform="matrix(628.0886,1087.8234,-1087.8234,628.0886,167.2057,331.0883)"><stop offset="0" style="stop-color:rgb(35,104,196);stop-opacity:1"/><stop offset="0.5" style="stop-color:rgb(26,93,190);stop-opacity:1"/><stop offset="1" style="stop-color:rgb(17,70,172);stop-opacity:1"/></linearGradient>
    </defs>
</svg>
